<svg width="29" height="30" viewBox="0 0 29 30" fill="none" xmlns="http://www.w3.org/2000/svg">
<path d="M23.2721 28.5123H5.72681C2.56959 28.5123 0 25.986 0 22.8805V5.63072C0 2.52647 2.56942 0 5.72681 0H23.2721C26.4293 0 29 2.52631 29 5.63072V22.8805C29 25.9845 26.4292 28.5123 23.2721 28.5123ZM5.72681 1.65155C3.49455 1.65155 1.67962 3.43749 1.67962 5.63083V22.8806C1.67962 25.0754 3.49604 26.8599 5.72681 26.8599H23.2721C25.5043 26.8599 27.3193 25.0752 27.3193 22.8806V5.63083C27.3193 3.43602 25.5042 1.65155 23.2721 1.65155H5.72681Z" fill="url(#paint0_linear_158_691)"/>
<path d="M10.301 30H6.96419C6.50052 30 6.12443 29.6304 6.12443 29.1743V27.687C6.12443 27.2311 6.5003 26.8613 6.96419 26.8613C7.42786 26.8613 7.80394 27.2309 7.80394 27.687V28.3487L9.4612 28.3489V27.6872C9.4612 27.2313 9.83707 26.8615 10.301 26.8615C10.7646 26.8615 11.1407 27.2311 11.1407 27.6872V29.1745C11.1405 29.6304 10.7646 30 10.301 30Z" fill="url(#paint1_linear_158_691)"/>
<path d="M22.0342 30H18.6974C18.2337 30 17.8576 29.6304 17.8576 29.1743V27.687C17.8576 27.2311 18.2335 26.8613 18.6974 26.8613C19.1611 26.8613 19.5372 27.2309 19.5372 27.687V28.3487H21.1933V27.687C21.1933 27.2311 21.5692 26.8613 22.0331 26.8613C22.4967 26.8613 22.8728 27.2309 22.8728 27.687V29.1743C22.8739 29.6304 22.498 30 22.0342 30Z" fill="url(#paint2_linear_158_691)"/>
<path d="M14.4992 24.1837C8.93125 24.1837 4.40085 19.7294 4.40085 14.2548C4.40085 8.7803 8.93114 4.32592 14.4992 4.32592C20.0682 4.32592 24.5975 8.78019 24.5975 14.2548C24.5975 19.7304 20.0682 24.1837 14.4992 24.1837ZM14.4992 5.97746C9.85771 5.97746 6.08058 9.69137 6.08058 14.2548C6.08058 18.8196 9.85787 22.5321 14.4992 22.5321C19.1419 22.5321 22.9178 18.8195 22.9178 14.2548C22.9178 9.69121 19.1418 5.97746 14.4992 5.97746Z" fill="url(#paint3_linear_158_691)"/>
<path d="M14.4992 19.2089C11.7217 19.2089 9.46109 16.9862 9.46109 14.2553C9.46109 11.5245 11.7217 9.30179 14.4992 9.30179C17.2767 9.30179 19.5373 11.5245 19.5373 14.2553C19.5373 16.986 17.2767 19.2089 14.4992 19.2089ZM14.4992 10.9528C12.6467 10.9528 11.1404 12.4351 11.1404 14.2552C11.1404 16.0754 12.6479 17.5577 14.4992 17.5577C16.3504 17.5577 17.858 16.0767 17.858 14.2552C17.858 12.4338 16.3517 10.9528 14.4992 10.9528Z" fill="url(#paint4_linear_158_691)"/>
<path d="M10.301 15.0806H8.10479C7.64112 15.0806 7.26504 14.711 7.26504 14.2549C7.26504 13.799 7.64091 13.4292 8.10479 13.4292H10.301C10.7646 13.4292 11.1404 13.7991 11.1404 14.2552C11.1402 14.7113 10.7646 15.0806 10.301 15.0806Z" fill="url(#paint5_linear_158_691)"/>
<path d="M20.8937 15.0806H18.6975C18.2338 15.0806 17.858 14.7113 17.858 14.2552C17.858 13.7993 18.2336 13.4292 18.6975 13.4292H20.8937C21.3573 13.4292 21.7334 13.7988 21.7334 14.2549C21.7334 14.711 21.3586 15.0806 20.8937 15.0806Z" fill="url(#paint6_linear_158_691)"/>
<path d="M14.4992 21.3694C14.0355 21.3694 13.6594 20.9998 13.6594 20.5437V18.3857C13.6594 17.9298 14.0353 17.56 14.4992 17.56C14.9628 17.56 15.3389 17.9296 15.3389 18.3857V20.5437C15.3389 20.9998 14.9628 21.3694 14.4992 21.3694Z" fill="url(#paint7_linear_158_691)"/>
<path d="M14.4992 10.9528C14.0355 10.9528 13.6594 10.5832 13.6594 10.1271V7.96928C13.6594 7.51339 14.0353 7.14361 14.4992 7.14361C14.9628 7.14361 15.3389 7.51317 15.3389 7.96928V10.1273C15.3389 10.5832 14.9628 10.9528 14.4992 10.9528Z" fill="url(#paint8_linear_158_691)"/>
<path d="M9.97761 19.5262C9.76178 19.5262 9.54747 19.4463 9.38334 19.2836C9.05657 18.9611 9.05657 18.439 9.38334 18.1165L10.9361 16.5911C11.2642 16.2685 11.7964 16.2672 12.1232 16.5924C12.4499 16.9149 12.4499 17.437 12.1232 17.7595L10.5704 19.2849C10.4078 19.4463 10.1921 19.5262 9.97761 19.5262Z" fill="url(#paint9_linear_158_691)"/>
<path d="M17.4678 12.1623C17.2532 12.1623 17.0376 12.0824 16.8735 11.921C16.5454 11.5984 16.5454 11.0764 16.8735 10.7538L18.4263 9.22712C18.7543 8.90455 19.2866 8.90455 19.6147 9.22712C19.9427 9.54969 19.9427 10.0717 19.6147 10.3943L18.0619 11.921C17.8979 12.0822 17.6821 12.1623 17.4678 12.1623Z" fill="url(#paint10_linear_158_691)"/>
<path d="M19.0207 19.5262C18.8062 19.5262 18.5906 19.4463 18.4277 19.2849L16.8749 17.7595C16.5468 17.4369 16.5455 16.9149 16.8736 16.5923C17.2017 16.2672 17.7352 16.2685 18.0607 16.5911L19.6135 18.1165C19.9415 18.4391 19.9428 18.9611 19.6148 19.2836C19.4508 19.4463 19.235 19.5262 19.0207 19.5262Z" fill="url(#paint11_linear_158_691)"/>
<path d="M11.5306 12.1623C11.3148 12.1623 11.1004 12.0824 10.9376 11.921L9.38502 10.3943C9.05695 10.0717 9.05695 9.54965 9.38502 9.22713C9.71309 8.9046 10.244 8.90456 10.5721 9.22713L12.1249 10.7539C12.4529 11.0764 12.4529 11.5985 12.1249 11.921C11.9607 12.0822 11.7464 12.1623 11.5306 12.1623Z" fill="url(#paint12_linear_158_691)"/>
<defs>
<linearGradient id="paint0_linear_158_691" x1="-6.82775e-08" y1="36.5" x2="38.5576" y2="28.5064" gradientUnits="userSpaceOnUse">
<stop stop-color="#0066FF"/>
<stop offset="1" stop-color="#2CE0C5"/>
</linearGradient>
<linearGradient id="paint1_linear_158_691" x1="-6.82775e-08" y1="36.5" x2="38.5576" y2="28.5064" gradientUnits="userSpaceOnUse">
<stop stop-color="#0066FF"/>
<stop offset="1" stop-color="#2CE0C5"/>
</linearGradient>
<linearGradient id="paint2_linear_158_691" x1="-6.82775e-08" y1="36.5" x2="38.5576" y2="28.5064" gradientUnits="userSpaceOnUse">
<stop stop-color="#0066FF"/>
<stop offset="1" stop-color="#2CE0C5"/>
</linearGradient>
<linearGradient id="paint3_linear_158_691" x1="-6.82775e-08" y1="36.5" x2="38.5576" y2="28.5064" gradientUnits="userSpaceOnUse">
<stop stop-color="#0066FF"/>
<stop offset="1" stop-color="#2CE0C5"/>
</linearGradient>
<linearGradient id="paint4_linear_158_691" x1="-6.82775e-08" y1="36.5" x2="38.5576" y2="28.5064" gradientUnits="userSpaceOnUse">
<stop stop-color="#0066FF"/>
<stop offset="1" stop-color="#2CE0C5"/>
</linearGradient>
<linearGradient id="paint5_linear_158_691" x1="-6.82775e-08" y1="36.5" x2="38.5576" y2="28.5064" gradientUnits="userSpaceOnUse">
<stop stop-color="#0066FF"/>
<stop offset="1" stop-color="#2CE0C5"/>
</linearGradient>
<linearGradient id="paint6_linear_158_691" x1="-6.82775e-08" y1="36.5" x2="38.5576" y2="28.5064" gradientUnits="userSpaceOnUse">
<stop stop-color="#0066FF"/>
<stop offset="1" stop-color="#2CE0C5"/>
</linearGradient>
<linearGradient id="paint7_linear_158_691" x1="-6.82775e-08" y1="36.5" x2="38.5576" y2="28.5064" gradientUnits="userSpaceOnUse">
<stop stop-color="#0066FF"/>
<stop offset="1" stop-color="#2CE0C5"/>
</linearGradient>
<linearGradient id="paint8_linear_158_691" x1="-6.82775e-08" y1="36.5" x2="38.5576" y2="28.5064" gradientUnits="userSpaceOnUse">
<stop stop-color="#0066FF"/>
<stop offset="1" stop-color="#2CE0C5"/>
</linearGradient>
<linearGradient id="paint9_linear_158_691" x1="-6.82775e-08" y1="36.5" x2="38.5576" y2="28.5064" gradientUnits="userSpaceOnUse">
<stop stop-color="#0066FF"/>
<stop offset="1" stop-color="#2CE0C5"/>
</linearGradient>
<linearGradient id="paint10_linear_158_691" x1="-6.82775e-08" y1="36.5" x2="38.5576" y2="28.5064" gradientUnits="userSpaceOnUse">
<stop stop-color="#0066FF"/>
<stop offset="1" stop-color="#2CE0C5"/>
</linearGradient>
<linearGradient id="paint11_linear_158_691" x1="-6.82775e-08" y1="36.5" x2="38.5576" y2="28.5064" gradientUnits="userSpaceOnUse">
<stop stop-color="#0066FF"/>
<stop offset="1" stop-color="#2CE0C5"/>
</linearGradient>
<linearGradient id="paint12_linear_158_691" x1="-6.82775e-08" y1="36.5" x2="38.5576" y2="28.5064" gradientUnits="userSpaceOnUse">
<stop stop-color="#0066FF"/>
<stop offset="1" stop-color="#2CE0C5"/>
</linearGradient>
</defs>
</svg>
