<svg width="20" height="18" viewBox="0 0 20 18" fill="none" xmlns="http://www.w3.org/2000/svg">
<path d="M0 4.3769C0 4.08686 0.117 3.80889 0.325518 3.60394C0.53385 3.39898 0.816419 3.2837 1.11104 3.2837H16.2109L14.7666 1.87353V1.87371C14.4846 1.59648 14.3747 1.19224 14.4777 0.813438C14.5809 0.434825 14.8817 0.138943 15.2666 0.03738C15.6516 -0.0640003 16.0625 0.044151 16.3443 0.321569L19.6776 3.60082C19.7788 3.70476 19.8581 3.82736 19.9109 3.9615C20.0221 4.22757 20.0221 4.52604 19.9109 4.79227C19.8581 4.92641 19.7788 5.04901 19.6776 5.15295L16.3443 8.4322C16.1345 8.63679 15.8506 8.75079 15.5555 8.74915C15.2601 8.75079 14.9762 8.63679 14.7666 8.4322C14.5562 8.22688 14.4379 7.94743 14.4379 7.65614C14.4379 7.36463 14.5562 7.08518 14.7666 6.88009L16.211 5.46992H1.11107C0.816424 5.46992 0.533878 5.35481 0.325546 5.14968C0.117028 4.94473 0 4.66674 0 4.3769ZM18.8889 12.0283H3.78903L5.2334 10.6182C5.51539 10.3409 5.62532 9.93687 5.52227 9.55807C5.41904 9.17928 5.11826 8.88358 4.73342 8.78201C4.34838 8.68045 3.93747 8.78878 3.65566 9.06602L0.32235 12.3453C0.22116 12.4492 0.141918 12.5718 0.0890948 12.7059C-0.0221379 12.9722 -0.0221379 13.2707 0.0890948 13.5367C0.141923 13.6709 0.22116 13.7935 0.32235 13.8974L3.65566 17.1767C3.86437 17.3836 4.14842 17.5 4.44452 17.5C4.74083 17.5 5.02489 17.3836 5.23337 17.1767C5.44375 16.9715 5.56205 16.6921 5.56205 16.4006C5.56205 16.1093 5.44374 15.8298 5.23337 15.6245L3.789 14.2146H18.8889C19.2859 14.2146 19.6527 14.0061 19.8511 13.6679C20.0496 13.3298 20.0496 12.9131 19.8511 12.5749C19.6527 12.2367 19.2859 12.0283 18.8889 12.0283Z" fill="url(#paint0_linear_277_682)"/>
<defs>
<linearGradient id="paint0_linear_277_682" x1="-4.70879e-08" y1="21.2917" x2="26.1626" y2="14.8792" gradientUnits="userSpaceOnUse">
<stop stop-color="#0066FF"/>
<stop offset="1" stop-color="#2CE0C5"/>
</linearGradient>
</defs>
</svg>
