<svg width="28" height="29" viewBox="0 0 28 29" fill="none" xmlns="http://www.w3.org/2000/svg">
<path d="M27 7.51098L27.9 7.51098C27.9 7.1689 27.7061 6.85639 27.3995 6.70453L27 7.51098ZM1 7.72623L0.582825 6.92876C0.286022 7.08402 0.1 7.39127 0.1 7.72623L1 7.72623ZM27 21.411L27.4034 22.2156C27.7078 22.0629 27.9 21.7516 27.9 21.411L27 21.411ZM13.8579 28L13.4547 28.8046C13.7085 28.9318 14.0075 28.9318 14.2613 28.8045L13.8579 28ZM1 21.5558L0.1 21.5558C0.1 21.8964 0.29226 22.2078 0.596747 22.3604L1 21.5558ZM7.42896 24.7779L7.0257 25.5825L7.02571 25.5825L7.42896 24.7779ZM10.6434 12.5594L10.2402 13.364C10.2451 13.3664 10.25 13.3688 10.2549 13.3712L10.6434 12.5594ZM13.8579 1L14.2575 0.193547C13.9995 0.0657249 13.6959 0.0690625 13.4407 0.202526L13.8579 1ZM7.06032 10.7636L7.46357 9.95895L7.46357 9.95895L7.06032 10.7636ZM26.5966 20.6065L13.4546 27.1955L14.2613 28.8045L27.4034 22.2156L26.5966 20.6065ZM1.9 21.5558L1.9 7.72623L0.1 7.72623L0.1 21.5558L1.9 21.5558ZM14.7579 28L14.7579 22.2799L12.9579 22.2799L12.9579 28L14.7579 28ZM14.2612 27.1954L7.83221 23.9733L7.02571 25.5825L13.4547 28.8046L14.2612 27.1954ZM7.83222 23.9733L7.46358 23.7886L6.65706 25.3978L7.0257 25.5825L7.83222 23.9733ZM7.46357 23.7886L1.40325 20.7512L0.596747 22.3604L6.65707 25.3978L7.46357 23.7886ZM14.7579 22.2799L14.7579 20.8355L12.9579 20.8355L12.9579 22.2799L14.7579 22.2799ZM14.7579 20.8355L14.7579 14.098L12.9579 14.098L12.9579 20.8355L14.7579 20.8355ZM26.1 7.51098L26.1 14.1704L27.9 14.1704L27.9 7.51098L26.1 7.51098ZM26.1 14.1704L26.1 21.411L27.9 21.411L27.9 14.1704L26.1 14.1704ZM14.265 21.6382L27.4071 14.9731L26.5929 13.3677L13.4508 20.0328L14.265 21.6382ZM14.2465 13.2862L11.032 11.7476L10.2549 13.3712L13.4694 14.9098L14.2465 13.2862ZM27.3995 6.70453L14.2575 0.193547L13.4584 1.80645L26.6005 8.31743L27.3995 6.70453ZM13.4407 0.202526L0.582825 6.92876L1.41717 8.52371L14.2751 1.79747L13.4407 0.202526ZM26.5967 6.70639L13.4546 13.2934L14.2612 14.9026L27.4033 8.31557L26.5967 6.70639ZM11.0467 11.7548L7.46357 9.95895L6.65707 11.5682L10.2402 13.364L11.0467 11.7548ZM7.46357 9.95895L1.40325 6.92163L0.596747 8.53084L6.65707 11.5682L7.46357 9.95895ZM7.96032 24.5932L7.96032 10.7636L6.16032 10.7636L6.16032 24.5932L7.96032 24.5932Z" fill="url(#paint0_linear_158_672)"/>
<defs>
<linearGradient id="paint0_linear_158_672" x1="0.999999" y1="34.0252" x2="35.6611" y2="27.0752" gradientUnits="userSpaceOnUse">
<stop stop-color="#0066FF"/>
<stop offset="0.635417" stop-color="#2CE0C5"/>
</linearGradient>
</defs>
</svg>
