<svg width="22" height="30" viewBox="0 0 22 30" fill="none" xmlns="http://www.w3.org/2000/svg">
<path d="M0.948229 10.8572H1.99129V7.4287C1.99129 6.95242 2.37051 6.47637 2.93952 6.47637C3.41375 6.47637 3.88775 6.95265 3.88775 7.4287V10.8572H4.93082C5.40504 10.8572 5.87905 11.2381 5.87905 11.8096V24.762C5.87905 25.3335 5.40482 25.7143 4.93082 25.7143H3.88775V29.0477C3.88775 29.6192 3.41353 30 2.93952 30C2.37049 30 1.99129 29.6191 1.99129 29.0477V25.7143H0.948229C0.379196 25.7143 0 25.3335 0 24.762V11.8096C0 11.2381 0.379217 10.8572 0.948229 10.8572ZM3.9828 12.762H1.89672V23.8094H3.9828V12.762Z" fill="url(#paint0_linear_158_690)"/>
<path d="M9.00896 4.28568H10.052V0.952332C10.052 0.380836 10.4312 0 11.0002 0C11.4745 0 11.9485 0.380858 11.9485 0.952332V4.28568H12.9915C13.4658 4.28568 13.9398 4.76196 13.9398 5.23801V18.2852C13.9398 18.7615 13.4655 19.2376 12.9915 19.2376H11.9485V22.5709C11.9485 23.1424 11.4743 23.5233 11.0002 23.5233C10.4312 23.5233 10.052 23.1424 10.052 22.5709V19.2376H9.00896C8.43992 19.2376 8.06073 18.7613 8.06073 18.2852V5.23801C8.06073 4.76174 8.43994 4.28568 9.00896 4.28568ZM12.0435 6.1904H9.95745V17.3332H12.0435V6.1904Z" fill="url(#paint1_linear_158_690)"/>
<path d="M17.0692 10.8572H18.1122V7.4287C18.1122 6.95242 18.4915 6.47637 19.0605 6.47637C19.5347 6.47637 20.0087 6.95265 20.0087 7.4287V10.8572H21.0518C21.526 10.8572 22 11.2381 22 11.8096V24.762C22 25.3335 21.5258 25.7143 21.0518 25.7143H20.0087V29.0477C20.0087 29.6192 19.5345 30 19.0605 30C18.4914 30 18.1122 29.6191 18.1122 29.0477V25.7143H17.0692C16.5001 25.7143 16.121 25.3335 16.121 24.762V11.8096C16.121 11.2381 16.5002 10.8572 17.0692 10.8572ZM20.1038 12.762H18.0177V23.8094H20.1038V12.762Z" fill="url(#paint2_linear_158_690)"/>
<defs>
<linearGradient id="paint0_linear_158_690" x1="-5.17967e-08" y1="36.5" x2="29.7714" y2="31.8177" gradientUnits="userSpaceOnUse">
<stop stop-color="#0066FF"/>
<stop offset="1" stop-color="#2CE0C5"/>
</linearGradient>
<linearGradient id="paint1_linear_158_690" x1="-5.17967e-08" y1="36.5" x2="29.7714" y2="31.8177" gradientUnits="userSpaceOnUse">
<stop stop-color="#0066FF"/>
<stop offset="1" stop-color="#2CE0C5"/>
</linearGradient>
<linearGradient id="paint2_linear_158_690" x1="-5.17967e-08" y1="36.5" x2="29.7714" y2="31.8177" gradientUnits="userSpaceOnUse">
<stop stop-color="#0066FF"/>
<stop offset="1" stop-color="#2CE0C5"/>
</linearGradient>
</defs>
</svg>
