<svg width="60" height="51" viewBox="0 0 60 51" fill="none" xmlns="http://www.w3.org/2000/svg">
<path d="M45.3312 29.5261C39.8666 29.5261 35.3559 33.7336 34.8679 39.0801C33.4184 38.2223 31.74 37.7566 30.0095 37.7566C28.2717 37.7566 26.5932 38.2224 25.1437 39.0729C24.6558 33.7266 20.145 29.5262 14.6805 29.5262C8.88327 29.5262 4.16504 34.2439 4.16504 40.0417C4.16504 45.8317 8.88274 50.5493 14.6805 50.5493C18.9767 50.5493 22.689 47.9465 24.3081 44.2342C24.4484 43.9237 24.5671 43.6054 24.6702 43.2805C24.6852 43.2583 24.6924 43.2361 24.6996 43.2139C25.9639 41.6386 27.9756 40.7142 30.0089 40.7142C32.1387 40.7142 34.1349 41.7273 35.3925 43.4501C36.8126 47.5761 40.7318 50.5494 45.3313 50.5494C51.1285 50.5494 55.8467 45.8316 55.8467 40.0417C55.8462 34.2445 51.1286 29.5263 45.3313 29.5263L45.3312 29.5261ZM21.9414 42.1048L21.8156 42.2895V42.504C20.7953 45.4617 17.978 47.5915 14.6798 47.5915C10.5089 47.5915 7.12265 44.2047 7.12265 40.0415C7.12265 35.8706 10.5094 32.4843 14.6798 32.4843C18.8429 32.4843 22.2298 35.8711 22.2298 40.0415C22.2298 40.759 22.1333 41.4466 21.9415 42.1047L21.9414 42.1048ZM45.3312 47.5916C42.0181 47.5916 39.2007 45.4545 38.1876 42.4819V42.2895L38.0767 42.1271C37.8843 41.4617 37.7812 40.7663 37.7812 40.0416C37.7812 35.8707 41.168 32.4845 45.3312 32.4845C49.5021 32.4845 52.8883 35.8713 52.8883 40.0416C52.8883 44.2047 49.5015 47.5916 45.3312 47.5916L45.3312 47.5916Z" fill="url(#paint0_linear_82_2996)"/>
<path d="M58.5228 20.9706H52.5032C51.7419 9.27972 41.9883 0 30.1117 0C18.2351 0 8.49007 9.28051 7.72022 20.964H1.47881C0.665366 20.964 0 21.6294 0 22.4429C0 23.2563 0.665406 23.9217 1.47881 23.9217H58.5212C59.3346 23.9217 60 23.2563 60 22.4429C60 21.6289 59.3418 20.9708 58.5212 20.9708L58.5228 20.9706ZM10.6855 20.9706C11.4474 10.9138 19.8624 2.96449 30.1112 2.96449C40.3604 2.96449 48.7829 10.9137 49.5448 20.9706H10.6855Z" fill="url(#paint1_linear_82_2996)"/>
<defs>
<linearGradient id="paint0_linear_82_2996" x1="4.16504" y1="55.1044" x2="60.2449" y2="25.5379" gradientUnits="userSpaceOnUse">
<stop stop-color="#0066FF"/>
<stop offset="1" stop-color="#2CE0C5"/>
</linearGradient>
<linearGradient id="paint1_linear_82_2996" x1="-1.41264e-07" y1="29.1047" x2="64.5308" y2="-5.60745" gradientUnits="userSpaceOnUse">
<stop stop-color="#0066FF"/>
<stop offset="1" stop-color="#2CE0C5"/>
</linearGradient>
</defs>
</svg>
