<svg width="1414" height="1016" viewBox="0 0 1414 1016" fill="none" xmlns="http://www.w3.org/2000/svg">
<g clip-path="url(#clip0_401_681)">
<g style="mix-blend-mode:screen" opacity="0.4">
<path fill-rule="evenodd" clip-rule="evenodd" d="M131.919 71.1714C205.092 144.74 204.575 264.516 130.785 338.723C56.9949 412.912 -62.1529 413.432 -135.326 339.863C-208.499 266.294 -207.982 146.518 -134.192 72.3115C-60.4019 -1.89459 58.7458 -2.39758 131.919 71.1714Z" fill="url(#paint0_radial_401_681)"/>
</g>
<path fill-rule="evenodd" clip-rule="evenodd" d="M104.454 102.423C161.384 159.662 160.984 252.847 103.57 310.572C46.1555 368.298 -46.5445 368.7 -103.459 311.461C-160.389 254.222 -159.989 161.037 -102.575 103.312C-45.1604 45.5864 47.5229 45.184 104.454 102.423Z" fill="url(#paint1_radial_401_681)"/>
<path fill-rule="evenodd" clip-rule="evenodd" d="M150.812 207.076C150.812 243.542 137.872 276.974 116.343 302.978C88.9787 336.074 47.7397 357.132 1.56474 357.132C-68.4898 357.132 -127.255 308.594 -143.347 243.157C-146.182 231.588 -147.683 219.5 -147.683 207.076C-147.683 201.56 -147.382 196.145 -146.815 190.78C-146.449 187.41 -145.982 184.107 -145.415 180.804C-133.058 110.471 -71.9583 57.0043 1.56474 57.0043C22.0425 57.0043 41.5363 61.1622 59.296 68.6566C59.3126 68.6566 59.3127 68.6566 59.3127 68.6566C86.8942 80.309 110.24 100.042 126.466 124.906C141.857 148.513 150.812 176.747 150.812 207.076Z" fill="url(#paint2_radial_401_681)"/>
<path opacity="0.1" fill-rule="evenodd" clip-rule="evenodd" d="M150.829 207.076C150.829 289.95 84.0092 357.132 1.58134 357.132C-68.4732 357.132 -127.255 308.611 -143.33 243.173C-142.93 243.727 -142.53 244.263 -142.13 244.816C-141.312 245.956 -140.829 247.113 -140.429 248.438C-140.195 249.192 -140.229 250.064 -140.012 250.768C-139.628 251.992 -138.628 252.629 -139.095 251.171C-138.444 252.546 -138.294 253.82 -137.677 255.161C-136.793 257.139 -136.093 258.933 -135.476 261.029C-134.992 262.706 -134.676 264.449 -134.159 266.109C-133.692 267.618 -132.908 269.026 -132.341 270.519C-130.507 275.18 -127.905 279.052 -125.137 283.16C-124.42 284.216 -124.003 285.457 -123.269 286.48C-122.469 287.57 -121.435 288.559 -120.568 289.632C-119.667 290.772 -118.267 291.593 -117.049 292.348C-115.765 293.136 -114.681 294.125 -113.447 294.98C-111.363 296.439 -108.745 296.875 -106.277 296.858C-103.459 296.841 -100.691 296.003 -97.9224 296.724C-93.1698 297.981 -92.5528 304.201 -90.1015 307.722C-89.0509 309.231 -87.3167 310.07 -85.5991 310.539C-83.5146 311.092 -81.847 311.83 -80.1795 313.138C-78.9288 314.127 -77.2279 314.881 -75.6437 314.948C-73.9094 315.015 -74.293 314.06 -74.3096 312.584C-74.3263 310.405 -75.8438 309.298 -77.0278 307.588C-77.6948 306.632 -77.9116 305.66 -78.3618 304.604C-78.662 303.916 -79.0622 303.548 -78.7287 302.76C-77.6114 302.86 -76.4775 303.799 -75.627 304.503C-73.7927 306.029 -71.4748 306.934 -69.3069 307.923C-68.273 308.376 -67.4393 308.829 -66.5388 309.499C-66.0718 309.852 -65.4048 310.572 -64.8712 310.807C-63.2036 311.495 -61.2025 308.795 -60.8524 307.437C-60.4688 305.878 -61.0858 303.581 -62.1864 302.491C-64.1875 300.479 -65.8384 298.3 -67.506 295.986C-69.2236 293.605 -71.4247 291.292 -72.6421 288.609C-73.8594 285.91 -74.9933 282.707 -74.7099 279.69C-74.5431 277.812 -73.7427 275.833 -73.159 274.056C-72.8755 273.168 -72.6921 271.776 -72.1752 271.005C-71.4081 269.865 -69.6571 270.032 -68.4898 270.25C-66.372 270.653 -63.6039 270.653 -61.7195 271.726C-59.8518 272.799 -58.6512 275.263 -56.3499 275.565C-52.7813 276.051 -49.6296 272.983 -47.3951 270.703C-45.3773 268.641 -42.926 265.17 -39.9911 264.349C-38.2402 263.863 -36.6226 264.969 -34.9884 265.405C-34.238 265.606 -33.4709 265.958 -32.7038 266.059C-31.3698 266.243 -30.3359 265.556 -29.2186 264.936C-26.6506 263.51 -24.3327 263.628 -21.5311 264.365C-20.2304 264.718 -19.3633 265.589 -18.2961 266.327C-16.5785 267.534 -14.8609 268.708 -13.0932 269.865C-11.509 270.887 -10.0416 271.826 -9.35789 273.654C-9.04106 274.526 -9.02438 274.861 -9.25784 275.8C-9.40793 276.403 -9.72476 277.225 -9.44128 277.845C-8.97437 278.818 -7.47354 279.12 -6.63976 279.656C-5.4391 280.427 -4.2885 281.366 -3.23793 282.322C-0.486435 284.82 0.497437 287.754 0.814285 291.359C0.997711 293.387 0.6642 295.634 -0.803268 297.176C-2.45416 298.937 -5.32237 298.97 -6.73981 300.865C-7.89043 302.374 -8.32399 304.453 -8.55745 306.314C-8.70752 307.471 -8.54079 308.46 -8.99103 309.583C-9.558 310.941 -10.4251 312.283 -11.1255 313.574C-11.6758 314.63 -12.3762 315.502 -12.7764 316.625C-13.0099 317.262 -13.1599 317.916 -13.4101 318.553C-14.0271 320.062 -15.2611 321.37 -16.6618 322.158C-18.5962 323.248 -20.5139 324.471 -22.7651 324.421C-24.0658 324.404 -25.8001 324.74 -27.0508 324.438C-27.451 324.337 -27.7345 324.069 -28.1347 323.952C-28.6516 323.801 -29.0518 323.751 -29.5354 323.566C-30.9028 323.046 -31.3198 322.543 -32.1035 321.236C-32.7372 320.112 -33.4376 319.492 -34.4881 318.754C-35.2886 318.201 -36.2224 317.899 -37.1062 317.447C-37.6732 317.145 -38.6404 317.027 -39.1073 316.591C-40.0411 315.736 -38.8905 314.881 -38.3903 314.009C-37.3063 312.132 -35.8555 310.22 -34.2213 308.812C-33.5376 308.208 -32.7372 307.789 -31.8701 307.521C-30.6027 307.135 -30.019 307.42 -28.9184 307.991C-27.7011 308.644 -27.401 309.332 -26.7506 310.489C-27.3509 310.992 -28.1347 311.679 -28.8184 311.964C-29.4187 312.199 -30.4193 312.065 -30.5527 312.953C-28.635 315.015 -27.0675 316.239 -24.4327 314.311C-23.0486 313.289 -19.7969 311.629 -19.8469 309.701C-19.8636 308.644 -21.8646 307.32 -22.6151 306.75C-23.3655 306.18 -24.2326 305.777 -24.9663 305.174C-25.7501 304.537 -26.1336 303.631 -26.834 302.944C-27.551 302.223 -28.4849 301.569 -29.252 300.848C-29.9857 300.161 -30.7528 299.993 -31.6199 299.54C-32.5371 299.054 -33.1708 298.451 -34.188 298.132C-35.3386 297.797 -37.0562 297.16 -38.2735 297.193C-40.9416 297.244 -43.5263 299.909 -45.0438 301.871C-46.3779 303.564 -48.8626 306.767 -48.0955 309.131C-47.7786 310.07 -46.8448 310.438 -46.4279 311.26C-46.2445 311.645 -46.0444 312.434 -45.9443 312.836C-45.6608 314.177 -46.011 315.451 -45.5775 316.793C-44.2768 320.951 -43.593 325.813 -39.4241 327.992C-38.7404 328.344 -38.2235 328.68 -37.4731 328.914C-36.7227 329.149 -35.8555 329.149 -35.1218 329.434C-33.5209 330.038 -32.3036 330.843 -30.5527 331.111C-28.635 331.413 -26.7506 331.614 -24.7996 331.614C-22.2148 331.614 -19.5134 331.882 -17.0954 330.725C-15.8447 330.122 -14.1271 329.015 -13.1599 328.009C-11.9593 326.752 -11.7592 325.008 -11.3923 323.382C-11.0421 321.906 -11.1088 319.626 -9.92487 318.469C-8.90764 317.48 -7.35681 317.296 -6.30624 316.256C-4.80544 314.747 -3.4547 312.668 -2.5042 310.774C-1.17014 308.158 0.614151 305.895 1.99823 303.33C2.782 301.904 3.9493 300.043 5.14993 298.903C6.28389 297.814 7.88477 297.411 9.41893 297.244C10.753 297.093 12.2038 296.707 13.4711 296.238C14.7551 295.768 16.1893 295.232 17.4399 294.645C18.4905 294.142 19.3076 293.086 20.1914 292.264C22.476 290.185 24.994 289.565 27.8789 288.978C29.0629 288.743 29.8633 288.508 31.0306 288.877C31.9644 289.196 32.8649 289.665 33.8488 289.883C35.1662 290.185 36.8838 290.755 38.2345 290.353C43.1705 288.877 39.7853 284.451 38.9349 281.182C37.2506 274.542 37.3507 267.87 37.3507 261.079C37.3507 258.984 37.0005 256.67 37.7842 254.708C38.1511 253.769 38.2512 252.696 38.668 251.791C38.9515 251.154 39.6853 250.701 39.9354 250.098C40.4523 248.958 40.1522 248.455 41.4696 247.801C42.8203 247.13 43.9542 247.029 45.4384 247.029C49.3738 247.013 53.7762 246.426 57.4782 248.019C59.0457 248.706 60.2964 249.863 61.6305 250.869C63.0479 251.925 64.1485 252.713 64.3319 254.608C64.5654 256.854 65.5826 259.084 67.9839 259.721C69.985 260.258 72.1695 261.046 74.2373 261.046C75.6047 261.029 76.972 260.358 78.2894 260.576C78.673 260.643 79.1566 260.979 79.4401 261.012C80.0904 261.063 80.7741 260.593 81.4245 260.358C82.9753 259.755 84.1593 259.654 85.8102 259.671C88.7117 259.705 89.5622 257.793 91.63 256.05C93.9646 254.054 95.949 252.495 99.0674 252.445C102.836 252.395 105.604 249.326 107.305 246.242C109.957 241.396 112.475 235.142 110.34 229.694C109.54 227.682 108.006 226.122 106.822 224.328C105.571 222.417 105.004 220.204 104.387 218.058C103.837 216.197 101.819 214.135 99.8678 213.615C98.2335 213.179 96.4493 213.464 95.1653 212.19C93.9813 210.999 92.5805 209.373 91.7301 207.915C90.4794 205.768 89.9791 202.382 89.9624 199.934C89.9624 199.112 89.7456 198.995 89.5622 198.358C89.3788 197.754 89.6622 197.084 89.5455 196.463C89.2287 194.686 88.6784 192.892 88.2948 191.065C87.8779 189.053 86.694 186.773 86.7774 184.694C86.8441 183.051 87.8279 181.072 89.0786 180.05C90.5461 178.876 91.6133 177.4 92.6805 175.824C93.2475 174.986 93.7978 174.232 94.148 173.293C94.5149 172.32 94.3481 171.566 94.4982 170.577C94.7316 169.101 95.9657 168.179 97.3831 167.894C98.2669 167.71 99.1841 167.995 100.085 167.861C101.385 167.626 102.619 166.838 103.453 165.849C105.354 163.585 104.937 159.93 104.837 157.13C104.737 154.079 102.719 152.671 101.185 150.357C99.751 148.161 99.134 144.807 100.852 142.527C101.535 141.639 102.536 141.035 102.903 139.845C103.286 138.604 102.519 136.827 102.019 135.687C101.035 133.558 99.6676 131.713 98.0501 130.053C97.2997 129.299 97.1997 128.561 96.7494 127.622C96.1824 126.449 95.432 125.46 94.9151 124.252C94.4648 123.23 94.0479 122.526 93.2975 121.754C92.864 121.318 92.6806 120.849 92.2803 120.396C91.2465 119.189 89.7957 118.552 88.8452 117.194C88.0781 116.104 87.1776 114.813 86.5606 113.606C85.9436 112.365 86.0103 111.074 85.9436 109.733C85.8602 107.822 84.9097 106.648 83.9925 105.106C83.5756 104.418 83.2255 103.949 82.6585 103.312C81.7247 102.289 81.1577 101.182 80.4406 100.026C79.7236 98.8855 78.4395 98.349 77.3556 97.7622C76.8387 97.4772 76.7052 97.2425 76.0549 97.3766C75.2711 97.5275 74.0538 98.634 73.5035 99.1538C72.1194 100.445 70.4686 100.998 68.6342 101.618C66.8833 102.205 65.1157 102.708 63.3481 103.211C61.0301 103.882 58.6622 103.966 56.3276 104.536C53.1759 105.307 50.291 105.961 48.7902 109.046C47.7063 111.259 48.1565 113.908 48.1398 116.322C48.1398 117.194 48.0398 118.083 48.2399 118.921C48.5067 120.162 49.1737 121.302 49.4072 122.542C50.0909 125.912 48.9903 129.433 47.9064 132.585C46.8224 135.754 44.7547 138.068 42.32 140.314C39.135 143.265 34.3157 143.215 30.547 144.908C27.9956 146.065 24.1435 147.641 23.4432 150.692C22.9262 152.989 24.2269 154.498 24.6438 156.577C24.9106 157.935 24.6105 159.377 24.9606 160.651C25.4109 162.278 24.8939 163.149 23.4932 164.29C22.7761 164.876 21.9424 165.463 21.6589 166.419C21.4921 166.989 21.7256 167.559 21.6088 168.112C21.4087 169.118 20.4582 169.839 19.541 170.091C18.0069 170.526 16.3727 170.526 14.9386 171.465C13.6379 172.32 13.1042 173.645 11.5034 173.98C10.2527 174.265 9.31886 174.014 8.01816 173.863C5.85031 173.595 3.68248 173.645 1.53133 173.192C-2.25406 172.404 -5.77261 171.734 -9.69141 171.918C-12.7764 172.069 -14.5273 172.907 -17.4456 171.18C-19.2966 170.074 -21.1309 168.833 -23.0486 167.844C-25.2498 166.737 -27.6344 165.949 -29.9357 165.044C-33.4209 163.652 -37.0395 162.915 -40.6248 161.909C-44.2768 160.886 -46.8281 157.617 -49.3795 155.085C-51.8975 152.62 -54.0487 149.569 -54.9158 146.082C-55.4828 143.768 -55.2327 142.125 -54.9325 139.845C-54.2488 134.781 -56.8169 130.154 -56.0164 125.124C-55.1826 119.893 -54.8158 114.562 -52.6646 109.649C-51.7141 107.503 -50.1299 105.827 -49.0627 103.781C-47.9454 101.602 -45.8276 100.646 -43.7098 99.6735C-42.209 98.9861 -40.3413 98.131 -38.657 98.1813C-36.5392 98.2484 -37.1395 99.5226 -36.4392 100.964C-35.9222 101.987 -35.0551 102.658 -34.188 103.429C-32.4037 105.022 -29.8856 103.429 -28.1347 102.323C-26.1003 101.048 -23.3154 98.7011 -20.7307 99.3214C-18.7463 99.8076 -16.962 100.663 -15.111 99.355C-13.877 98.4999 -12.9765 96.8904 -13.8937 95.3814C-15.4278 92.8498 -19.0965 92.7659 -21.6479 92.7995C-24.6828 92.8162 -27.6845 92.6821 -30.7028 93.1348C-32.5704 93.4198 -34.3881 93.8557 -36.2391 93.4869C-38.2735 93.0845 -39.8911 91.9947 -41.7421 91.1899C-44.8437 89.8654 -47.4451 91.0726 -50.38 92.2127C-53.9486 93.5875 -57.4005 96.0353 -58.968 99.5897C-60.2854 102.624 -59.5684 105.894 -59.8852 109.046C-60.0186 110.471 -60.2354 112.013 -60.6856 113.371C-61.386 115.534 -62.8868 117.244 -64.2375 119.021C-66.6555 122.19 -67.9562 125.51 -67.2558 129.433C-66.9557 131.126 -67.0391 132.015 -67.8061 133.541C-68.4065 134.765 -69.6404 136.223 -69.974 137.531C-70.3241 138.872 -69.3736 139.09 -68.3898 139.895C-67.2225 140.834 -66.0552 142.477 -65.755 143.969C-64.9713 147.674 -66.7889 151.195 -69.6905 153.375C-71.6082 154.817 -74.2263 155.336 -75.5937 157.415C-76.3107 158.539 -76.9611 159.712 -77.6448 160.852C-78.7454 162.68 -80.2128 163.703 -82.0972 164.608C-84.1816 165.58 -86.5329 165.748 -88.2005 167.408C-89.1677 168.364 -89.5012 169.286 -90.0681 170.543C-90.952 172.438 -92.0192 174.215 -93.0197 176.042C-93.9869 177.836 -94.9541 179.044 -96.7551 180.066C-98.8562 181.257 -100.957 182.33 -102.992 183.654C-105.176 185.079 -106.594 187.158 -108.411 188.969C-110.529 191.065 -112.914 191.769 -115.715 192.406C-119.834 193.328 -124.02 194.468 -128.205 195.072C-131.874 195.592 -135.076 195.374 -138.561 194.15C-141.363 193.177 -144.081 192.087 -146.699 190.713C-138.744 115.568 -75.3936 57.0042 1.58134 57.0042C84.0092 57.0042 150.829 124.185 150.829 207.076Z" fill="url(#paint3_linear_401_681)"/>
<path fill-rule="evenodd" clip-rule="evenodd" d="M59.3128 68.6565C58.9126 68.5894 52.1923 67.4326 46.0723 66.6446C39.7356 65.823 40.8862 63.1573 35.3832 61.5813C29.8802 60.0053 19.8248 58.1107 18.1739 58.379C16.5397 58.664 14.5886 60.1729 10.97 60.0388C7.36807 59.9047 0.764511 59.519 -4.00473 59.8711C-8.79065 60.2232 -16.7449 58.1275 -19.5798 60.4747C-22.4314 62.8052 -33.0704 65.7895 -41.0414 68.0697C-49.0124 70.3163 -50.83 71.4229 -56.7666 74.8264C-62.6864 78.2299 -65.3045 82.6728 -72.2083 87.3673C-79.112 92.0618 -82.3971 90.5864 -86.9996 91.6091C-91.6021 92.615 -90.2847 92.9168 -97.2384 98.1813C-104.176 103.446 -104.426 108.459 -107.994 113.036C-111.546 117.63 -120.001 124.336 -120.001 124.336L-125.487 134.899L-130.039 142.762C-130.039 142.762 -126.771 147.758 -133.825 155.689C-140.862 163.619 -145.331 180.854 -145.331 180.854L-145.431 180.804C-133.058 110.471 -71.9581 57.0042 1.56494 57.0042C22.0427 57.0042 41.5365 61.1621 59.3128 68.6565Z" fill="#B5FFFF"/>
<path fill-rule="evenodd" clip-rule="evenodd" d="M24.127 355.421C24.127 355.421 35.4664 347.156 36.5337 339.997C37.6009 332.838 31.1141 332.016 30.7472 327.808C30.3637 323.583 39.0851 311.813 40.3191 304.319C41.5531 296.824 40.3858 290.068 37.3508 285.356C34.3158 280.628 17.4734 273.084 14.8887 263.812C12.2873 254.524 -2.93764 243.24 -2.72085 234.187C-2.50407 225.133 4.91659 217.756 6.30067 204.578C7.68475 191.4 5.16674 187.443 5.16674 187.443C5.16674 187.443 9.01882 193.764 8.3518 205.634C7.70144 217.521 -1.05329 225.72 -1.68697 234.187C-2.33732 242.637 16.9231 259.688 17.3233 262.571C17.7235 265.438 17.3733 266.428 20.7585 269.982C24.1436 273.536 36.7505 281.165 39.9689 286.362C43.2039 291.56 46.9727 287.318 47.9565 279.773C48.9404 272.229 47.7397 262.152 52.9425 257.19C58.1453 252.227 61.5138 251.892 62.8646 244.632C64.2153 237.372 64.3487 231.437 61.247 226.558C58.1453 221.679 52.1921 218.091 52.9425 211.704C53.7096 205.316 49.1071 183.822 40.886 173.092C32.6649 162.361 31.5643 155.253 31.5643 155.253C31.5643 155.253 35.2997 165.144 43.354 173.092C51.4084 181.022 53.0426 209.943 54.46 214.973C55.8941 220.019 61.5138 217.052 63.7651 230.599C66.0163 244.146 63.5149 249.98 61.2303 252.596C58.9458 255.211 53.1426 256.787 51.2249 260.71C49.3072 264.617 50.0743 280.209 49.574 285.071C49.0905 289.934 45.4218 290.621 43.6375 294.561C41.8532 298.518 42.5036 303.514 37.3341 314.563C32.1646 325.611 32.6482 328.864 37.3341 332.938C42.02 337.012 54.6101 337.549 55.6273 340.5C56.6445 343.45 51.6919 346.066 52.0087 347.173C52.3255 348.262 58.3288 345.949 58.3288 345.949C58.3288 345.949 39.7354 353.812 24.127 355.421Z" fill="#82ABE5"/>
<path fill-rule="evenodd" clip-rule="evenodd" d="M150.812 207.076C150.812 243.542 137.872 276.973 116.343 302.977C114.209 300.328 112.041 295.852 111.758 288.475C111.224 273.335 111.307 266.008 105.838 255.781C100.351 245.571 94.048 250.735 92.5972 239.384C91.2132 228.402 86.1938 216.482 85.877 215.744C86.3105 216.364 91.9969 224.831 92.7974 228.671C93.6145 232.678 92.9808 240.004 94.9319 243.76C96.8496 247.516 103.97 250.399 106.772 252.529C109.556 254.658 112.191 267.098 112.191 273.184C112.191 279.27 116.56 280.125 118.244 279.958C119.929 279.79 128.3 271.558 129.117 268.305C129.951 265.086 137.988 245.839 131.318 236.936C124.681 228.034 117.661 230.163 112.641 222.819C107.605 215.493 104.554 215.979 91.6968 208.015C92.714 208.451 101.119 212.072 107.589 215.476C114.492 219.114 113.492 222.115 117.127 225.552C120.746 229.006 126.832 230.18 130.284 232.493C133.719 234.807 135.754 245.235 137.955 249.36C140.14 253.484 147.86 247.147 145.309 231.303C142.774 215.459 136.905 215.761 135.904 209.172C134.887 202.6 143.458 206.456 146.393 199.716C149.328 192.993 145.342 181.709 143.391 176.445C141.44 171.197 135.954 168.816 129.817 164.055C123.697 159.276 125.015 156.711 117.277 152.386C111.274 149.016 104.137 148.194 101.269 147.993C104.637 148.144 113.625 148.714 117.744 150.038C122.864 151.698 125.915 159.796 129.817 162.747C133.703 165.731 140.89 166.72 142.024 164.055C143.191 161.372 141.49 154.448 135.654 146.233C131.218 139.996 127.816 129.517 126.449 124.873C141.857 148.513 150.812 176.747 150.812 207.076Z" fill="#82ABE5"/>
<path fill-rule="evenodd" clip-rule="evenodd" d="M31.5478 60.6089C31.5478 60.6089 38.8684 70.4673 38.8684 74.2228C38.8684 83.3268 33.3154 92.263 30.9641 97.7287C28.0125 104.603 28.0626 112.181 28.0626 112.181V120.715C28.0626 120.715 28.2293 111.577 29.7135 107.118C31.1976 102.658 34.1492 102.306 34.9663 98.9191C35.7834 95.5324 34.4827 91.4247 36.5338 86.2943C38.5849 81.164 40.4025 81.0466 40.3025 77.5425C40.2191 74.0552 39.8689 68.3548 43.0039 66.7452C46.139 65.1357 49.6742 64.968 49.6742 64.968C49.6742 64.968 39.8022 61.3801 31.5478 60.6089Z" fill="#82ABE5"/>
<g opacity="0.3">
<g style="mix-blend-mode:screen">
<path fill-rule="evenodd" clip-rule="evenodd" d="M35.6904 297.342C-126.514 361.724 -274.16 372.772 -294.088 322.022C-314.032 271.271 -198.686 177.935 -36.4819 113.554C125.722 49.1726 273.369 38.1238 293.296 88.8744C313.224 139.625 197.895 232.961 35.6904 297.342Z" fill="url(#paint4_radial_401_681)"/>
</g>
</g>
<path opacity="0.25" d="M261.418 172.616C261.418 173.218 260.931 173.716 260.323 173.716C259.723 173.716 259.227 173.227 259.227 172.616C259.227 172.013 259.714 171.515 260.323 171.515C260.931 171.515 261.418 172.004 261.418 172.616Z" fill="#AFF1FF"/>
<path opacity="0.25" d="M208.257 268.891C208.257 269.494 207.77 269.992 207.161 269.992C206.561 269.992 206.065 269.502 206.065 268.891C206.065 268.288 206.552 267.791 207.161 267.791C207.77 267.791 208.257 268.28 208.257 268.891Z" fill="#AFF1FF"/>
<path opacity="0.5" d="M249.261 80.7527C249.261 81.5649 248.609 82.2199 247.8 82.2199C246.991 82.2199 246.339 81.5649 246.339 80.7527C246.339 79.9404 246.991 79.2854 247.8 79.2854C248.609 79.2854 249.261 79.9404 249.261 80.7527Z" fill="#AFF1FF"/>
<path opacity="0.85" d="M194.488 146.285C194.488 147.097 193.836 147.752 193.027 147.752C192.219 147.752 191.566 147.097 191.566 146.285C191.566 145.472 192.219 144.817 193.027 144.817C193.836 144.826 194.488 145.481 194.488 146.285Z" fill="#AFF1FF"/>
<path opacity="0.85" d="M180.795 342.071C180.795 342.883 180.143 343.538 179.334 343.538C178.525 343.538 177.873 342.883 177.873 342.071C177.873 341.259 178.525 340.604 179.334 340.604C180.143 340.612 180.795 341.268 180.795 342.071Z" fill="#AFF1FF"/>
<path opacity="0.5" d="M198.515 42.7281C198.515 43.5404 197.863 44.1954 197.055 44.1954C196.246 44.1954 195.594 43.5404 195.594 42.7281C195.594 41.9159 196.246 41.2609 197.055 41.2609C197.863 41.2696 198.515 41.9246 198.515 42.7281Z" fill="#AFF1FF"/>
<path opacity="0.85" d="M105.885 6.32152C105.885 7.13376 105.233 7.78879 104.424 7.78879C103.616 7.78879 102.963 7.13376 102.963 6.32152C102.963 5.50929 103.616 4.85425 104.424 4.85425C105.233 4.85425 105.885 5.50929 105.885 6.32152Z" fill="#AFF1FF"/>
<path opacity="0.25" d="M271.084 26.1805C271.084 26.7832 270.597 27.281 269.989 27.281C269.38 27.281 268.893 26.7919 268.893 26.1805C268.893 25.5779 269.38 25.0801 269.989 25.0801C270.597 25.0801 271.084 25.5692 271.084 26.1805Z" fill="#AFF1FF"/>
</g>
<g style="mix-blend-mode:screen" opacity="0.05">
<path d="M-72.5823 194C38.5393 243.442 249.759 339.388 362.728 403.646C520.696 493.468 740.578 570.919 756.057 611.196C771.535 651.473 703.401 648.37 811.812 685.544C920.224 722.718 1211.34 924.062 1341.43 979.833C1366 990.375 1390.47 1002.79 1414 1016H1138.34C1087.27 975.435 1042.84 941.652 1019.32 927.165C938.803 877.599 740.578 781.592 697.222 759.892C653.865 738.212 675.543 716.512 632.187 679.338C588.83 642.164 313.192 530.642 192.381 459.376C114.844 413.653 -21.3633 339.84 -109 292.864V194H-72.5823Z" fill="url(#paint5_linear_401_681)"/>
</g>
<g style="mix-blend-mode:screen" opacity="0.05">
<path d="M-109 489C77.2188 579.232 399.724 742.362 385.086 760.972C373.383 775.86 613.619 907.117 820 1016H679.545C576.581 957.723 476.347 899.59 427.729 867.429C305.753 786.759 290.703 734.774 243.03 712.36C214.655 699.035 33.2613 613.327 -109 546.084V489Z" fill="url(#paint6_linear_401_681)"/>
</g>
<defs>
<radialGradient id="paint0_radial_401_681" cx="0" cy="0" r="1" gradientUnits="userSpaceOnUse" gradientTransform="translate(-1.70289 205.516) rotate(-45.1547) scale(189.479 187.865)">
<stop offset="0.2123" stop-color="#16CCFF"/>
<stop offset="0.2845" stop-color="#15C7F9"/>
<stop offset="0.3835" stop-color="#14B9E7"/>
<stop offset="0.4981" stop-color="#11A2CA"/>
<stop offset="0.6244" stop-color="#0E81A2"/>
<stop offset="0.7603" stop-color="#09586E" stop-opacity="0"/>
<stop offset="0.902" stop-color="#04262F" stop-opacity="0"/>
<stop offset="1" stop-opacity="0"/>
</radialGradient>
<radialGradient id="paint1_radial_401_681" cx="0" cy="0" r="1" gradientUnits="userSpaceOnUse" gradientTransform="translate(0.494772 206.942) rotate(-45.1547) scale(147.421 146.165)">
<stop stop-color="#5B40FF"/>
<stop offset="0.2204" stop-color="#3FCAFC"/>
<stop offset="0.3562" stop-color="#3DC3F4"/>
<stop offset="0.4692" stop-color="#3AB8E5"/>
<stop offset="0.5696" stop-color="#34A7D1"/>
<stop offset="0.6618" stop-color="#2E92B6"/>
<stop offset="0.7478" stop-color="#267896"/>
<stop offset="0.8292" stop-color="#1C596F"/>
<stop offset="0.9069" stop-color="#103442"/>
<stop offset="0.979" stop-color="#040D10"/>
<stop offset="1"/>
</radialGradient>
<radialGradient id="paint2_radial_401_681" cx="0" cy="0" r="1" gradientUnits="userSpaceOnUse" gradientTransform="translate(-37.7887 154.045) scale(308.983 310.655)">
<stop stop-color="#5ECEFF"/>
<stop offset="0.1194" stop-color="#7DDCFF"/>
<stop offset="0.2577" stop-color="#9AE9FF"/>
<stop offset="0.4057" stop-color="#B1F3FF"/>
<stop offset="0.566" stop-color="#C1FAFF"/>
<stop offset="0.7472" stop-color="#CAFEFF"/>
<stop offset="0.9944" stop-color="#CDFFFF"/>
</radialGradient>
<linearGradient id="paint3_linear_401_681" x1="2.00557" y1="357.126" x2="2.00557" y2="57.0085" gradientUnits="userSpaceOnUse">
<stop stop-color="white"/>
<stop offset="1" stop-color="#021FB6"/>
</linearGradient>
<radialGradient id="paint4_radial_401_681" cx="0" cy="0" r="1" gradientUnits="userSpaceOnUse" gradientTransform="translate(-0.39967 205.451) rotate(68.5624) scale(98.7263 315.992)">
<stop stop-color="#003CFF"/>
<stop offset="0.96875" stop-color="#8DC4FF" stop-opacity="0"/>
<stop offset="1" stop-color="#1A378D"/>
</radialGradient>
<linearGradient id="paint5_linear_401_681" x1="900.642" y1="781.6" x2="186.048" y2="372.426" gradientUnits="userSpaceOnUse">
<stop/>
<stop offset="0.0379" stop-color="#101010"/>
<stop offset="0.1936" stop-color="#4F4F4F"/>
<stop offset="0.3477" stop-color="#848484"/>
<stop offset="0.4966" stop-color="#B0B0B0"/>
<stop offset="0.6393" stop-color="#D3D3D3"/>
<stop offset="0.774" stop-color="#EBEBEB"/>
<stop offset="0.8977" stop-color="#FAFAFA"/>
<stop offset="1" stop-color="white"/>
</linearGradient>
<linearGradient id="paint6_linear_401_681" x1="431.017" y1="824.141" x2="-28.6702" y2="560.818" gradientUnits="userSpaceOnUse">
<stop/>
<stop offset="0.0379" stop-color="#101010"/>
<stop offset="0.1936" stop-color="#4F4F4F"/>
<stop offset="0.3477" stop-color="#848484"/>
<stop offset="0.4966" stop-color="#B0B0B0"/>
<stop offset="0.6393" stop-color="#D3D3D3"/>
<stop offset="0.774" stop-color="#EBEBEB"/>
<stop offset="0.8977" stop-color="#FAFAFA"/>
<stop offset="1" stop-color="white"/>
</linearGradient>
<clipPath id="clip0_401_681">
<rect width="617" height="394" fill="white" transform="translate(-303)"/>
</clipPath>
</defs>
</svg>
