<svg width="1440" height="1201" viewBox="0 0 1440 1201" fill="none" xmlns="http://www.w3.org/2000/svg">
<g style="mix-blend-mode:screen" opacity="0.03">
<path d="M1779.82 0C1617.55 72.2383 1309.11 212.422 1144.15 306.307C913.471 437.543 592.382 550.705 569.779 609.552C547.175 668.4 646.671 663.866 488.36 718.18C330.049 772.494 -95.0622 1066.67 -285.03 1148.16C-320.913 1163.56 -356.646 1181.69 -391 1201H11.5377C86.1217 1141.73 150.993 1092.37 185.347 1071.21C302.919 998.787 592.381 858.513 655.694 826.808C719.006 795.132 687.35 763.427 750.663 709.113C813.975 654.799 1216.48 491.857 1392.9 387.733C1506.13 320.929 1705.03 213.082 1833 144.447V0H1779.82Z" fill="url(#paint0_linear_396_682)"/>
</g>
<g style="mix-blend-mode:screen" opacity="0.15">
<path d="M1579.02 180.5H1621.5V296.725C1517.8 352.337 1356.83 439.613 1265.15 493.695C1195.68 534.694 1082.9 586.961 979.43 634.917C976.493 636.278 973.565 637.635 970.645 638.988C917.74 663.511 867.69 686.777 827.661 706.662C807.646 716.605 790.131 725.705 776.013 733.697C761.904 741.684 751.161 748.58 744.709 754.114C720.323 775.031 713.251 791.849 707.116 806.441C706.775 807.251 706.437 808.055 706.1 808.852C702.896 816.411 699.713 823.344 694.153 829.987C688.596 836.627 680.64 843.005 667.862 849.398C660.08 853.294 648.078 859.217 632.982 866.666C548.599 908.304 367.552 997.64 286.724 1047.42C258.879 1064.57 206.351 1104.54 145.982 1152.5H-178.086C-150.775 1137.22 -122.414 1122.87 -93.9402 1110.65C-21.0929 1079.4 94.3839 1009.6 209.397 940.071C215.955 936.107 222.512 932.143 229.06 928.187C289.754 891.519 349.638 855.544 402.365 825.985C455.101 796.422 500.644 773.297 532.665 762.312C564.733 751.312 583.792 743.276 594.611 736.656C600.02 733.346 603.412 730.364 605.332 727.506C607.267 724.625 607.694 721.887 607.214 719.128C606.741 716.402 605.385 713.672 603.812 710.789C603.509 710.234 603.198 709.674 602.883 709.105C601.547 706.695 600.132 704.142 598.937 701.315C596.002 694.368 594.414 685.793 598.939 674.013C601.177 668.187 607.151 661.611 616.371 654.343C625.574 647.088 637.944 639.195 652.878 630.72C682.744 613.771 722.805 594.526 768.153 573.441C783.044 566.517 798.505 559.395 814.361 552.091C895.056 514.918 985.978 473.034 1064.1 428.592L1063.86 428.157L1064.1 428.592C1197.71 352.563 1447.51 239.04 1579.02 180.5Z" stroke="url(#paint1_linear_396_682)"/>
</g>
<g opacity="0.3">
<g style="mix-blend-mode:screen">
<path fill-rule="evenodd" clip-rule="evenodd" d="M1450.54 225.176C1367.22 257.921 1291.39 263.54 1281.15 237.728C1270.91 211.916 1330.15 164.444 1413.47 131.699C1496.78 98.9543 1572.61 93.3348 1582.85 119.147C1593.09 144.959 1533.85 192.431 1450.54 225.176Z" fill="url(#paint2_radial_396_682)"/>
</g>
</g>
<path d="M1492.34 176.81C1492.34 177.906 1492.33 179.003 1492.27 180.082C1491.14 207.066 1475.94 230.393 1453.82 242.98C1452.79 243.572 1451.71 244.146 1450.63 244.703C1440.29 249.978 1428.58 252.92 1416.16 252.92C1401.54 252.92 1387.89 248.812 1376.28 241.674C1374.77 240.734 1373.29 239.742 1371.86 238.715C1364.6 233.51 1358.26 227.068 1353.23 219.67C1352.39 218.468 1351.59 217.215 1350.83 215.962C1343.97 204.542 1340 191.137 1340 176.827C1340 169.829 1340.94 163.057 1342.72 156.616C1342.98 155.675 1343.26 154.701 1343.57 153.778C1353.32 123.017 1382.15 100.734 1416.16 100.734C1433.05 100.734 1448.66 106.235 1461.29 115.531C1462.91 116.697 1464.47 117.951 1465.99 119.257C1473.19 125.506 1479.23 133.079 1483.71 141.592C1485.14 144.36 1486.44 147.215 1487.52 150.157C1489.54 155.501 1490.95 161.124 1491.7 166.974C1492.13 170.212 1492.34 173.502 1492.34 176.81Z" fill="url(#paint3_linear_396_682)"/>
<path opacity="0.25" d="M1433.69 227.085C1393.34 227.085 1360.63 194.392 1360.63 154.074C1360.63 139.59 1364.88 126.098 1372.15 114.747C1352.73 128.535 1340.02 151.184 1340.02 176.827C1340.02 218.851 1374.12 252.937 1416.18 252.937C1448.89 252.937 1476.78 232.325 1487.57 203.41C1474.2 217.963 1455.02 227.085 1433.69 227.085Z" fill="#0B1C37"/>
<g style="mix-blend-mode:lighten">
<path d="M1419.84 249.665C1380.35 249.665 1347.49 221.393 1340.37 184.017C1343.99 222.681 1376.54 252.937 1416.18 252.937C1432.74 252.937 1448.06 247.645 1460.55 238.68C1448.59 245.643 1434.69 249.665 1419.84 249.665Z" fill="#45EDE8"/>
</g>
<path opacity="0.2" d="M1473.37 178.957C1486.27 163.8 1480.54 137.742 1460.58 120.756C1440.62 103.77 1413.98 102.288 1401.08 117.445C1388.18 132.602 1393.91 158.66 1413.87 175.646C1433.83 192.632 1460.47 194.115 1473.37 178.957Z" fill="white"/>
<path d="M1434.29 114.399C1438.52 118.003 1439.72 123.521 1436.97 126.725C1434.23 129.928 1428.59 129.614 1424.36 126.011C1420.13 122.407 1418.93 116.889 1421.68 113.686C1424.43 110.482 1430.07 110.796 1434.29 114.399Z" fill="white"/>
<path opacity="0.25" d="M1487.54 150.174C1472.7 152.577 1457.4 153.447 1442.73 157.852C1423.85 163.509 1405.73 171.779 1389.59 183.129C1375.53 193.017 1363.03 205.482 1353.23 219.67C1352.39 218.469 1351.59 217.215 1350.83 215.962C1351.47 214.83 1352.13 213.681 1352.79 212.567C1360.28 199.719 1367.92 186.646 1379.08 176.827C1392 165.459 1408.59 159.349 1424.76 153.482C1440.76 147.668 1464.31 138.876 1483.72 141.609C1485.15 144.36 1486.46 147.215 1487.54 150.174Z" fill="#76FFFF"/>
<path opacity="0.25" d="M1492.34 176.809C1492.34 177.906 1492.32 179.003 1492.27 180.082C1478.69 177.488 1464.47 179.281 1453.52 187.429C1448.3 191.328 1444.1 196.429 1439.96 201.46C1438.39 203.375 1436.77 205.394 1436.32 207.832C1435.43 212.654 1439.3 216.884 1442.4 220.697C1447.71 227.242 1451.4 234.902 1453.82 242.98C1452.79 243.572 1451.71 244.146 1450.63 244.703C1449.43 239.219 1447.57 233.979 1444.66 229.175C1438.58 219.095 1426.9 211.574 1415.33 213.646C1409.13 214.743 1403.71 218.346 1398.51 221.863C1390.24 227.434 1381.59 233.527 1376.28 241.691C1374.76 240.751 1373.28 239.759 1371.86 238.732C1374.57 232.656 1378.52 227.277 1383.85 223.221C1397.32 213.019 1416.51 213.176 1430.07 203.131C1436.77 198.187 1441.58 191.102 1447.51 185.218C1457.66 175.173 1471.43 168.993 1485.64 167.565C1487.14 167.426 1489.31 167.165 1491.71 167.008C1492.13 170.211 1492.34 173.502 1492.34 176.809Z" fill="#76FFFF"/>
<path opacity="0.25" d="M1355.82 157.12C1354.26 157.033 1352.72 156.911 1351.17 156.79C1349.22 156.633 1345.97 156.772 1342.71 156.615C1342.97 155.675 1343.25 154.7 1343.57 153.778C1347.62 155.031 1351.73 156.737 1355.82 157.12Z" fill="#76FFFF"/>
<path opacity="0.25" d="M1466 119.257C1436.65 115.688 1405.73 125.019 1383.8 144.9C1379.5 148.799 1375.37 153.169 1369.99 155.38C1366.13 156.964 1361.95 157.312 1357.76 157.208C1358.14 157.208 1358.54 157.173 1358.92 157.138C1365.28 156.529 1370.78 152.455 1375.18 147.824C1379.57 143.211 1383.26 137.884 1388.01 133.636C1398.91 123.922 1414.07 120.945 1428.45 118.351C1439.14 116.402 1450.58 114.643 1461.3 115.531C1462.92 116.698 1464.49 117.951 1466 119.257Z" fill="#76FFFF"/>
<defs>
<linearGradient id="paint0_linear_396_682" x1="358.644" y1="858.525" x2="1402.43" y2="261.182" gradientUnits="userSpaceOnUse">
<stop stop-color="#051345"/>
<stop offset="0.15625" stop-color="#051345"/>
<stop offset="0.3477" stop-color="#848484"/>
<stop offset="0.4966" stop-color="#B0B0B0"/>
<stop offset="0.6393" stop-color="#D3D3D3"/>
<stop offset="0.774" stop-color="#EBEBEB"/>
<stop offset="0.8977" stop-color="#FAFAFA"/>
<stop offset="1" stop-color="#051345"/>
</linearGradient>
<linearGradient id="paint1_linear_396_682" x1="721" y1="180" x2="721" y2="1153" gradientUnits="userSpaceOnUse">
<stop stop-color="#097EF4"/>
<stop offset="1" stop-color="white" stop-opacity="0"/>
</linearGradient>
<radialGradient id="paint2_radial_396_682" cx="0" cy="0" r="1" gradientUnits="userSpaceOnUse" gradientTransform="translate(1432 178.439) rotate(68.3703) scale(50.2797 162.088)">
<stop/>
<stop offset="0.0001" stop-color="#000506"/>
<stop offset="0.0260417" stop-color="#002932"/>
<stop offset="0.98" stop-color="#001217"/>
<stop offset="0.9801" stop-color="#004858"/>
<stop offset="0.9923" stop-color="#006F89"/>
<stop offset="1" stop-color="#8DC4FF"/>
</radialGradient>
<linearGradient id="paint3_linear_396_682" x1="1340" y1="285.894" x2="1541.95" y2="242.538" gradientUnits="userSpaceOnUse">
<stop stop-color="#0066FF"/>
<stop offset="1" stop-color="#2CE0C5"/>
</linearGradient>
</defs>
</svg>
