<svg width="695" height="741" viewBox="0 0 695 741" fill="none" xmlns="http://www.w3.org/2000/svg">
<g opacity="0.15" filter="url(#filter0_f_394_680)">
<circle cx="347.383" cy="393.383" r="187.383" fill="url(#paint0_linear_394_680)"/>
</g>
<path opacity="0.85" d="M234.627 59.8136C234.627 60.8176 233.818 61.6272 232.814 61.6272C231.81 61.6272 231 60.8176 231 59.8136C231 58.8097 231.81 58 232.814 58C233.818 58.0108 234.627 58.8204 234.627 59.8136Z" fill="#AFF1FF"/>
<path opacity="0.25" d="M46.7204 1.3602C46.7204 2.10507 46.1159 2.72041 45.3602 2.72041C44.6153 2.72041 44 2.11587 44 1.3602C44 0.604529 44.6045 0 45.3602 0C46.1159 0 46.7204 0.604529 46.7204 1.3602Z" fill="#AFF1FF"/>
<path opacity="0.25" d="M632.72 247.36C632.72 248.105 632.116 248.72 631.36 248.72C630.615 248.72 630 248.116 630 247.36C630 246.615 630.605 246 631.36 246C632.116 246 632.72 246.605 632.72 247.36Z" fill="#AFF1FF"/>
<path opacity="0.25" d="M566.72 366.36C566.72 367.105 566.116 367.72 565.36 367.72C564.615 367.72 564 367.116 564 366.36C564 365.615 564.605 365 565.36 365C566.116 365 566.72 365.605 566.72 366.36Z" fill="#AFF1FF"/>
<path opacity="0.5" d="M617.627 133.814C617.627 134.818 616.818 135.627 615.814 135.627C614.81 135.627 614 134.818 614 133.814C614 132.81 614.81 132 615.814 132C616.818 132 617.627 132.81 617.627 133.814Z" fill="#AFF1FF"/>
<path opacity="0.85" d="M549.627 214.814C549.627 215.818 548.818 216.627 547.814 216.627C546.81 216.627 546 215.818 546 214.814C546 213.81 546.81 213 547.814 213C548.818 213.011 549.627 213.82 549.627 214.814Z" fill="#AFF1FF"/>
<path opacity="0.85" d="M532.627 456.814C532.627 457.818 531.818 458.627 530.814 458.627C529.81 458.627 529 457.818 529 456.814C529 455.81 529.81 455 530.814 455C531.818 455.011 532.627 455.82 532.627 456.814Z" fill="#AFF1FF"/>
<path opacity="0.5" d="M554.627 86.8136C554.627 87.8176 553.818 88.6272 552.814 88.6272C551.81 88.6272 551 87.8176 551 86.8136C551 85.8096 551.81 85 552.814 85C553.818 85.0108 554.627 85.8204 554.627 86.8136Z" fill="#AFF1FF"/>
<path opacity="0.85" d="M439.627 41.8136C439.627 42.8176 438.818 43.6272 437.814 43.6272C436.81 43.6272 436 42.8176 436 41.8136C436 40.8097 436.81 40 437.814 40C438.818 40 439.627 40.8097 439.627 41.8136Z" fill="#AFF1FF"/>
<path opacity="0.25" d="M119.72 60.3602C119.72 61.1051 119.116 61.7204 118.36 61.7204C117.615 61.7204 117 61.1159 117 60.3602C117 59.6153 117.605 59 118.36 59C119.105 59 119.72 59.6045 119.72 60.3602Z" fill="#AFF1FF"/>
<path opacity="0.25" d="M100.72 258.36C100.72 259.105 100.116 259.72 99.3602 259.72C98.6153 259.72 98 259.116 98 258.36C98 257.615 98.6045 257 99.3602 257C100.105 257 100.72 257.605 100.72 258.36Z" fill="#AFF1FF"/>
<path opacity="0.25" d="M66.3602 152.72C67.1114 152.72 67.7204 152.111 67.7204 151.36C67.7204 150.609 67.1114 150 66.3602 150C65.609 150 65 150.609 65 151.36C65 152.111 65.609 152.72 66.3602 152.72Z" fill="#AFF1FF"/>
<path opacity="0.25" d="M644.72 66.3602C644.72 67.1051 644.116 67.7204 643.36 67.7204C642.605 67.7204 642 67.1159 642 66.3602C642 65.6153 642.605 65 643.36 65C644.116 65 644.72 65.6045 644.72 66.3602Z" fill="#AFF1FF"/>
<path opacity="0.85" d="M149.627 142.814C149.627 143.818 148.818 144.627 147.814 144.627C146.81 144.627 146 143.818 146 142.814C146 141.81 146.81 141 147.814 141C148.807 141 149.627 141.81 149.627 142.814Z" fill="#AFF1FF"/>
<path opacity="0.85" d="M159.627 347.814C159.627 348.818 158.818 349.627 157.814 349.627C156.81 349.627 156 348.818 156 347.814C156 346.81 156.81 346 157.814 346C158.807 346 159.627 346.81 159.627 347.814Z" fill="#AFF1FF"/>
<defs>
<filter id="filter0_f_394_680" x="0" y="46" width="694.765" height="694.765" filterUnits="userSpaceOnUse" color-interpolation-filters="sRGB">
<feFlood flood-opacity="0" result="BackgroundImageFix"/>
<feBlend mode="normal" in="SourceGraphic" in2="BackgroundImageFix" result="shape"/>
<feGaussianBlur stdDeviation="80" result="effect1_foregroundBlur_394_680"/>
</filter>
<linearGradient id="paint0_linear_394_680" x1="160" y1="661.964" x2="656.841" y2="555.41" gradientUnits="userSpaceOnUse">
<stop stop-color="#0066FF"/>
<stop offset="1" stop-color="#2CE0C5"/>
</linearGradient>
</defs>
</svg>
