<svg width="601" height="459" viewBox="0 0 601 459" fill="none" xmlns="http://www.w3.org/2000/svg">
<path opacity="0.85" d="M190.627 59.8136C190.627 60.8176 189.818 61.6272 188.814 61.6272C187.81 61.6272 187 60.8176 187 59.8136C187 58.8097 187.81 58 188.814 58C189.818 58.0108 190.627 58.8204 190.627 59.8136Z" fill="#AFF1FF"/>
<path opacity="0.25" d="M2.72041 1.3602C2.72041 2.10507 2.11587 2.72041 1.3602 2.72041C0.615324 2.72041 0 2.11587 0 1.3602C0 0.604529 0.604529 0 1.3602 0C2.11587 0 2.72041 0.604529 2.72041 1.3602Z" fill="#AFF1FF"/>
<path opacity="0.25" d="M588.72 247.36C588.72 248.105 588.116 248.72 587.36 248.72C586.615 248.72 586 248.116 586 247.36C586 246.615 586.605 246 587.36 246C588.116 246 588.72 246.605 588.72 247.36Z" fill="#AFF1FF"/>
<path opacity="0.25" d="M522.72 366.36C522.72 367.105 522.116 367.72 521.36 367.72C520.615 367.72 520 367.116 520 366.36C520 365.615 520.605 365 521.36 365C522.116 365 522.72 365.605 522.72 366.36Z" fill="#AFF1FF"/>
<path opacity="0.5" d="M573.627 133.814C573.627 134.818 572.818 135.627 571.814 135.627C570.81 135.627 570 134.818 570 133.814C570 132.81 570.81 132 571.814 132C572.818 132 573.627 132.81 573.627 133.814Z" fill="#AFF1FF"/>
<path opacity="0.85" d="M505.627 214.814C505.627 215.818 504.818 216.627 503.814 216.627C502.81 216.627 502 215.818 502 214.814C502 213.81 502.81 213 503.814 213C504.818 213.011 505.627 213.82 505.627 214.814Z" fill="#AFF1FF"/>
<path opacity="0.85" d="M488.627 456.814C488.627 457.818 487.818 458.627 486.814 458.627C485.81 458.627 485 457.818 485 456.814C485 455.81 485.81 455 486.814 455C487.818 455.011 488.627 455.82 488.627 456.814Z" fill="#AFF1FF"/>
<path opacity="0.5" d="M510.627 86.8136C510.627 87.8176 509.818 88.6272 508.814 88.6272C507.81 88.6272 507 87.8176 507 86.8136C507 85.8096 507.81 85 508.814 85C509.818 85.0108 510.627 85.8204 510.627 86.8136Z" fill="#AFF1FF"/>
<path opacity="0.85" d="M395.627 41.8136C395.627 42.8176 394.818 43.6272 393.814 43.6272C392.81 43.6272 392 42.8176 392 41.8136C392 40.8097 392.81 40 393.814 40C394.818 40 395.627 40.8097 395.627 41.8136Z" fill="#AFF1FF"/>
<path opacity="0.25" d="M75.7204 60.3602C75.7204 61.1051 75.1159 61.7204 74.3602 61.7204C73.6153 61.7204 73 61.1159 73 60.3602C73 59.6153 73.6045 59 74.3602 59C75.1051 59 75.7204 59.6045 75.7204 60.3602Z" fill="#AFF1FF"/>
<path opacity="0.25" d="M56.7204 258.36C56.7204 259.105 56.1159 259.72 55.3602 259.72C54.6153 259.72 54 259.116 54 258.36C54 257.615 54.6045 257 55.3602 257C56.1051 257 56.7204 257.605 56.7204 258.36Z" fill="#AFF1FF"/>
<path opacity="0.25" d="M22.3602 152.72C23.1114 152.72 23.7204 152.111 23.7204 151.36C23.7204 150.609 23.1114 150 22.3602 150C21.609 150 21 150.609 21 151.36C21 152.111 21.609 152.72 22.3602 152.72Z" fill="#AFF1FF"/>
<path opacity="0.25" d="M600.72 66.3602C600.72 67.1051 600.116 67.7204 599.36 67.7204C598.605 67.7204 598 67.1159 598 66.3602C598 65.6153 598.605 65 599.36 65C600.116 65 600.72 65.6045 600.72 66.3602Z" fill="#AFF1FF"/>
<path opacity="0.85" d="M115.627 347.814C115.627 348.818 114.818 349.627 113.814 349.627C112.81 349.627 112 348.818 112 347.814C112 346.81 112.81 346 113.814 346C114.807 346 115.627 346.81 115.627 347.814Z" fill="#AFF1FF"/>
</svg>
