<svg width="373" height="373" viewBox="0 0 373 373" fill="none" xmlns="http://www.w3.org/2000/svg">
<path opacity="0.5" d="M266.679 214.18C267.389 214.89 267.389 216.035 266.679 216.745C265.969 217.455 264.824 217.455 264.114 216.745C263.405 216.035 263.405 214.89 264.114 214.18C264.824 213.471 265.969 213.471 266.679 214.18Z" fill="#AFF1FF"/>
<path opacity="0.85" d="M269.79 290.751C270.5 291.461 270.5 292.606 269.79 293.316C269.08 294.026 267.935 294.026 267.225 293.316C266.515 292.606 266.515 291.461 267.225 290.751C267.943 290.049 269.088 290.049 269.79 290.751Z" fill="#AFF1FF"/>
<path opacity="0.5" d="M192.679 167.18C193.389 167.89 193.389 169.035 192.679 169.745C191.969 170.455 190.824 170.455 190.114 169.745C189.405 169.035 189.405 167.89 190.114 167.18C190.832 166.478 191.977 166.478 192.679 167.18Z" fill="#AFF1FF"/>
<path opacity="0.85" d="M107.46 152.711C107.46 153.715 106.65 154.525 105.646 154.525C104.642 154.525 103.833 153.715 103.833 152.711C103.833 151.707 104.642 150.898 105.646 150.898C106.65 150.909 107.46 151.718 107.46 152.711Z" fill="#AFF1FF"/>
<path opacity="0.25" d="M133.552 217.258C133.552 218.003 132.948 218.618 132.192 218.618C131.447 218.618 130.832 218.014 130.832 217.258C130.832 216.513 131.437 215.898 132.192 215.898C132.937 215.898 133.552 216.502 133.552 217.258Z" fill="#AFF1FF"/>
<path opacity="0.25" d="M365.552 185.258C365.552 186.003 364.948 186.618 364.192 186.618C363.447 186.618 362.832 186.014 362.832 185.258C362.832 184.513 363.437 183.898 364.192 183.898C364.937 183.898 365.552 184.502 365.552 185.258Z" fill="#AFF1FF"/>
<path opacity="0.85" d="M183.459 251.712C183.459 252.716 182.65 253.525 181.646 253.525C180.642 253.525 179.832 252.716 179.832 251.712C179.832 250.708 180.642 249.898 181.646 249.898C182.639 249.898 183.459 250.708 183.459 251.712Z" fill="#AFF1FF"/>
<path opacity="0.85" d="M69.6793 246.203C70.3892 246.913 70.3892 248.058 69.6793 248.768C68.9694 249.478 67.8244 249.478 67.1144 248.768C66.4045 248.058 66.4045 246.913 67.1144 246.203C67.8243 245.493 68.9694 245.493 69.6793 246.203Z" fill="#AFF1FF"/>
<path opacity="0.25" d="M11.717 171.86C12.2437 172.387 12.2513 173.249 11.717 173.784C11.1826 174.318 10.3277 174.318 9.79335 173.784C9.26664 173.257 9.25901 172.394 9.79335 171.86C10.3277 171.326 11.1826 171.326 11.717 171.86Z" fill="#AFF1FF"/>
</svg>
