<svg width="1497" height="915" viewBox="0 0 1497 915" fill="none" xmlns="http://www.w3.org/2000/svg">
<g style="mix-blend-mode:screen" opacity="0.05">
<path d="M1032.66 -1.45172C948.725 39.3393 814.37 112.139 774.973 177.166C716.325 273.928 730.135 246.298 647.341 287.754C564.547 329.233 481.752 412.19 509.35 408.728C536.949 405.266 636.983 322.308 712.895 308.482C788.784 294.656 840.527 280.829 930.204 194.432C999.165 127.983 1239.45 37.0234 1346.81 -1.45172H1032.66Z" fill="url(#paint0_linear_334_6556)"/>
</g>
<g style="mix-blend-mode:screen" opacity="0.05">
<path d="M1657.4 -1.45172C1533.51 53.6715 1298.02 160.642 1172.07 232.283C995.949 332.426 750.801 418.777 733.544 463.682C716.287 508.587 792.251 505.127 671.382 546.573C550.513 588.018 225.945 812.497 80.9073 874.677C53.511 886.43 26.2291 900.268 0 915H307.333C364.277 869.774 413.806 832.109 440.035 815.957C529.8 760.696 750.801 653.657 799.14 629.464C847.478 605.293 823.309 581.099 871.647 539.654C919.986 498.208 1227.3 373.872 1361.99 294.417C1448.43 243.441 1600.29 161.146 1698 108.772V-1.45172H1657.4Z" fill="url(#paint1_linear_334_6556)"/>
</g>
<g style="mix-blend-mode:screen" opacity="0.05">
<path d="M1698 327.445C1490.38 428.046 1130.82 609.92 1147.14 630.668C1160.19 647.267 892.348 793.605 662.253 915H818.847C933.642 850.027 1045.39 785.214 1099.6 749.358C1235.59 659.418 1252.37 601.46 1305.52 576.47C1337.16 561.614 1539.39 466.058 1698 391.089V327.445Z" fill="url(#paint2_linear_334_6556)"/>
</g>
<defs>
<linearGradient id="paint0_linear_334_6556" x1="925.363" y1="408.843" x2="925.363" y2="-6.05934" gradientUnits="userSpaceOnUse">
<stop/>
<stop offset="0.0379" stop-color="#101010"/>
<stop offset="0.1936" stop-color="#4F4F4F"/>
<stop offset="0.3477" stop-color="#848484"/>
<stop offset="0.4966" stop-color="#B0B0B0"/>
<stop offset="0.6393" stop-color="#D3D3D3"/>
<stop offset="0.774" stop-color="#EBEBEB"/>
<stop offset="0.8977" stop-color="#FAFAFA"/>
<stop offset="1" stop-color="white"/>
</linearGradient>
<linearGradient id="paint1_linear_334_6556" x1="572.345" y1="653.666" x2="1369.05" y2="197.476" gradientUnits="userSpaceOnUse">
<stop/>
<stop offset="0.0379" stop-color="#101010"/>
<stop offset="0.1936" stop-color="#4F4F4F"/>
<stop offset="0.3477" stop-color="#848484"/>
<stop offset="0.4966" stop-color="#B0B0B0"/>
<stop offset="0.6393" stop-color="#D3D3D3"/>
<stop offset="0.774" stop-color="#EBEBEB"/>
<stop offset="0.8977" stop-color="#FAFAFA"/>
<stop offset="1" stop-color="white"/>
</linearGradient>
<linearGradient id="paint2_linear_334_6556" x1="1095.93" y1="701.095" x2="1608.44" y2="407.515" gradientUnits="userSpaceOnUse">
<stop/>
<stop offset="0.0379" stop-color="#101010"/>
<stop offset="0.1936" stop-color="#4F4F4F"/>
<stop offset="0.3477" stop-color="#848484"/>
<stop offset="0.4966" stop-color="#B0B0B0"/>
<stop offset="0.6393" stop-color="#D3D3D3"/>
<stop offset="0.774" stop-color="#EBEBEB"/>
<stop offset="0.8977" stop-color="#FAFAFA"/>
<stop offset="1" stop-color="white"/>
</linearGradient>
</defs>
</svg>
