<svg width="1145" height="822" viewBox="0 0 1145 822" fill="none" xmlns="http://www.w3.org/2000/svg">
<g style="mix-blend-mode:screen" opacity="0.05">
<path d="M1486.58 0C1375.46 49.4421 1164.24 145.388 1051.27 209.646C893.304 299.468 673.422 376.919 657.943 417.196C642.465 457.473 710.599 454.37 602.188 491.544C493.776 528.718 202.659 730.062 72.5688 785.833C47.996 796.375 23.5258 808.787 0 822H275.659C326.734 781.435 371.158 747.652 394.684 733.165C475.197 683.599 673.422 587.592 716.778 565.892C760.135 544.212 738.457 522.512 781.813 485.338C825.17 448.164 1100.81 336.642 1221.62 265.376C1299.16 219.653 1435.36 145.84 1523 98.8636V0H1486.58Z" fill="url(#paint0_linear_401_680)"/>
</g>
<g clip-path="url(#clip0_401_680)">
<g style="mix-blend-mode:screen" opacity="0.4">
<path fill-rule="evenodd" clip-rule="evenodd" d="M1216.59 294.191C1272.22 350.208 1271.82 441.408 1215.73 497.911C1159.64 554.4 1069.07 554.796 1013.45 498.779C957.833 442.762 958.226 351.562 1014.32 295.06C1070.41 238.557 1160.97 238.174 1216.59 294.191Z" fill="url(#paint1_radial_401_680)"/>
</g>
<path fill-rule="evenodd" clip-rule="evenodd" d="M1195.72 317.987C1238.99 361.57 1238.69 432.523 1195.05 476.476C1151.4 520.43 1080.94 520.736 1037.68 477.153C994.402 433.57 994.706 362.617 1038.35 318.664C1081.99 274.71 1152.44 274.404 1195.72 317.987Z" fill="url(#paint2_radial_401_680)"/>
<path fill-rule="evenodd" clip-rule="evenodd" d="M1230.96 397.672C1230.96 425.438 1221.12 450.894 1204.76 470.694C1183.95 495.894 1152.61 511.928 1117.51 511.928C1064.26 511.928 1019.59 474.97 1007.36 425.145C1005.2 416.336 1004.06 407.132 1004.06 397.672C1004.06 393.472 1004.29 389.349 1004.72 385.264C1005 382.698 1005.35 380.183 1005.79 377.668C1015.18 324.115 1061.62 283.404 1117.51 283.404C1133.07 283.404 1147.89 286.57 1161.39 292.277C1161.4 292.277 1161.4 292.277 1161.4 292.277C1182.37 301.149 1200.12 316.174 1212.45 335.106C1224.15 353.081 1230.96 374.579 1230.96 397.672Z" fill="url(#paint3_radial_401_680)"/>
<path opacity="0.1" fill-rule="evenodd" clip-rule="evenodd" d="M1230.97 397.672C1230.97 460.774 1180.18 511.928 1117.52 511.928C1064.27 511.928 1019.59 474.983 1007.37 425.157C1007.67 425.579 1007.98 425.987 1008.28 426.408C1008.9 427.277 1009.27 428.157 1009.58 429.166C1009.75 429.74 1009.73 430.404 1009.89 430.94C1010.18 431.872 1010.94 432.357 1010.59 431.247C1011.08 432.294 1011.2 433.264 1011.67 434.285C1012.34 435.791 1012.87 437.157 1013.34 438.753C1013.71 440.03 1013.95 441.357 1014.34 442.621C1014.7 443.77 1015.29 444.842 1015.72 445.979C1017.12 449.528 1019.09 452.477 1021.2 455.604C1021.74 456.408 1022.06 457.353 1022.62 458.132C1023.23 458.962 1024.01 459.715 1024.67 460.532C1025.36 461.4 1026.42 462.025 1027.35 462.6C1028.32 463.2 1029.15 463.953 1030.08 464.604C1031.67 465.715 1033.66 466.047 1035.53 466.034C1037.68 466.021 1039.78 465.383 1041.89 465.932C1045.5 466.889 1045.97 471.625 1047.83 474.306C1048.63 475.455 1049.95 476.094 1051.25 476.451C1052.84 476.872 1054.1 477.434 1055.37 478.43C1056.32 479.183 1057.62 479.757 1058.82 479.808C1060.14 479.859 1059.85 479.132 1059.83 478.008C1059.82 476.349 1058.67 475.506 1057.77 474.204C1057.26 473.477 1057.1 472.736 1056.75 471.932C1056.53 471.408 1056.22 471.128 1056.48 470.528C1057.32 470.604 1058.19 471.319 1058.83 471.855C1060.23 473.017 1061.99 473.706 1063.64 474.459C1064.42 474.804 1065.06 475.149 1065.74 475.659C1066.1 475.928 1066.6 476.477 1067.01 476.655C1068.28 477.179 1069.8 475.123 1070.06 474.089C1070.35 472.902 1069.89 471.153 1069.05 470.323C1067.53 468.791 1066.27 467.132 1065.01 465.37C1063.7 463.557 1062.03 461.796 1061.1 459.753C1060.18 457.698 1059.31 455.259 1059.53 452.962C1059.66 451.532 1060.27 450.025 1060.71 448.672C1060.92 447.996 1061.06 446.936 1061.46 446.349C1062.04 445.481 1063.37 445.608 1064.26 445.774C1065.87 446.081 1067.97 446.081 1069.4 446.898C1070.82 447.715 1071.74 449.591 1073.49 449.821C1076.2 450.191 1078.59 447.855 1080.29 446.119C1081.83 444.549 1083.69 441.906 1085.92 441.281C1087.25 440.911 1088.48 441.753 1089.72 442.085C1090.29 442.238 1090.88 442.506 1091.46 442.583C1092.47 442.723 1093.26 442.2 1094.11 441.728C1096.06 440.642 1097.82 440.732 1099.95 441.294C1100.94 441.562 1101.6 442.225 1102.41 442.787C1103.72 443.706 1105.02 444.6 1106.37 445.481C1107.57 446.259 1108.69 446.974 1109.21 448.366C1109.45 449.03 1109.46 449.285 1109.28 450C1109.17 450.459 1108.93 451.085 1109.14 451.557C1109.5 452.298 1110.64 452.528 1111.27 452.936C1112.18 453.523 1113.06 454.238 1113.86 454.966C1115.95 456.868 1116.7 459.102 1116.94 461.847C1117.08 463.391 1116.82 465.102 1115.71 466.276C1114.45 467.617 1112.27 467.642 1111.2 469.085C1110.32 470.234 1109.99 471.817 1109.81 473.234C1109.7 474.115 1109.83 474.868 1109.48 475.723C1109.05 476.757 1108.39 477.779 1107.86 478.762C1107.44 479.566 1106.91 480.23 1106.61 481.085C1106.43 481.57 1106.32 482.068 1106.13 482.553C1105.66 483.702 1104.72 484.698 1103.65 485.298C1102.18 486.128 1100.73 487.059 1099.01 487.021C1098.03 487.008 1096.71 487.264 1095.76 487.034C1095.45 486.957 1095.24 486.753 1094.93 486.664C1094.54 486.549 1094.24 486.511 1093.87 486.37C1092.83 485.974 1092.51 485.591 1091.92 484.596C1091.43 483.74 1090.9 483.268 1090.1 482.706C1089.5 482.285 1088.79 482.055 1088.11 481.711C1087.68 481.481 1086.95 481.391 1086.59 481.059C1085.88 480.408 1086.76 479.757 1087.14 479.094C1087.96 477.664 1089.06 476.208 1090.31 475.136C1090.83 474.676 1091.43 474.357 1092.09 474.153C1093.06 473.859 1093.5 474.076 1094.34 474.511C1095.26 475.008 1095.49 475.532 1095.99 476.413C1095.53 476.796 1094.93 477.319 1094.41 477.536C1093.96 477.715 1093.2 477.613 1093.1 478.289C1094.55 479.859 1095.74 480.791 1097.75 479.323C1098.8 478.545 1101.27 477.281 1101.23 475.813C1101.22 475.008 1099.7 474 1099.13 473.566C1098.56 473.132 1097.9 472.825 1097.34 472.366C1096.75 471.881 1096.45 471.191 1095.92 470.668C1095.38 470.119 1094.67 469.621 1094.08 469.072C1093.53 468.549 1092.94 468.421 1092.28 468.076C1091.59 467.706 1091.11 467.247 1090.33 467.004C1089.46 466.749 1088.15 466.264 1087.23 466.289C1085.2 466.328 1083.23 468.357 1082.08 469.851C1081.07 471.14 1079.18 473.579 1079.76 475.379C1080 476.094 1080.71 476.374 1081.03 477C1081.17 477.294 1081.32 477.894 1081.4 478.2C1081.61 479.221 1081.34 480.191 1081.67 481.213C1082.66 484.379 1083.18 488.081 1086.35 489.74C1086.87 490.008 1087.26 490.264 1087.83 490.442C1088.41 490.621 1089.06 490.621 1089.62 490.838C1090.84 491.298 1091.76 491.911 1093.1 492.115C1094.55 492.345 1095.99 492.498 1097.47 492.498C1099.43 492.498 1101.49 492.702 1103.32 491.821C1104.28 491.362 1105.58 490.519 1106.32 489.753C1107.23 488.796 1107.38 487.468 1107.66 486.23C1107.93 485.106 1107.87 483.37 1108.77 482.489C1109.55 481.736 1110.73 481.596 1111.53 480.804C1112.67 479.655 1113.69 478.072 1114.42 476.63C1115.43 474.638 1116.79 472.915 1117.84 470.962C1118.43 469.876 1119.32 468.459 1120.23 467.591C1121.1 466.762 1122.31 466.455 1123.48 466.328C1124.49 466.213 1125.6 465.919 1126.56 465.562C1127.53 465.204 1128.63 464.796 1129.58 464.349C1130.37 463.966 1131 463.162 1131.67 462.536C1133.4 460.953 1135.32 460.481 1137.51 460.034C1138.41 459.855 1139.02 459.676 1139.91 459.957C1140.62 460.2 1141.3 460.557 1142.05 460.723C1143.05 460.953 1144.36 461.387 1145.38 461.081C1149.13 459.957 1146.56 456.587 1145.91 454.098C1144.63 449.042 1144.71 443.962 1144.71 438.791C1144.71 437.196 1144.44 435.434 1145.04 433.94C1145.32 433.225 1145.39 432.408 1145.71 431.719C1145.93 431.234 1146.49 430.889 1146.68 430.43C1147.07 429.562 1146.84 429.179 1147.84 428.681C1148.87 428.17 1149.73 428.094 1150.86 428.094C1153.85 428.081 1157.2 427.634 1160.01 428.847C1161.2 429.37 1162.15 430.251 1163.17 431.017C1164.24 431.821 1165.08 432.421 1165.22 433.864C1165.4 435.574 1166.17 437.272 1168 437.757C1169.52 438.166 1171.18 438.766 1172.75 438.766C1173.79 438.753 1174.83 438.242 1175.83 438.408C1176.12 438.459 1176.49 438.715 1176.7 438.74C1177.2 438.779 1177.72 438.421 1178.21 438.242C1179.39 437.783 1180.29 437.706 1181.55 437.719C1183.75 437.745 1184.4 436.289 1185.97 434.962C1187.74 433.442 1189.25 432.255 1191.62 432.217C1194.49 432.179 1196.59 429.842 1197.88 427.494C1199.9 423.804 1201.81 419.042 1200.19 414.894C1199.58 413.362 1198.42 412.174 1197.52 410.808C1196.57 409.353 1196.14 407.668 1195.67 406.034C1195.25 404.617 1193.71 403.047 1192.23 402.651C1190.99 402.319 1189.63 402.536 1188.66 401.566C1187.76 400.659 1186.69 399.421 1186.05 398.311C1185.1 396.677 1184.71 394.098 1184.7 392.234C1184.7 391.608 1184.54 391.519 1184.4 391.034C1184.26 390.574 1184.47 390.064 1184.39 389.591C1184.14 388.238 1183.73 386.872 1183.43 385.481C1183.12 383.949 1182.22 382.213 1182.28 380.63C1182.33 379.379 1183.08 377.872 1184.03 377.094C1185.15 376.2 1185.96 375.077 1186.77 373.877C1187.2 373.238 1187.62 372.664 1187.88 371.949C1188.16 371.208 1188.04 370.634 1188.15 369.881C1188.33 368.757 1189.27 368.055 1190.34 367.838C1191.01 367.698 1191.71 367.915 1192.4 367.813C1193.39 367.634 1194.32 367.034 1194.96 366.281C1196.4 364.557 1196.08 361.774 1196.01 359.642C1195.93 357.319 1194.4 356.247 1193.23 354.485C1192.14 352.813 1191.67 350.259 1192.98 348.523C1193.5 347.847 1194.26 347.387 1194.54 346.481C1194.83 345.536 1194.25 344.183 1193.87 343.315C1193.12 341.694 1192.08 340.289 1190.85 339.025C1190.28 338.451 1190.2 337.889 1189.86 337.174C1189.43 336.281 1188.86 335.528 1188.47 334.608C1188.12 333.83 1187.81 333.294 1187.24 332.706C1186.91 332.374 1186.77 332.017 1186.46 331.672C1185.68 330.753 1184.58 330.268 1183.85 329.234C1183.27 328.404 1182.59 327.421 1182.12 326.502C1181.65 325.557 1181.7 324.574 1181.65 323.553C1181.58 322.098 1180.86 321.204 1180.16 320.03C1179.85 319.506 1179.58 319.149 1179.15 318.664C1178.44 317.885 1178.01 317.042 1177.46 316.162C1176.92 315.294 1175.94 314.885 1175.12 314.438C1174.73 314.221 1174.63 314.042 1174.13 314.145C1173.53 314.259 1172.61 315.102 1172.19 315.498C1171.14 316.481 1169.88 316.902 1168.49 317.374C1167.16 317.821 1165.82 318.204 1164.47 318.587C1162.71 319.098 1160.91 319.162 1159.14 319.596C1156.74 320.183 1154.55 320.681 1153.41 323.03C1152.58 324.715 1152.92 326.732 1152.91 328.57C1152.91 329.234 1152.84 329.911 1152.99 330.549C1153.19 331.494 1153.7 332.362 1153.88 333.306C1154.39 335.872 1153.56 338.553 1152.73 340.953C1151.91 343.366 1150.34 345.128 1148.49 346.838C1146.07 349.085 1142.4 349.047 1139.54 350.336C1137.6 351.217 1134.67 352.417 1134.14 354.74C1133.75 356.489 1134.73 357.638 1135.05 359.221C1135.25 360.255 1135.03 361.353 1135.29 362.323C1135.63 363.562 1135.24 364.225 1134.18 365.094C1133.63 365.54 1133 365.987 1132.78 366.715C1132.66 367.149 1132.83 367.583 1132.74 368.004C1132.59 368.77 1131.87 369.319 1131.17 369.511C1130.01 369.842 1128.76 369.842 1127.67 370.557C1126.69 371.208 1126.28 372.217 1125.06 372.472C1124.11 372.689 1123.4 372.498 1122.41 372.383C1120.77 372.179 1119.12 372.217 1117.48 371.872C1114.61 371.272 1111.93 370.762 1108.95 370.902C1106.61 371.017 1105.28 371.655 1103.06 370.34C1101.65 369.498 1100.26 368.553 1098.8 367.8C1097.13 366.957 1095.31 366.357 1093.56 365.668C1090.91 364.608 1088.16 364.047 1085.44 363.281C1082.66 362.502 1080.72 360.013 1078.78 358.085C1076.87 356.208 1075.24 353.885 1074.58 351.23C1074.15 349.468 1074.34 348.217 1074.56 346.481C1075.08 342.625 1073.13 339.102 1073.74 335.272C1074.37 331.289 1074.65 327.23 1076.29 323.489C1077.01 321.855 1078.21 320.579 1079.03 319.021C1079.87 317.362 1081.48 316.634 1083.09 315.894C1084.23 315.37 1085.65 314.719 1086.93 314.757C1088.54 314.808 1088.09 315.779 1088.62 316.877C1089.01 317.655 1089.67 318.166 1090.33 318.753C1091.69 319.966 1093.6 318.753 1094.93 317.911C1096.48 316.94 1098.6 315.153 1100.56 315.625C1102.07 315.996 1103.43 316.647 1104.83 315.651C1105.77 315 1106.46 313.774 1105.76 312.625C1104.59 310.698 1101.8 310.634 1099.86 310.659C1097.56 310.672 1095.28 310.57 1092.98 310.915C1091.56 311.132 1090.18 311.464 1088.77 311.183C1087.23 310.877 1086 310.047 1084.59 309.434C1082.23 308.425 1080.25 309.345 1078.02 310.213C1075.31 311.259 1072.69 313.123 1071.5 315.83C1070.49 318.14 1071.04 320.63 1070.8 323.03C1070.7 324.115 1070.53 325.289 1070.19 326.323C1069.66 327.97 1068.52 329.272 1067.49 330.625C1065.65 333.038 1064.66 335.566 1065.2 338.553C1065.42 339.842 1065.36 340.519 1064.78 341.681C1064.32 342.613 1063.38 343.723 1063.13 344.719C1062.86 345.74 1063.59 345.906 1064.33 346.519C1065.22 347.234 1066.11 348.485 1066.34 349.621C1066.93 352.442 1065.55 355.123 1063.35 356.783C1061.89 357.881 1059.9 358.277 1058.86 359.859C1058.31 360.715 1057.82 361.608 1057.3 362.477C1056.46 363.868 1055.35 364.647 1053.91 365.336C1052.33 366.077 1050.54 366.204 1049.28 367.468C1048.54 368.196 1048.29 368.898 1047.86 369.855C1047.18 371.298 1046.37 372.651 1045.61 374.042C1044.88 375.408 1044.14 376.328 1042.77 377.106C1041.18 378.013 1039.58 378.83 1038.03 379.838C1036.37 380.923 1035.29 382.506 1033.91 383.885C1032.3 385.481 1030.49 386.017 1028.36 386.502C1025.23 387.204 1022.05 388.072 1018.87 388.532C1016.08 388.928 1013.64 388.762 1010.99 387.83C1008.87 387.089 1006.8 386.259 1004.81 385.213C1010.86 327.996 1059.01 283.404 1117.52 283.404C1180.18 283.404 1230.97 334.557 1230.97 397.672Z" fill="url(#paint4_linear_401_680)"/>
<path fill-rule="evenodd" clip-rule="evenodd" d="M1161.4 292.277C1161.1 292.225 1155.99 291.345 1151.34 290.745C1146.52 290.119 1147.4 288.089 1143.21 286.889C1139.03 285.689 1131.39 284.247 1130.13 284.451C1128.89 284.668 1127.41 285.817 1124.66 285.715C1121.92 285.613 1116.9 285.319 1113.27 285.587C1109.64 285.855 1103.59 284.259 1101.44 286.047C1099.27 287.821 1091.18 290.094 1085.12 291.83C1079.06 293.54 1077.68 294.383 1073.17 296.974C1068.67 299.566 1066.68 302.949 1061.43 306.523C1056.18 310.098 1053.69 308.974 1050.19 309.753C1046.69 310.519 1047.69 310.749 1042.41 314.757C1037.13 318.766 1036.94 322.583 1034.23 326.068C1031.53 329.566 1025.1 334.672 1025.1 334.672L1020.93 342.715L1017.47 348.702C1017.47 348.702 1019.96 352.506 1014.59 358.545C1009.25 364.583 1005.85 377.706 1005.85 377.706L1005.77 377.668C1015.18 324.115 1061.62 283.404 1117.51 283.404C1133.07 283.404 1147.89 286.57 1161.4 292.277Z" fill="#B5FFFF"/>
<path fill-rule="evenodd" clip-rule="evenodd" d="M1134.66 510.625C1134.66 510.625 1143.28 504.332 1144.09 498.881C1144.9 493.43 1139.97 492.804 1139.69 489.6C1139.4 486.383 1146.03 477.421 1146.97 471.715C1147.91 466.008 1147.02 460.864 1144.71 457.276C1142.4 453.676 1129.6 447.932 1127.64 440.872C1125.66 433.8 1114.09 425.208 1114.25 418.315C1114.42 411.421 1120.06 405.804 1121.11 395.77C1122.16 385.736 1120.25 382.723 1120.25 382.723C1120.25 382.723 1123.17 387.536 1122.67 396.574C1122.17 405.625 1115.52 411.868 1115.04 418.315C1114.54 424.749 1129.18 437.732 1129.49 439.927C1129.79 442.11 1129.53 442.864 1132.1 445.57C1134.67 448.276 1144.25 454.085 1146.7 458.042C1149.16 462 1152.02 458.77 1152.77 453.025C1153.52 447.281 1152.61 439.608 1156.56 435.83C1160.52 432.051 1163.08 431.796 1164.1 426.268C1165.13 420.74 1165.23 416.221 1162.88 412.506C1160.52 408.791 1155.99 406.059 1156.56 401.196C1157.15 396.332 1153.65 379.966 1147.4 371.796C1141.15 363.625 1140.31 358.213 1140.31 358.213C1140.31 358.213 1143.15 365.745 1149.27 371.796C1155.4 377.834 1156.64 399.855 1157.72 403.685C1158.81 407.527 1163.08 405.268 1164.79 415.583C1166.5 425.898 1164.6 430.34 1162.86 432.332C1161.13 434.323 1156.71 435.523 1155.26 438.51C1153.8 441.485 1154.38 453.357 1154 457.059C1153.63 460.762 1150.85 461.285 1149.49 464.285C1148.13 467.298 1148.63 471.102 1144.7 479.515C1140.77 487.927 1141.14 490.404 1144.7 493.506C1148.26 496.608 1157.83 497.017 1158.6 499.264C1159.38 501.51 1155.61 503.502 1155.85 504.345C1156.09 505.174 1160.66 503.413 1160.66 503.413C1160.66 503.413 1146.52 509.4 1134.66 510.625Z" fill="#82ABE5"/>
<path fill-rule="evenodd" clip-rule="evenodd" d="M1039.03 480.166C1039.03 480.166 1054 485.145 1058.81 479.808C1063.61 474.46 1061.85 468.562 1063.08 460.174C1064.3 451.8 1064.7 448.8 1071.24 446.119C1077.77 443.438 1083.91 444.434 1086.17 439.902C1088.44 435.383 1095.53 428.17 1095.53 428.17C1095.53 428.17 1088.01 434.745 1087.32 440.847C1086.62 446.949 1073.52 441.753 1067.1 450.038C1062.61 455.834 1066.55 469.43 1063.09 477.817C1059.63 486.204 1045.07 485.145 1045.07 485.145C1045.07 485.145 1041.64 483.153 1039.03 480.166Z" fill="#82ABE5"/>
<path fill-rule="evenodd" clip-rule="evenodd" d="M1010.31 360.179C1010.31 360.179 1022.29 369.791 1039.91 372.855C1046.22 373.953 1053.61 371.757 1057.11 378.51C1059.54 383.208 1068.53 384.804 1068.53 384.804C1068.53 384.804 1063.19 385.404 1058.82 382.353C1054.45 379.302 1057.03 376.787 1051.28 374.77C1045.52 372.753 1042.61 374.604 1038.65 373.979C1034.7 373.353 1025.08 367.136 1022.3 369.779C1019.27 372.664 1023.04 376.557 1027.9 380.017C1032.77 383.464 1038.21 380.808 1041.58 381.689C1044.95 382.57 1045.83 383.042 1045.83 383.042C1045.83 383.042 1042.76 382.634 1038.23 382.353C1033.71 382.072 1033.04 384.013 1029.56 382.353C1026.09 380.693 1021.84 376.162 1020.21 372.83C1018.59 369.498 1019.18 367.213 1016.42 364.94C1013.66 362.681 1008.78 364.94 1008.78 364.94L1010.31 360.179Z" fill="#82ABE5"/>
<path fill-rule="evenodd" clip-rule="evenodd" d="M1140.3 286.149C1140.3 286.149 1145.86 293.655 1145.86 296.515C1145.86 303.447 1141.64 310.251 1139.86 314.413C1137.61 319.647 1137.65 325.417 1137.65 325.417V331.915C1137.65 331.915 1137.78 324.957 1138.91 321.562C1140.03 318.166 1142.28 317.898 1142.9 315.319C1143.52 312.74 1142.53 309.613 1144.09 305.706C1145.65 301.8 1147.03 301.711 1146.95 299.042C1146.89 296.387 1146.62 292.047 1149.01 290.821C1151.39 289.596 1154.08 289.468 1154.08 289.468C1154.08 289.468 1146.57 286.736 1140.3 286.149Z" fill="#82ABE5"/>
<path fill-rule="evenodd" clip-rule="evenodd" d="M1072.62 292.608C1072.62 292.608 1074.72 293.681 1076.19 299.642C1076.64 301.506 1076.24 303.766 1079.35 307.085C1082.47 310.404 1084.06 311.987 1084.81 314.132C1085.55 316.276 1086.68 320.834 1086.68 320.834C1086.68 320.834 1084.31 313.749 1082.69 311.732C1081.07 309.715 1080.69 310.379 1078.94 308.732C1077.19 307.085 1077.62 305.655 1075.82 301.379C1074.01 297.089 1067.55 295.059 1067.55 295.059L1072.62 292.608Z" fill="#82ABE5"/>
<g opacity="0.3">
<g style="mix-blend-mode:screen">
<path fill-rule="evenodd" clip-rule="evenodd" d="M1143.45 466.403C1020.15 515.424 907.922 523.837 892.774 485.194C877.614 446.552 965.292 375.484 1088.59 326.462C1211.88 277.441 1324.11 269.028 1339.26 307.671C1354.41 346.313 1266.74 417.381 1143.45 466.403Z" fill="url(#paint5_radial_401_680)"/>
</g>
</g>
</g>
<defs>
<linearGradient id="paint0_linear_401_680" x1="513.358" y1="587.6" x2="1227.95" y2="178.426" gradientUnits="userSpaceOnUse">
<stop/>
<stop offset="0.0379" stop-color="#101010"/>
<stop offset="0.1936" stop-color="#4F4F4F"/>
<stop offset="0.3477" stop-color="#848484"/>
<stop offset="0.4966" stop-color="#B0B0B0"/>
<stop offset="0.6393" stop-color="#D3D3D3"/>
<stop offset="0.774" stop-color="#EBEBEB"/>
<stop offset="0.8977" stop-color="#FAFAFA"/>
<stop offset="1" stop-color="white"/>
</linearGradient>
<radialGradient id="paint1_radial_401_680" cx="0" cy="0" r="1" gradientUnits="userSpaceOnUse" gradientTransform="translate(1115.02 396.484) rotate(-45.2033) scale(144.152 142.922)">
<stop offset="0.2123" stop-color="#16CCFF"/>
<stop offset="0.2845" stop-color="#15C7F9"/>
<stop offset="0.3835" stop-color="#14B9E7"/>
<stop offset="0.4981" stop-color="#11A2CA"/>
<stop offset="0.6244" stop-color="#0E81A2"/>
<stop offset="0.7603" stop-color="#09586E" stop-opacity="0"/>
<stop offset="0.902" stop-color="#04262F" stop-opacity="0"/>
<stop offset="1" stop-opacity="0"/>
</radialGradient>
<radialGradient id="paint2_radial_401_680" cx="0" cy="0" r="1" gradientUnits="userSpaceOnUse" gradientTransform="translate(1116.7 397.57) rotate(-45.2033) scale(112.155 111.198)">
<stop stop-color="#5B40FF"/>
<stop offset="0.2204" stop-color="#3FCAFC"/>
<stop offset="0.3562" stop-color="#3DC3F4"/>
<stop offset="0.4692" stop-color="#3AB8E5"/>
<stop offset="0.5696" stop-color="#34A7D1"/>
<stop offset="0.6618" stop-color="#2E92B6"/>
<stop offset="0.7478" stop-color="#267896"/>
<stop offset="0.8292" stop-color="#1C596F"/>
<stop offset="0.9069" stop-color="#103442"/>
<stop offset="0.979" stop-color="#040D10"/>
<stop offset="1"/>
</radialGradient>
<radialGradient id="paint3_radial_401_680" cx="0" cy="0" r="1" gradientUnits="userSpaceOnUse" gradientTransform="translate(1087.6 357.293) scale(234.867 236.54)">
<stop stop-color="#5ECEFF"/>
<stop offset="0.1194" stop-color="#7DDCFF"/>
<stop offset="0.2577" stop-color="#9AE9FF"/>
<stop offset="0.4057" stop-color="#B1F3FF"/>
<stop offset="0.566" stop-color="#C1FAFF"/>
<stop offset="0.7472" stop-color="#CAFEFF"/>
<stop offset="0.9944" stop-color="#CDFFFF"/>
</radialGradient>
<linearGradient id="paint4_linear_401_680" x1="1117.84" y1="511.923" x2="1117.84" y2="283.407" gradientUnits="userSpaceOnUse">
<stop stop-color="white"/>
<stop offset="1" stop-color="#021FB6"/>
</linearGradient>
<radialGradient id="paint5_radial_401_680" cx="0" cy="0" r="1" gradientUnits="userSpaceOnUse" gradientTransform="translate(1116.02 396.435) rotate(68.5955) scale(75.1553 240.249)">
<stop stop-color="#003CFF"/>
<stop offset="0.96875" stop-color="#8DC4FF" stop-opacity="0"/>
<stop offset="1" stop-color="#1A378D"/>
</radialGradient>
<clipPath id="clip0_401_680">
<rect width="469" height="300" fill="white" transform="translate(886 240)"/>
</clipPath>
</defs>
</svg>
