<svg width="554" height="665" viewBox="0 0 554 665" fill="none" xmlns="http://www.w3.org/2000/svg">
<g style="mix-blend-mode:screen" opacity="0.05">
<path d="M947.742 0C829.582 49.4421 604.984 145.388 484.859 209.646C316.886 299.468 83.0762 376.919 66.6171 417.196C50.1581 457.473 122.608 454.37 7.32983 491.544C-107.949 528.718 -417.505 730.062 -555.835 785.833C-581.964 796.375 -607.984 808.787 -633 822H-339.881C-285.571 781.435 -238.333 747.652 -213.317 733.165C-127.704 683.599 83.0761 587.592 129.179 565.892C175.281 544.212 152.23 522.512 198.333 485.338C244.436 448.164 537.533 336.642 665.996 265.376C748.444 219.653 893.279 145.84 986.466 98.8636V0H947.742Z" fill="url(#paint0_linear_203_650)"/>
</g>
<g clip-path="url(#clip0_203_650)">
<g style="mix-blend-mode:screen" opacity="0.4">
<path fill-rule="evenodd" clip-rule="evenodd" d="M623.435 294.191C679.056 350.208 678.663 441.408 622.573 497.911C566.483 554.4 475.916 554.796 420.295 498.779C364.674 442.762 365.067 351.562 421.157 295.059C477.247 238.557 567.814 238.174 623.435 294.191Z" fill="url(#paint1_radial_203_650)"/>
</g>
<path fill-rule="evenodd" clip-rule="evenodd" d="M602.558 317.987C645.833 361.57 645.529 432.523 601.886 476.476C558.244 520.43 487.78 520.736 444.518 477.153C401.243 433.57 401.547 362.617 445.19 318.664C488.832 274.71 559.283 274.404 602.558 317.987Z" fill="url(#paint2_radial_203_650)"/>
<path fill-rule="evenodd" clip-rule="evenodd" d="M637.797 397.672C637.797 425.438 627.961 450.894 611.596 470.694C590.795 495.894 559.449 511.928 524.35 511.928C471.099 511.928 426.43 474.97 414.198 425.145C412.043 416.336 410.902 407.132 410.902 397.672C410.902 393.472 411.13 389.349 411.561 385.264C411.84 382.698 412.195 380.183 412.626 377.668C422.019 324.115 468.462 283.404 524.35 283.404C539.915 283.404 554.733 286.57 568.233 292.277C568.245 292.277 568.245 292.277 568.245 292.277C589.211 301.149 606.957 316.175 619.29 335.106C630.99 353.081 637.797 374.579 637.797 397.672Z" fill="url(#paint3_radial_203_650)"/>
<path opacity="0.1" fill-rule="evenodd" clip-rule="evenodd" d="M637.809 397.672C637.809 460.774 587.018 511.927 524.362 511.927C471.111 511.927 426.43 474.983 414.21 425.157C414.514 425.578 414.819 425.987 415.123 426.408C415.744 427.276 416.112 428.157 416.416 429.166C416.593 429.74 416.568 430.404 416.733 430.94C417.024 431.872 417.785 432.357 417.43 431.247C417.924 432.293 418.038 433.264 418.507 434.285C419.179 435.791 419.712 437.157 420.181 438.753C420.548 440.03 420.789 441.357 421.182 442.621C421.537 443.77 422.133 444.842 422.564 445.979C423.958 449.527 425.935 452.476 428.039 455.604C428.584 456.408 428.901 457.353 429.459 458.132C430.068 458.961 430.853 459.715 431.513 460.532C432.197 461.4 433.262 462.025 434.187 462.6C435.163 463.2 435.987 463.953 436.925 464.604C438.51 465.715 440.5 466.047 442.376 466.034C444.518 466.021 446.622 465.383 448.726 465.932C452.339 466.889 452.808 471.625 454.671 474.306C455.47 475.455 456.788 476.093 458.093 476.451C459.678 476.872 460.945 477.434 462.213 478.43C463.164 479.183 464.457 479.757 465.661 479.808C466.979 479.859 466.688 479.132 466.675 478.008C466.662 476.349 465.509 475.506 464.609 474.204C464.102 473.476 463.937 472.736 463.595 471.932C463.367 471.408 463.062 471.127 463.316 470.527C464.165 470.604 465.027 471.319 465.674 471.855C467.068 473.017 468.83 473.706 470.478 474.459C471.263 474.804 471.897 475.149 472.582 475.659C472.937 475.927 473.444 476.476 473.849 476.655C475.117 477.179 476.638 475.123 476.904 474.089C477.196 472.902 476.727 471.153 475.89 470.323C474.369 468.791 473.114 467.132 471.847 465.37C470.541 463.557 468.868 461.796 467.942 459.753C467.017 457.698 466.155 455.259 466.371 452.961C466.497 451.532 467.106 450.025 467.55 448.672C467.765 447.996 467.904 446.936 468.297 446.349C468.88 445.481 470.211 445.608 471.099 445.774C472.709 446.081 474.813 446.081 476.245 446.898C477.665 447.715 478.577 449.591 480.327 449.821C483.039 450.191 485.435 447.855 487.133 446.119C488.667 444.549 490.53 441.906 492.761 441.281C494.092 440.91 495.322 441.753 496.564 442.085C497.135 442.238 497.718 442.506 498.301 442.583C499.315 442.723 500.101 442.2 500.95 441.727C502.902 440.642 504.664 440.732 506.793 441.293C507.782 441.561 508.441 442.225 509.252 442.787C510.558 443.706 511.864 444.6 513.207 445.481C514.411 446.259 515.527 446.974 516.047 448.366C516.287 449.03 516.3 449.285 516.123 450C516.009 450.459 515.768 451.085 515.983 451.557C516.338 452.298 517.479 452.527 518.113 452.936C519.025 453.523 519.9 454.238 520.699 454.966C522.79 456.868 523.538 459.102 523.779 461.847C523.918 463.391 523.665 465.102 522.549 466.276C521.294 467.617 519.114 467.642 518.037 469.085C517.162 470.234 516.833 471.817 516.655 473.234C516.541 474.115 516.668 474.868 516.325 475.723C515.895 476.757 515.235 477.778 514.703 478.761C514.285 479.566 513.752 480.23 513.448 481.085C513.271 481.57 513.157 482.068 512.966 482.553C512.497 483.702 511.559 484.698 510.495 485.298C509.024 486.127 507.567 487.059 505.855 487.021C504.867 487.008 503.548 487.264 502.598 487.034C502.294 486.957 502.078 486.753 501.774 486.664C501.381 486.549 501.077 486.51 500.709 486.37C499.67 485.974 499.353 485.591 498.757 484.596C498.275 483.74 497.743 483.268 496.944 482.706C496.336 482.285 495.626 482.055 494.954 481.71C494.523 481.481 493.788 481.391 493.433 481.059C492.723 480.408 493.598 479.757 493.978 479.093C494.802 477.664 495.905 476.208 497.147 475.136C497.667 474.676 498.275 474.357 498.934 474.153C499.898 473.859 500.341 474.076 501.178 474.51C502.103 475.008 502.332 475.532 502.826 476.413C502.37 476.796 501.774 477.319 501.254 477.536C500.798 477.715 500.037 477.613 499.936 478.289C501.394 479.859 502.585 480.791 504.588 479.323C505.64 478.544 508.112 477.281 508.074 475.813C508.061 475.008 506.54 474 505.969 473.566C505.399 473.132 504.74 472.825 504.182 472.366C503.586 471.881 503.295 471.191 502.763 470.668C502.217 470.119 501.508 469.621 500.925 469.072C500.367 468.549 499.784 468.421 499.125 468.076C498.427 467.706 497.946 467.247 497.173 467.004C496.298 466.749 494.992 466.264 494.067 466.289C492.039 466.327 490.074 468.357 488.921 469.851C487.907 471.14 486.018 473.579 486.601 475.379C486.842 476.093 487.552 476.374 487.869 477C488.008 477.293 488.16 477.893 488.236 478.2C488.452 479.221 488.185 480.191 488.515 481.213C489.504 484.378 490.023 488.081 493.192 489.74C493.712 490.008 494.105 490.264 494.675 490.442C495.246 490.621 495.905 490.621 496.463 490.838C497.68 491.298 498.605 491.91 499.936 492.115C501.394 492.344 502.826 492.498 504.309 492.498C506.274 492.498 508.327 492.702 510.165 491.821C511.116 491.361 512.421 490.519 513.157 489.753C514.069 488.796 514.221 487.468 514.5 486.23C514.766 485.106 514.716 483.37 515.616 482.489C516.389 481.736 517.568 481.596 518.366 480.804C519.507 479.655 520.534 478.072 521.256 476.63C522.27 474.638 523.627 472.915 524.679 470.961C525.275 469.876 526.162 468.459 527.074 467.591C527.936 466.761 529.153 466.455 530.319 466.327C531.333 466.213 532.436 465.919 533.4 465.561C534.376 465.204 535.466 464.796 536.416 464.349C537.215 463.966 537.836 463.161 538.508 462.536C540.244 460.953 542.159 460.481 544.351 460.034C545.251 459.855 545.86 459.676 546.747 459.957C547.457 460.2 548.141 460.557 548.889 460.723C549.891 460.953 551.196 461.387 552.223 461.081C555.975 459.957 553.402 456.587 552.755 454.098C551.475 449.042 551.551 443.961 551.551 438.791C551.551 437.196 551.285 435.434 551.881 433.94C552.16 433.225 552.236 432.408 552.553 431.719C552.768 431.234 553.326 430.889 553.516 430.43C553.909 429.561 553.681 429.179 554.682 428.681C555.709 428.17 556.571 428.093 557.699 428.093C560.69 428.081 564.037 427.634 566.851 428.847C568.042 429.37 568.993 430.251 570.007 431.017C571.084 431.821 571.921 432.421 572.06 433.864C572.238 435.574 573.011 437.272 574.836 437.757C576.357 438.166 578.018 438.766 579.59 438.766C580.629 438.753 581.669 438.242 582.67 438.408C582.961 438.459 583.329 438.715 583.545 438.74C584.039 438.778 584.559 438.421 585.053 438.242C586.232 437.783 587.132 437.706 588.387 437.719C590.592 437.744 591.239 436.289 592.81 434.961C594.585 433.442 596.094 432.255 598.464 432.217C601.329 432.179 603.433 429.842 604.726 427.493C606.741 423.804 608.655 419.042 607.033 414.893C606.424 413.361 605.258 412.174 604.358 410.808C603.407 409.353 602.976 407.668 602.507 406.034C602.089 404.617 600.555 403.047 599.072 402.651C597.83 402.319 596.474 402.536 595.498 401.566C594.598 400.659 593.533 399.421 592.887 398.31C591.936 396.676 591.556 394.098 591.543 392.234C591.543 391.608 591.378 391.519 591.239 391.034C591.099 390.574 591.315 390.064 591.226 389.591C590.985 388.238 590.567 386.872 590.275 385.481C589.958 383.949 589.059 382.213 589.122 380.63C589.173 379.379 589.92 377.872 590.871 377.093C591.987 376.2 592.798 375.076 593.609 373.876C594.04 373.238 594.458 372.664 594.725 371.949C595.003 371.208 594.877 370.634 594.991 369.881C595.168 368.757 596.106 368.055 597.184 367.838C597.855 367.698 598.553 367.915 599.237 367.813C600.226 367.634 601.164 367.034 601.798 366.281C603.243 364.557 602.926 361.774 602.85 359.642C602.774 357.319 601.24 356.247 600.074 354.485C598.984 352.813 598.515 350.259 599.82 348.523C600.34 347.847 601.1 347.387 601.379 346.481C601.671 345.536 601.088 344.183 600.707 343.315C599.96 341.693 598.92 340.289 597.691 339.025C597.12 338.451 597.044 337.889 596.702 337.174C596.271 336.281 595.701 335.527 595.308 334.608C594.965 333.83 594.648 333.293 594.078 332.706C593.748 332.374 593.609 332.017 593.305 331.672C592.519 330.753 591.416 330.268 590.694 329.234C590.111 328.404 589.426 327.421 588.957 326.502C588.488 325.557 588.539 324.574 588.488 323.553C588.425 322.098 587.702 321.204 587.005 320.03C586.688 319.506 586.422 319.149 585.991 318.664C585.281 317.885 584.85 317.042 584.305 316.161C583.76 315.293 582.784 314.885 581.96 314.438C581.567 314.221 581.466 314.042 580.971 314.144C580.376 314.259 579.45 315.102 579.032 315.498C577.98 316.481 576.725 316.902 575.331 317.374C574 317.821 572.656 318.204 571.313 318.587C569.551 319.098 567.751 319.161 565.976 319.596C563.58 320.183 561.388 320.681 560.247 323.03C559.423 324.715 559.765 326.732 559.752 328.57C559.752 329.234 559.676 329.91 559.828 330.549C560.031 331.493 560.538 332.361 560.716 333.306C561.235 335.872 560.399 338.553 559.575 340.953C558.751 343.366 557.179 345.127 555.329 346.838C552.907 349.085 549.244 349.047 546.38 350.336C544.44 351.217 541.512 352.417 540.98 354.74C540.587 356.489 541.575 357.638 541.892 359.221C542.095 360.255 541.867 361.353 542.133 362.323C542.475 363.561 542.082 364.225 541.018 365.093C540.473 365.54 539.839 365.987 539.623 366.715C539.497 367.149 539.674 367.583 539.585 368.004C539.433 368.77 538.711 369.319 538.014 369.51C536.847 369.842 535.605 369.842 534.515 370.557C533.526 371.208 533.121 372.217 531.904 372.472C530.953 372.689 530.243 372.498 529.255 372.383C527.607 372.179 525.959 372.217 524.324 371.872C521.446 371.272 518.772 370.761 515.793 370.902C513.448 371.017 512.117 371.655 509.899 370.34C508.492 369.498 507.098 368.553 505.64 367.8C503.967 366.957 502.154 366.357 500.405 365.668C497.756 364.608 495.005 364.047 492.28 363.281C489.504 362.502 487.564 360.013 485.625 358.085C483.711 356.208 482.076 353.885 481.417 351.23C480.986 349.468 481.176 348.217 481.404 346.481C481.924 342.625 479.972 339.102 480.58 335.272C481.214 331.289 481.493 327.23 483.128 323.489C483.85 321.855 485.055 320.579 485.866 319.021C486.715 317.361 488.325 316.634 489.935 315.893C491.076 315.37 492.495 314.719 493.775 314.757C495.385 314.808 494.929 315.779 495.461 316.876C495.854 317.655 496.513 318.166 497.173 318.753C498.529 319.966 500.443 318.753 501.774 317.91C503.32 316.94 505.437 315.153 507.402 315.625C508.91 315.996 510.267 316.647 511.674 315.651C512.612 315 513.296 313.774 512.599 312.625C511.433 310.698 508.644 310.634 506.705 310.659C504.398 310.672 502.116 310.57 499.822 310.915C498.402 311.132 497.02 311.464 495.613 311.183C494.067 310.876 492.837 310.047 491.43 309.434C489.073 308.425 487.095 309.344 484.864 310.213C482.152 311.259 479.528 313.123 478.336 315.83C477.335 318.14 477.88 320.63 477.639 323.03C477.538 324.115 477.373 325.289 477.031 326.323C476.499 327.97 475.358 329.272 474.331 330.625C472.493 333.038 471.504 335.566 472.037 338.553C472.265 339.842 472.201 340.519 471.618 341.681C471.162 342.613 470.224 343.723 469.971 344.719C469.704 345.74 470.427 345.906 471.175 346.519C472.062 347.234 472.949 348.485 473.178 349.621C473.773 352.442 472.392 355.123 470.186 356.783C468.728 357.881 466.738 358.276 465.699 359.859C465.154 360.715 464.659 361.608 464.14 362.476C463.303 363.868 462.188 364.647 460.755 365.336C459.171 366.076 457.384 366.204 456.116 367.468C455.381 368.196 455.127 368.898 454.696 369.855C454.025 371.298 453.213 372.651 452.453 374.042C451.718 375.408 450.982 376.327 449.613 377.106C448.016 378.013 446.419 378.83 444.873 379.838C443.212 380.923 442.135 382.506 440.753 383.885C439.143 385.481 437.331 386.017 435.201 386.502C432.07 387.204 428.889 388.072 425.707 388.532C422.918 388.927 420.485 388.761 417.836 387.83C415.706 387.089 413.64 386.259 411.65 385.213C417.696 327.996 465.851 283.404 524.362 283.404C587.018 283.404 637.809 334.557 637.809 397.672Z" fill="url(#paint4_linear_203_650)"/>
<path fill-rule="evenodd" clip-rule="evenodd" d="M568.245 292.276C567.941 292.225 562.833 291.344 558.181 290.744C553.364 290.119 554.238 288.089 550.056 286.889C545.873 285.689 538.229 284.247 536.974 284.451C535.732 284.668 534.249 285.817 531.498 285.715C528.76 285.613 523.741 285.319 520.116 285.587C516.478 285.855 510.431 284.259 508.276 286.047C506.109 287.821 498.022 290.093 491.963 291.83C485.904 293.54 484.522 294.383 480.01 296.974C475.51 299.566 473.52 302.949 468.272 306.523C463.024 310.098 460.527 308.974 457.029 309.753C453.53 310.519 454.532 310.749 449.246 314.757C443.973 318.766 443.783 322.583 441.07 326.068C438.37 329.566 431.944 334.672 431.944 334.672L427.773 342.715L424.313 348.702C424.313 348.702 426.797 352.506 421.435 358.544C416.086 364.583 412.689 377.706 412.689 377.706L412.613 377.668C422.019 324.115 468.462 283.404 524.349 283.404C539.915 283.404 554.733 286.57 568.245 292.276Z" fill="#B5FFFF"/>
<path fill-rule="evenodd" clip-rule="evenodd" d="M541.5 510.625C541.5 510.625 550.119 504.332 550.93 498.88C551.742 493.429 546.811 492.804 546.532 489.6C546.24 486.383 552.87 477.421 553.808 471.715C554.746 466.008 553.859 460.863 551.552 457.276C549.245 453.676 536.442 447.932 534.477 440.872C532.5 433.8 520.927 425.208 521.092 418.315C521.257 411.421 526.897 405.804 527.949 395.77C529.002 385.736 527.088 382.723 527.088 382.723C527.088 382.723 530.016 387.536 529.509 396.574C529.014 405.625 522.36 411.868 521.878 418.315C521.383 424.749 536.024 437.732 536.328 439.927C536.632 442.11 536.366 442.863 538.939 445.57C541.512 448.276 551.095 454.085 553.542 458.042C556.001 462 558.865 458.77 559.613 453.025C560.361 447.28 559.449 439.608 563.403 435.829C567.358 432.051 569.919 431.795 570.945 426.268C571.972 420.74 572.074 416.221 569.716 412.506C567.358 408.791 562.833 406.059 563.403 401.195C563.986 396.332 560.488 379.966 554.239 371.795C547.99 363.625 547.153 358.212 547.153 358.212C547.153 358.212 549.992 365.744 556.115 371.795C562.237 377.834 563.479 399.855 564.557 403.685C565.647 407.527 569.919 405.268 571.63 415.583C573.341 425.898 571.44 430.34 569.703 432.332C567.967 434.323 563.555 435.523 562.098 438.51C560.64 441.485 561.223 453.357 560.843 457.059C560.475 460.761 557.687 461.285 556.33 464.285C554.974 467.298 555.468 471.102 551.539 479.515C547.609 487.927 547.977 490.404 551.539 493.506C555.101 496.608 564.671 497.017 565.444 499.263C566.217 501.51 562.453 503.502 562.694 504.344C562.934 505.174 567.498 503.412 567.498 503.412C567.498 503.412 553.364 509.4 541.5 510.625Z" fill="#82ABE5"/>
<path fill-rule="evenodd" clip-rule="evenodd" d="M445.874 480.166C445.874 480.166 460.844 485.145 465.648 479.808C470.453 474.46 468.691 468.562 469.92 460.174C471.137 451.8 471.543 448.8 478.083 446.119C484.611 443.438 490.746 444.434 493.015 439.902C495.284 435.383 502.37 428.17 502.37 428.17C502.37 428.17 494.853 434.745 494.156 440.847C493.459 446.949 480.365 441.753 473.938 450.038C469.451 455.834 473.393 469.43 469.933 477.817C466.472 486.204 451.908 485.145 451.908 485.145C451.908 485.145 448.486 483.153 445.874 480.166Z" fill="#82ABE5"/>
<path fill-rule="evenodd" clip-rule="evenodd" d="M410.927 399.702C410.927 399.702 416.479 402.702 419.648 403.021C422.817 403.34 427.507 401.004 433.034 400.532C438.56 400.059 444.657 402.23 449.601 401.77C449.601 401.77 441.222 402.14 437.889 401.77C434.555 401.4 435.924 401.336 431.982 401.361C428.027 401.387 424.148 403.672 420.409 404.247C416.657 404.834 416.606 403.315 413.906 404.655C411.219 406.008 411.358 407.808 411.358 407.808C411.358 407.808 410.953 400.851 410.927 399.702Z" fill="#82ABE5"/>
<path fill-rule="evenodd" clip-rule="evenodd" d="M417.151 360.178C417.151 360.178 429.129 369.791 446.749 372.855C453.061 373.953 460.451 371.757 463.949 378.51C466.383 383.208 475.37 384.804 475.37 384.804C475.37 384.804 470.034 385.404 465.661 382.353C461.288 379.302 463.873 376.787 458.119 374.77C452.364 372.753 449.448 374.604 445.494 373.978C441.539 373.353 431.918 367.136 429.142 369.778C426.113 372.664 429.877 376.557 434.745 380.017C439.612 383.464 445.05 380.808 448.422 381.689C451.793 382.57 452.668 383.042 452.668 383.042C452.668 383.042 449.601 382.634 445.075 382.353C440.55 382.072 439.878 384.013 436.405 382.353C432.932 380.693 428.686 376.161 427.051 372.83C425.428 369.498 426.024 367.213 423.26 364.94C420.497 362.681 415.617 364.94 415.617 364.94L417.151 360.178Z" fill="#82ABE5"/>
<path fill-rule="evenodd" clip-rule="evenodd" d="M547.14 286.149C547.14 286.149 552.705 293.655 552.705 296.515C552.705 303.447 548.484 310.251 546.697 314.413C544.453 319.647 544.491 325.417 544.491 325.417V331.915C544.491 331.915 544.618 324.957 545.746 321.562C546.874 318.166 549.118 317.898 549.739 315.319C550.36 312.74 549.371 309.613 550.93 305.706C552.489 301.8 553.871 301.711 553.795 299.043C553.732 296.387 553.465 292.047 555.849 290.821C558.232 289.596 560.919 289.468 560.919 289.468C560.919 289.468 553.415 286.736 547.14 286.149Z" fill="#82ABE5"/>
<path fill-rule="evenodd" clip-rule="evenodd" d="M479.465 292.608C479.465 292.608 481.556 293.68 483.027 299.642C483.483 301.506 483.077 303.766 486.196 307.085C489.314 310.404 490.898 311.987 491.646 314.132C492.394 316.276 493.522 320.834 493.522 320.834C493.522 320.834 491.152 313.749 489.529 311.732C487.907 309.715 487.526 310.378 485.777 308.732C484.028 307.085 484.459 305.655 482.659 301.378C480.846 297.089 474.394 295.059 474.394 295.059L479.465 292.608Z" fill="#82ABE5"/>
<g opacity="0.3">
<g style="mix-blend-mode:screen">
<path fill-rule="evenodd" clip-rule="evenodd" d="M550.289 466.403C426.993 515.424 314.763 523.837 299.615 485.194C284.455 446.552 372.133 375.484 495.429 326.462C618.725 277.441 730.956 269.028 746.103 307.671C761.251 346.314 673.586 417.382 550.289 466.403Z" fill="url(#paint5_radial_203_650)"/>
</g>
</g>
</g>
<defs>
<linearGradient id="paint0_linear_203_650" x1="-87.1259" y1="587.6" x2="648.976" y2="139.413" gradientUnits="userSpaceOnUse">
<stop/>
<stop offset="0.0379" stop-color="#101010"/>
<stop offset="0.1936" stop-color="#4F4F4F"/>
<stop offset="0.3477" stop-color="#848484"/>
<stop offset="0.4966" stop-color="#B0B0B0"/>
<stop offset="0.6393" stop-color="#D3D3D3"/>
<stop offset="0.774" stop-color="#EBEBEB"/>
<stop offset="0.8977" stop-color="#FAFAFA"/>
<stop offset="1" stop-color="white"/>
</linearGradient>
<radialGradient id="paint1_radial_203_650" cx="0" cy="0" r="1" gradientUnits="userSpaceOnUse" gradientTransform="translate(521.865 396.484) rotate(-45.2033) scale(144.152 142.922)">
<stop offset="0.2123" stop-color="#16CCFF"/>
<stop offset="0.2845" stop-color="#15C7F9"/>
<stop offset="0.3835" stop-color="#14B9E7"/>
<stop offset="0.4981" stop-color="#11A2CA"/>
<stop offset="0.6244" stop-color="#0E81A2"/>
<stop offset="0.7603" stop-color="#09586E" stop-opacity="0"/>
<stop offset="0.902" stop-color="#04262F" stop-opacity="0"/>
<stop offset="1" stop-opacity="0"/>
</radialGradient>
<radialGradient id="paint2_radial_203_650" cx="0" cy="0" r="1" gradientUnits="userSpaceOnUse" gradientTransform="translate(523.536 397.57) rotate(-45.2033) scale(112.155 111.198)">
<stop stop-color="#5B40FF"/>
<stop offset="0.2204" stop-color="#3FCAFC"/>
<stop offset="0.3562" stop-color="#3DC3F4"/>
<stop offset="0.4692" stop-color="#3AB8E5"/>
<stop offset="0.5696" stop-color="#34A7D1"/>
<stop offset="0.6618" stop-color="#2E92B6"/>
<stop offset="0.7478" stop-color="#267896"/>
<stop offset="0.8292" stop-color="#1C596F"/>
<stop offset="0.9069" stop-color="#103442"/>
<stop offset="0.979" stop-color="#040D10"/>
<stop offset="1"/>
</radialGradient>
<radialGradient id="paint3_radial_203_650" cx="0" cy="0" r="1" gradientUnits="userSpaceOnUse" gradientTransform="translate(494.436 357.293) scale(234.867 236.54)">
<stop stop-color="#5ECEFF"/>
<stop offset="0.1194" stop-color="#7DDCFF"/>
<stop offset="0.2577" stop-color="#9AE9FF"/>
<stop offset="0.4057" stop-color="#B1F3FF"/>
<stop offset="0.566" stop-color="#C1FAFF"/>
<stop offset="0.7472" stop-color="#CAFEFF"/>
<stop offset="0.9944" stop-color="#CDFFFF"/>
</radialGradient>
<linearGradient id="paint4_linear_203_650" x1="524.684" y1="511.923" x2="524.684" y2="283.407" gradientUnits="userSpaceOnUse">
<stop stop-color="white"/>
<stop offset="1" stop-color="#021FB6"/>
</linearGradient>
<radialGradient id="paint5_radial_203_650" cx="0" cy="0" r="1" gradientUnits="userSpaceOnUse" gradientTransform="translate(522.856 396.435) rotate(68.5955) scale(75.1553 240.249)">
<stop stop-color="#003CFF"/>
<stop offset="0.96875" stop-color="#8DC4FF" stop-opacity="0"/>
<stop offset="1" stop-color="#1A378D"/>
</radialGradient>
<clipPath id="clip0_203_650">
<rect width="469" height="300" fill="white" transform="translate(292.841 240)"/>
</clipPath>
</defs>
</svg>
