<svg width="1440" height="1201" viewBox="0 0 1440 1201" fill="none" xmlns="http://www.w3.org/2000/svg">
<g style="mix-blend-mode:screen" opacity="0.03">
<path d="M1778.82 0C1616.55 72.2383 1308.11 212.422 1143.15 306.307C912.471 437.543 591.382 550.705 568.779 609.552C546.175 668.4 645.671 663.866 487.36 718.18C329.049 772.494 -96.0622 1066.67 -286.03 1148.16C-321.913 1163.56 -357.646 1181.69 -392 1201H10.5377C85.1217 1141.73 149.993 1092.37 184.347 1071.21C301.919 998.787 591.381 858.513 654.694 826.808C718.006 795.132 686.35 763.427 749.663 709.113C812.975 654.799 1215.48 491.857 1391.9 387.733C1505.13 320.929 1704.03 213.082 1832 144.447V0H1778.82Z" fill="url(#paint0_linear_181_671)"/>
</g>
<g style="mix-blend-mode:screen" opacity="0.15">
<path d="M1579.02 174.5H1621.5V290.725C1517.8 346.337 1356.83 433.613 1265.15 487.695C1195.68 528.694 1082.9 580.961 979.43 628.917C976.493 630.278 973.565 631.635 970.645 632.988C917.74 657.511 867.69 680.777 827.661 700.662C807.646 710.605 790.131 719.705 776.013 727.697C761.904 735.684 751.161 742.58 744.709 748.114C720.323 769.031 713.251 785.849 707.116 800.441C706.775 801.251 706.437 802.055 706.1 802.852C702.896 810.411 699.713 817.344 694.153 823.987C688.596 830.627 680.64 837.005 667.862 843.398C660.08 847.294 648.078 853.217 632.982 860.666C548.599 902.304 367.552 991.64 286.724 1041.42C258.879 1058.57 206.351 1098.54 145.982 1146.5H-178.086C-150.775 1131.22 -122.414 1116.87 -93.9402 1104.65C-21.0929 1073.4 94.3839 1003.6 209.397 934.071C215.955 930.107 222.512 926.143 229.06 922.187C289.754 885.519 349.638 849.544 402.365 819.985C455.101 790.422 500.644 767.297 532.665 756.312C564.733 745.312 583.792 737.276 594.611 730.656C600.02 727.346 603.412 724.364 605.332 721.506C607.267 718.625 607.694 715.887 607.214 713.128C606.741 710.402 605.385 707.672 603.812 704.789C603.509 704.234 603.198 703.674 602.883 703.105C601.547 700.695 600.132 698.142 598.937 695.315C596.002 688.368 594.414 679.793 598.939 668.013C601.177 662.187 607.151 655.611 616.371 648.343C625.574 641.088 637.944 633.195 652.878 624.72C682.744 607.771 722.805 588.526 768.153 567.441C783.044 560.517 798.505 553.395 814.361 546.091C895.056 508.918 985.978 467.034 1064.1 422.592L1063.86 422.157L1064.1 422.592C1197.71 346.563 1447.51 233.04 1579.02 174.5Z" stroke="url(#paint1_linear_181_671)"/>
</g>
<defs>
<linearGradient id="paint0_linear_181_671" x1="357.644" y1="858.525" x2="1401.43" y2="261.182" gradientUnits="userSpaceOnUse">
<stop stop-color="#051345"/>
<stop offset="0.15625" stop-color="#051345"/>
<stop offset="0.3477" stop-color="#848484"/>
<stop offset="0.4966" stop-color="#B0B0B0"/>
<stop offset="0.6393" stop-color="#D3D3D3"/>
<stop offset="0.774" stop-color="#EBEBEB"/>
<stop offset="0.8977" stop-color="#FAFAFA"/>
<stop offset="1" stop-color="#051345"/>
</linearGradient>
<linearGradient id="paint1_linear_181_671" x1="721" y1="174" x2="721" y2="1147" gradientUnits="userSpaceOnUse">
<stop stop-color="#097EF4"/>
<stop offset="1" stop-color="white" stop-opacity="0"/>
</linearGradient>
</defs>
</svg>
