<svg width="1440" height="1201" viewBox="0 0 1440 1201" fill="none" xmlns="http://www.w3.org/2000/svg">
<g style="mix-blend-mode:screen" opacity="0.03">
<path d="M1391.82 0C1229.55 72.2383 921.113 212.422 756.147 306.307C525.471 437.543 204.382 550.705 181.779 609.552C159.175 668.4 258.671 663.866 100.36 718.18C-57.9514 772.494 -483.062 1066.67 -673.03 1148.16C-708.913 1163.56 -744.646 1181.69 -779 1201H-376.462C-301.878 1141.73 -237.007 1092.37 -202.653 1071.21C-85.0811 998.787 204.381 858.513 267.694 826.808C331.006 795.132 299.35 763.427 362.663 709.113C425.975 654.799 828.483 491.857 1004.9 387.733C1118.13 320.929 1317.03 213.082 1445 144.447V0H1391.82Z" fill="url(#paint0_linear_436_685)"/>
</g>
<g style="mix-blend-mode:screen" opacity="0.15">
<path d="M676.103 428.592C809.709 352.563 1059.51 239.04 1191.02 180.5H1233.5V296.725C1129.8 352.337 968.828 439.613 877.155 493.695C807.682 534.694 694.906 586.96 591.432 634.916L582.645 638.988C529.74 663.511 479.69 686.777 439.661 706.662C419.646 716.605 402.131 725.705 388.013 733.697C373.904 741.684 363.161 748.58 356.709 754.114C332.323 775.031 325.251 791.849 319.116 806.441C318.775 807.251 318.437 808.055 318.1 808.852C314.896 816.411 311.713 823.344 306.153 829.987C300.596 836.627 292.64 843.005 279.862 849.398C272.08 853.294 260.078 859.217 244.983 866.666C160.599 908.304 -20.4481 997.64 -101.276 1047.42L-101.056 1047.78L-101.276 1047.42C-129.121 1064.57 -181.649 1104.54 -242.018 1152.5H-566.086C-538.775 1137.22 -510.414 1122.87 -481.94 1110.65C-409.093 1079.4 -293.617 1009.6 -178.605 940.072C-172.046 936.107 -165.488 932.143 -158.94 928.187C-98.2463 891.519 -38.3617 855.544 14.3653 825.985C67.1009 796.422 112.645 773.297 144.665 762.312C176.733 751.312 195.792 743.276 206.611 736.656C212.02 733.346 215.412 730.364 217.332 727.506C219.267 724.625 219.694 721.887 219.214 719.128C218.741 716.402 217.385 713.672 215.812 710.789C215.509 710.234 215.198 709.674 214.883 709.105C213.547 706.695 212.132 704.142 210.937 701.315C208.002 694.368 206.414 685.793 210.939 674.013C213.177 668.187 219.151 661.611 228.371 654.343C237.574 647.088 249.944 639.195 264.878 630.72C294.744 613.771 334.805 594.526 380.153 573.441C395.044 566.517 410.505 559.395 426.361 552.091C507.056 514.918 597.978 473.034 676.103 428.592Z" stroke="url(#paint1_linear_436_685)"/>
</g>
<defs>
<linearGradient id="paint0_linear_436_685" x1="-29.3556" y1="858.525" x2="1014.43" y2="261.182" gradientUnits="userSpaceOnUse">
<stop stop-color="#051345"/>
<stop offset="0.15625" stop-color="#051345"/>
<stop offset="0.3477" stop-color="#848484"/>
<stop offset="0.4966" stop-color="#B0B0B0"/>
<stop offset="0.6393" stop-color="#D3D3D3"/>
<stop offset="0.774" stop-color="#EBEBEB"/>
<stop offset="0.8977" stop-color="#FAFAFA"/>
<stop offset="1" stop-color="#051345"/>
</linearGradient>
<linearGradient id="paint1_linear_436_685" x1="333" y1="180" x2="333" y2="1153" gradientUnits="userSpaceOnUse">
<stop stop-color="#097EF4"/>
<stop offset="1" stop-color="white" stop-opacity="0"/>
</linearGradient>
</defs>
</svg>
