<svg width="285" height="357" viewBox="0 0 285 357" fill="none" xmlns="http://www.w3.org/2000/svg">
<g clip-path="url(#clip0_82_3165)">
<path opacity="0.35" d="M259.635 129.17C133.876 111.759 27.828 122.745 22.7594 153.688C17.7198 184.615 115.566 223.828 241.332 241.216C367.114 258.633 473.162 247.648 478.208 216.698C483.27 185.777 385.395 146.581 259.635 129.17ZM240.708 232.427C152.076 220.149 60.5583 190.665 65.533 160.163C70.5305 129.667 167.398 126.244 256.031 138.521C344.663 150.799 436.181 180.283 431.206 210.785C426.232 241.287 329.341 244.704 240.708 232.427ZM257.192 144.212C165.214 131.48 87.6677 139.516 83.9696 162.155C80.2776 184.772 151.843 213.455 243.804 226.157C335.782 238.889 413.351 230.86 417.043 208.243C420.712 185.62 349.141 156.96 257.192 144.212ZM243.326 219.741C178.514 210.775 111.586 189.207 115.221 166.894C118.872 144.61 189.714 142.098 254.526 151.063C319.338 160.029 386.266 181.598 382.631 203.911C379.003 226.201 308.161 228.712 243.326 219.741Z" fill="#E6FBFF"/>
<path d="M371.757 210.233C354.12 276.055 286.793 315.201 221.37 297.671C155.948 280.141 117.214 212.577 134.851 146.754C152.488 80.9316 219.815 41.7863 285.237 59.3162C350.66 76.8461 389.394 144.41 371.757 210.233Z" fill="#E2FAFF"/>
<path d="M211.928 260.653C200.842 254.464 189.482 253.214 176.996 253.16C167.658 253.114 159.143 245.527 149.352 244.254C165.198 269.674 190.254 289.333 221.37 297.671C244.241 303.799 267.335 302.986 288.473 296.54C287.154 295.72 285.813 294.894 284.426 294.056C273.675 287.711 260.584 284.081 249.18 278.986C236.533 273.338 224.012 267.403 211.928 260.653Z" fill="#82ABE5"/>
<path d="M323.671 212.284C318.567 208.828 314 204.73 308.72 201.473C302.479 197.615 294.518 196.071 287.617 193.853C272.949 189.186 261.058 180.989 247.355 174.542C236.933 169.612 225.217 169.052 213.875 169.01C206.339 168.98 199.043 168.966 191.597 167.413C184.197 165.872 177.495 163.094 169.868 162.401C157.275 161.287 144.826 160.186 132.304 158.624C131.649 162.526 131.212 166.438 130.923 170.34C132.59 170.59 134.25 170.863 135.894 171.107C148.004 172.927 160.215 173.005 172.318 174.578C185.324 176.245 196.532 180.796 209.916 180.87C226.15 180.97 238.978 182.663 253.009 191.164C264.352 198.035 276.017 202.61 288.637 206.63C295.948 208.957 302.589 211.326 308.888 215.79C313.933 219.377 318.491 223.325 323.894 226.394C333.976 232.141 347.025 230.823 358.126 230.58C360.215 230.526 362.245 230.603 364.228 230.766C365.997 226.99 367.585 223.068 368.98 219.045C353.305 218.136 337.43 221.62 323.671 212.284Z" fill="#82ABE5"/>
<path d="M321.431 248.161C308.994 241.365 294.994 238.67 282.457 231.7C271.851 225.812 258.492 214.986 245.811 214.929C241.445 214.914 237.417 215.824 233.224 216.985C228.208 218.392 221.372 211.648 215.497 211.523C209.885 211.419 204.527 212.735 198.935 213.103C193.2 213.458 185.833 206.694 180.87 204.259C168.273 198.058 153.005 199.641 139.424 200.301C137.121 200.421 134.818 200.541 132.516 200.661C133.933 208.582 136.116 216.291 139.014 223.699C150.313 222.625 162.68 221.664 171.914 226.202C182.333 231.327 190.212 237.369 202.455 236.596C209.009 236.191 212.881 234.133 218.782 238.171C223.694 241.526 231.361 241.615 236.963 240.389C242.484 239.191 244.238 238.114 249.6 240.607C255.615 243.397 261.343 246.897 267.074 250.202C279.827 257.549 292.908 261.398 306.281 267.069C313.011 269.929 319.13 273.877 324.937 278.357C331.206 273.822 337.052 268.682 342.403 263.017C335.877 257.485 329.058 252.317 321.431 248.161Z" fill="#D5F7FD"/>
<path d="M309.219 89.8152C320.783 92.1276 332.825 93.2909 344.484 95.7025C329.178 78.6559 308.973 65.6763 285.237 59.3162C263.711 53.5482 241.968 53.9617 221.863 59.3826C231.735 63.7229 241.888 67.1067 250.121 70.3689C265.08 76.3178 289.474 85.8753 309.219 89.8152Z" fill="#C5F4FD"/>
<path d="M167.592 90.5302C178.963 90.826 190.37 92.6297 201.293 94.5985C212.125 96.5429 221.037 100.822 231.102 104.993C242.859 109.863 254.821 112.601 267.403 114.302C272.609 115.009 277.836 115.55 283.056 116.114C290.675 116.927 294.639 120.175 300.77 124.447C309.941 130.859 321.156 134.38 331.784 137.449C343.249 140.766 353.878 145.383 365.066 149.461C367.693 150.411 370.372 150.981 373.061 151.333C370.929 141.796 367.686 132.576 363.45 123.875C354.998 120.701 346.768 116.973 337.948 114.536C326.128 111.27 316.181 106.567 306.276 99.3433C295.737 91.6559 281.884 92.5129 269.491 90.8379C245.246 87.5595 224.682 74.5571 200.623 70.4934C199.06 70.2219 197.468 69.9673 195.876 69.7127C185.554 75.2497 176.012 82.2485 167.592 90.5302Z" fill="#82ABE5"/>
<path d="M320.864 157.613C308.11 150.265 296.336 142.91 282.063 138.864C267.699 134.794 252.767 131.113 238.137 128.126C231.072 126.7 223.963 126.809 216.789 126.975C208.465 127.152 201.374 125.276 193.411 122.922C179.341 118.758 164.464 115.509 149.416 113.172C148.295 114.984 147.22 116.809 146.185 118.668C161.817 121.015 177.31 124.331 191.876 128.651C203.818 132.195 212.672 133.045 225.068 132.706C240.802 132.304 257.307 139.134 272.512 142.618C299.844 148.861 320.719 167.719 347.604 174.996C357.233 177.601 366.76 179.859 375.842 183.324C375.931 181.26 375.975 179.184 375.961 177.141C372.455 175.735 368.901 174.513 365.229 173.455C349.738 169.034 335.01 165.776 320.864 157.613Z" fill="#D5F7FD"/>
<path d="M177.333 142.834C181.107 143.845 184.654 142.849 185.254 140.608C185.854 138.368 183.281 135.732 179.507 134.721C175.733 133.709 172.187 134.706 171.586 136.946C170.986 139.186 173.559 141.822 177.333 142.834Z" fill="#82ABE5"/>
<path d="M263.927 70.2361C267.701 71.2474 271.247 70.251 271.848 68.0106C272.448 65.7702 269.875 63.1342 266.101 62.1229C262.327 61.1116 258.78 62.108 258.18 64.3484C257.58 66.5888 260.153 69.2248 263.927 70.2361Z" fill="#82ABE5"/>
<path d="M243.735 269.151C246.012 269.761 248.152 269.157 248.515 267.803C248.878 266.449 247.326 264.856 245.049 264.246C242.772 263.636 240.632 264.239 240.269 265.594C239.906 266.948 241.458 268.54 243.735 269.151Z" fill="#82ABE5"/>
<path d="M271.394 156.811C273.671 157.422 275.812 156.818 276.175 155.464C276.537 154.11 274.986 152.517 272.709 151.907C270.431 151.297 268.291 151.9 267.928 153.254C267.565 154.609 269.117 156.201 271.394 156.811Z" fill="#82ABE5"/>
<path d="M194.201 196.605C196.478 197.215 198.618 196.612 198.981 195.257C199.344 193.903 197.792 192.31 195.515 191.7C193.238 191.09 191.097 191.693 190.735 193.048C190.372 194.402 191.923 195.995 194.201 196.605Z" fill="#82ABE5"/>
<path d="M230.83 72.569C232.251 72.9499 233.585 72.5815 233.809 71.7461C234.033 70.9107 233.062 69.9246 231.64 69.5437C230.219 69.1628 228.885 69.5312 228.661 70.3666C228.437 71.202 229.408 72.1881 230.83 72.569Z" fill="#82ABE5"/>
<path d="M227.389 152.291C228.811 152.672 230.145 152.304 230.368 151.468C230.592 150.633 229.621 149.647 228.2 149.266C226.778 148.885 225.444 149.254 225.22 150.089C224.996 150.924 225.967 151.91 227.389 152.291Z" fill="#82ABE5"/>
<path d="M250.464 203.943C250.237 204.791 248.92 205.15 247.485 204.766C246.073 204.387 245.118 203.394 245.339 202.569C245.56 201.744 246.912 201.345 248.325 201.724C249.737 202.102 250.692 203.095 250.464 203.943Z" fill="#82ABE5"/>
<path d="M213.431 252.949C214.853 253.33 216.186 252.962 216.41 252.126C216.634 251.291 215.663 250.305 214.242 249.924C212.82 249.543 211.486 249.911 211.262 250.747C211.038 251.582 212.009 252.568 213.431 252.949Z" fill="#82ABE5"/>
<path d="M284.07 275.979C283.843 276.827 282.526 277.186 281.091 276.802C279.678 276.423 278.701 275.425 278.922 274.599C279.143 273.774 280.466 273.392 281.901 273.777C283.336 274.161 284.291 275.154 284.07 275.979Z" fill="#82ABE5"/>
<path d="M158.126 189.002C159.548 189.383 160.882 189.014 161.106 188.179C161.329 187.344 160.358 186.358 158.937 185.977C157.515 185.596 156.181 185.964 155.957 186.8C155.734 187.635 156.705 188.621 158.126 189.002Z" fill="#82ABE5"/>
<path d="M190.071 105.863C189.844 106.711 188.527 107.071 187.092 106.686C185.68 106.308 184.702 105.309 184.923 104.484C185.151 103.636 186.468 103.277 187.903 103.661C189.338 104.046 190.293 105.038 190.071 105.863Z" fill="#82ABE5"/>
<path d="M286.099 128.72C285.872 129.568 284.555 129.927 283.12 129.543C281.708 129.164 280.73 128.166 280.951 127.341C281.178 126.493 282.495 126.133 283.931 126.518C285.343 126.896 286.32 127.895 286.099 128.72Z" fill="#82ABE5"/>
<path opacity="0.2" d="M367.243 132.408C314.171 176.576 219.838 243.071 143.147 233.06C158.168 263.836 185.812 288.143 221.37 297.671C286.793 315.201 354.12 276.055 371.757 210.233C378.942 183.418 376.759 156.304 367.243 132.408Z" fill="#8CA1CA"/>
<path opacity="0.2" d="M372.401 207.556C320.656 244.588 239.224 285.53 157.956 256.336C173.658 275.822 195.408 290.69 221.377 297.648C286.799 315.178 354.126 276.033 371.763 210.21C371.996 209.339 372.184 208.456 372.401 207.556Z" fill="#8CA1CA"/>
<path opacity="0.1" d="M478.207 216.698C481.422 197.048 443.161 174.096 382.616 155.491C382.754 160.17 383.279 164.953 383.456 169.668C414.072 181.974 433.583 196.266 431.206 210.785C426.231 241.287 329.34 244.704 240.708 232.427C152.075 220.149 60.558 190.665 65.5327 160.163C68.0314 144.915 93.4978 136.435 129.448 133.295C130.652 129.073 132.288 125.065 133.958 121.017C70.0104 122.404 25.9796 134.016 22.7591 153.688C17.7194 184.615 115.566 223.828 241.332 241.216C367.091 258.627 473.162 247.648 478.207 216.698Z" fill="#E6FBFF"/>
<path opacity="0.1" d="M383.335 176.956C383.307 177.243 383.301 177.536 383.273 177.823C382.671 183.533 381.598 188.723 379.605 193.79C382.086 197.108 383.18 200.496 382.608 203.904C378.973 226.217 308.115 228.7 243.303 219.735C178.491 210.769 111.563 189.2 115.197 166.887C116.06 161.665 120.604 157.553 127.895 154.397C127.369 149.982 127.29 145.539 127.817 141.111C101.985 144.85 85.5619 152.02 83.9235 162.143C80.2316 184.76 151.797 213.442 243.758 226.145C335.736 238.877 413.305 230.848 416.997 208.231C418.642 198.355 405.876 187.319 383.335 176.956Z" fill="#E6FBFF"/>
<path opacity="0.5" d="M317.621 95.7265C326.188 127.081 297.392 162.476 253.274 174.776C209.179 187.083 166.466 171.634 157.894 140.302C149.327 108.947 178.146 73.5593 222.24 61.2525C266.342 48.9227 309.054 64.3715 317.621 95.7265Z" fill="url(#paint0_linear_82_3165)"/>
<path opacity="0.4" d="M283.578 82.8217C288.696 101.535 269.552 123.23 240.815 131.251C212.078 139.272 184.641 130.594 179.529 111.857C174.412 93.1436 193.555 71.4491 222.286 63.451C251.023 55.43 278.46 64.108 283.578 82.8217Z" fill="white"/>
</g>
<defs>
<linearGradient id="paint0_linear_82_3165" x1="213.736" y1="63.6157" x2="262.42" y2="172.088" gradientUnits="userSpaceOnUse">
<stop stop-color="white"/>
<stop offset="1" stop-color="white" stop-opacity="0"/>
</linearGradient>
<clipPath id="clip0_82_3165">
<rect width="456.379" height="246.763" fill="white" transform="translate(63.8667) rotate(15)"/>
</clipPath>
</defs>
</svg>
