<svg width="489" height="584" viewBox="0 0 489 584" fill="none" xmlns="http://www.w3.org/2000/svg">
<path opacity="0.85" d="M18.6398 426.065C18.3799 425.096 18.9525 424.104 19.9222 423.844C20.892 423.584 21.8836 424.157 22.1434 425.127C22.4032 426.096 21.8307 427.088 20.861 427.348C19.8885 427.597 18.8968 427.025 18.6398 426.065Z" fill="#AFF1FF"/>
<path opacity="0.25" d="M180.323 403.917C180.131 403.198 180.555 402.447 181.285 402.251C182.005 402.059 182.756 402.483 182.951 403.213C183.147 403.943 182.719 404.684 181.989 404.879C181.259 405.075 180.519 404.647 180.323 403.917Z" fill="#AFF1FF"/>
<path opacity="0.85" d="M61.233 492.298C60.9732 491.328 61.5457 490.337 62.5155 490.077C63.4852 489.817 64.4768 490.39 64.7367 491.359C64.9965 492.329 64.424 493.321 63.4543 493.581C62.4845 493.84 61.4929 493.268 61.233 492.298Z" fill="#AFF1FF"/>
<path opacity="0.25" d="M95.821 413.101C95.6282 412.382 96.0529 411.631 96.7828 411.435C97.5023 411.242 98.2532 411.667 98.4487 412.397C98.6415 413.116 98.2168 413.867 97.4869 414.063C96.7674 414.256 96.0166 413.831 95.821 413.101Z" fill="#AFF1FF"/>
<path opacity="0.25" d="M138.414 319.529C137.689 319.723 137.258 320.469 137.452 321.194C137.647 321.92 138.393 322.351 139.118 322.156C139.844 321.962 140.275 321.216 140.08 320.49C139.886 319.765 139.14 319.334 138.414 319.529Z" fill="#AFF1FF"/>
<path opacity="0.85" d="M85.4913 362.6C85.2315 361.631 85.804 360.639 86.7738 360.379C87.7435 360.119 88.7351 360.692 88.995 361.662C89.2548 362.631 88.6823 363.623 87.7126 363.883C86.7532 364.14 85.7512 363.57 85.4913 362.6Z" fill="#AFF1FF"/>
<path opacity="0.85" d="M158.899 157.536C159.159 158.506 158.586 159.497 157.616 159.757C156.647 160.017 155.655 159.445 155.395 158.475C155.135 157.505 155.708 156.513 156.678 156.254C157.65 156.004 158.642 156.577 158.899 157.536Z" fill="#AFF1FF"/>
<path opacity="0.85" d="M480.28 112.833C480.54 113.803 479.964 114.784 478.994 115.044C478.025 115.304 477.033 114.731 476.776 113.772C476.519 112.813 477.089 111.811 478.058 111.551C479.028 111.291 480.02 111.864 480.28 112.833Z" fill="#AFF1FF"/>
<path opacity="0.25" d="M427.76 63.2848C427.952 64.0043 427.528 64.7551 426.798 64.9507C426.068 65.1463 425.327 64.7188 425.132 63.9889C424.939 63.2694 425.364 62.5186 426.094 62.323C426.824 62.1274 427.567 62.5653 427.76 63.2848Z" fill="#AFF1FF"/>
<path opacity="0.25" d="M410.678 79.2319C410.871 79.9514 410.447 80.7023 409.717 80.8979C408.987 81.0934 408.246 80.666 408.051 79.936C407.858 79.2165 408.283 78.4657 409.013 78.2701C409.742 78.0746 410.486 78.5125 410.678 79.2319Z" fill="#AFF1FF"/>
<path opacity="0.25" d="M405.293 127.653C406.019 127.459 406.45 126.713 406.255 125.987C406.061 125.261 405.315 124.831 404.589 125.025C403.864 125.22 403.433 125.966 403.627 126.691C403.822 127.417 404.568 127.847 405.293 127.653Z" fill="#AFF1FF"/>
<path opacity="0.25" d="M327.738 130.461C327.93 131.181 327.506 131.932 326.776 132.127C326.056 132.32 325.305 131.895 325.11 131.165C324.917 130.446 325.342 129.695 326.072 129.5C326.802 129.304 327.542 129.731 327.738 130.461Z" fill="#AFF1FF"/>
<path opacity="0.5" d="M302.747 56.8753C303.007 57.845 302.435 58.8366 301.465 59.0965C300.495 59.3563 299.504 58.7838 299.244 57.8141C298.984 56.8443 299.556 55.8527 300.526 55.5929C301.496 55.333 302.488 55.9055 302.747 56.8753Z" fill="#AFF1FF"/>
<path opacity="0.85" d="M352.325 91.2139C352.584 92.1837 352.012 93.1753 351.042 93.4351C350.072 93.6949 349.081 93.1224 348.821 92.1527C348.561 91.1829 349.134 90.1913 350.103 89.9315C351.076 89.6821 352.068 90.2546 352.325 91.2139Z" fill="#AFF1FF"/>
<path opacity="0.5" d="M239.034 105.006C239.293 105.975 238.721 106.967 237.751 107.227C236.781 107.487 235.79 106.914 235.53 105.944C235.27 104.975 235.843 103.983 236.812 103.723C237.785 103.474 238.777 104.046 239.034 105.006Z" fill="#AFF1FF"/>
<path opacity="0.85" d="M116.306 91.3032C116.565 92.2729 115.993 93.2646 115.023 93.5244C114.053 93.7842 113.062 93.2117 112.802 92.242C112.542 91.2722 113.115 90.2806 114.084 90.0208C115.054 89.7609 116.046 90.3334 116.306 91.3032Z" fill="#AFF1FF"/>
<path opacity="0.25" d="M81.7176 170.5C81.9103 171.22 81.4857 171.971 80.7558 172.166C80.0363 172.359 79.2854 171.934 79.0898 171.204C78.8971 170.485 79.3217 169.734 80.0517 169.538C80.7712 169.346 81.522 169.77 81.7176 170.5Z" fill="#AFF1FF"/>
<path opacity="0.25" d="M39.1244 264.073C39.85 263.878 40.2806 263.133 40.0862 262.407C39.8918 261.681 39.1459 261.251 38.4203 261.445C37.6947 261.64 37.2641 262.385 37.4585 263.111C37.6529 263.837 38.3988 264.267 39.1244 264.073Z" fill="#AFF1FF"/>
<path opacity="0.25" d="M336.047 76.471C336.24 77.1905 335.815 77.9413 335.085 78.1369C334.355 78.3324 333.615 77.905 333.419 77.1751C333.227 76.4556 333.651 75.7047 334.381 75.5092C335.111 75.3136 335.852 75.741 336.047 76.471Z" fill="#AFF1FF"/>
<path opacity="0.85" d="M92.0472 221.001C92.3071 221.971 91.7346 222.962 90.7648 223.222C89.7951 223.482 88.8035 222.91 88.5436 221.94C88.2838 220.97 88.8563 219.978 89.826 219.719C90.7853 219.462 91.7874 220.031 92.0472 221.001Z" fill="#AFF1FF"/>
</svg>
