<svg width="276" height="254" viewBox="0 0 276 254" fill="none" xmlns="http://www.w3.org/2000/svg">
<path opacity="0.2" d="M97.5964 105.043C20.375 136.36 -36.348 177.249 -29.1016 196.398C-21.8482 215.513 46.6317 205.642 123.849 174.31C201.07 142.993 257.804 102.085 250.547 82.9551C243.309 63.836 174.818 73.7262 97.5964 105.043ZM119.184 165.752C71.8852 184.932 18.2622 196.48 12.0611 180.096C5.84504 163.716 52.7569 134.478 100.056 115.298C147.355 96.1176 200.963 84.574 207.179 100.954C213.38 117.338 166.468 146.576 119.184 165.752Z" fill="white"/>
<path d="M194.152 103.355C207.158 151.892 178.358 201.774 129.821 214.779C81.2848 227.785 31.4027 198.985 18.3973 150.449C5.39191 101.912 34.1914 52.0297 82.7281 39.0243C131.265 26.019 181.147 54.8184 194.152 103.355Z" fill="#82ABE5"/>
<path d="M133.402 70.4165C128.872 70.38 124.367 71.0904 119.86 71.4966C109.703 72.4073 99.2765 72.9093 89.4349 75.8349C84.701 77.2475 62.2629 84.9586 68.2222 93.4424C70.165 96.2072 74.8824 96.049 77.8464 96.3446C85.3839 97.0815 93.1618 96.2634 100.167 93.2805C104.783 91.3066 108.726 87.9583 113.548 86.4578C119.125 84.723 124.757 83.1338 130.379 81.5635C131.586 81.224 136.145 80.355 139.963 78.9952C143.547 77.7146 146.477 76.0318 145.425 73.958C143.693 70.5437 136.613 70.4375 133.402 70.4165Z" fill="#82ABE5"/>
<path d="M163.849 56.4727C141.95 38.6216 112.095 31.1556 82.7282 39.0245C57.2337 45.8558 37.1939 62.8765 25.7972 84.5208C44.9239 78.6266 64.3403 73.2156 82.0478 63.7592C86.871 61.1847 91.605 58.2174 97.0171 56.9435C109.349 54.04 121.973 56.4749 134.269 57.7476C142.624 58.6021 154.754 59.7912 163.849 56.4727Z" fill="#BEF3FD"/>
<path d="M176.011 124.707C172.645 125.241 168.837 125.267 165.744 126.881C163.608 127.999 159.994 131.739 163.926 133.314C164.985 133.736 167.458 133.217 168.591 133.138C176.043 132.6 183.745 131.738 191.132 130.656C193.185 130.362 195.209 129.964 197.218 129.506C197.313 125.971 197.204 122.394 196.884 118.81C190.128 121.469 183.176 123.573 176.011 124.707Z" fill="#BEF3FD"/>
<path d="M185.075 144.539C181.552 145.387 145.613 148.526 145.63 153.137C145.655 157.057 145.141 166.506 144.801 169.065C144.458 171.609 136.657 176.648 136.657 176.648C136.657 176.648 131.777 177.459 125.507 180.614C104.968 190.925 75.5961 163.489 59.132 183.687C56.0712 187.456 46.7953 188.963 43.3619 191.342C43.08 191.546 42.8159 191.696 42.5628 191.828C64.7909 213.598 97.5986 223.414 129.822 214.78C165.066 205.336 189.873 176.444 195.863 142.755C192.534 143.07 188.931 143.618 185.075 144.539Z" fill="#BEF3FD"/>
<path d="M92.6812 150.273C87.6399 151.496 81.9751 151.587 77.3353 154.128C74.5969 155.631 70.3845 159.469 75.4361 161.096C78.5584 162.102 82.2357 160.155 85.3905 159.967C89.3779 159.716 93.3573 160.333 97.281 160.98C105.832 162.391 113.596 163.612 121.658 159.128C127.03 156.15 131.955 153.596 134.343 147.556C135.672 144.203 135.312 139.331 137.777 136.507C133.043 135.227 128.278 138.379 124.227 140.426C114.397 145.368 103.317 147.68 92.6812 150.273Z" fill="#82ABE5"/>
<path d="M33.1361 108.501C36.3816 107.455 40.1263 106.836 42.9338 104.754C44.8736 103.321 47.866 99.0572 43.7196 98.1168C42.6115 97.8689 40.2532 98.7572 39.1387 99.0238C32.1216 100.648 24.9263 102.624 18.0264 104.745C17.0866 108.474 16.3921 112.282 15.9351 116.139C21.4298 113.08 27.1494 110.442 33.1361 108.501Z" fill="#E2FAFF"/>
<path d="M22.2865 144.984C28.8306 144.705 29.0647 143.664 37.7522 143.788C46.4397 143.913 58.7907 140.603 60.8139 140.558C62.8372 140.513 66.6352 139.495 68.0706 139.11C69.4911 138.73 80.9001 135.673 84.6981 134.655C88.4961 133.637 111.778 127.399 113.677 126.89C115.576 126.381 127.682 122.16 131.356 120.679C135.03 119.197 144.405 116.205 144.405 116.205C144.405 116.205 145.362 115.948 154.966 111.9C164.571 107.852 175.013 103.099 179.888 104.245C182.606 104.879 188.769 103.836 194.041 102.937C192.705 98.0701 190.989 93.4014 188.962 88.9445L165.115 89.0678L143.28 96.8738C143.28 96.8738 132.643 106.583 129.572 108.4C126.497 110.201 121.622 111.027 119.245 111.664C116.867 112.301 103.808 114.822 103.808 114.822C103.808 114.822 93.7001 115.079 85.1471 117.37C76.5941 119.662 56.8812 123.967 54.2696 125.644C51.658 127.321 45.019 129.1 43.5835 129.485C42.3275 129.822 22.1562 135.226 15.8461 136.917C16.1697 139.86 16.6509 142.792 17.2786 145.733C18.5037 145.34 20.0051 145.082 22.2865 144.984Z" fill="#E2FAFF"/>
<path d="M72.2945 108.105C72.8795 110.288 68.4029 113.379 62.3171 115.009C56.2164 116.644 50.8092 116.202 50.2242 114.019C49.6393 111.836 54.1159 108.745 60.2017 107.114C66.3024 105.48 71.7096 105.922 72.2945 108.105Z" fill="#82ABE5"/>
<path d="M174.346 114.784C174.718 116.175 171.864 118.142 167.976 119.184C164.088 120.225 160.633 119.949 160.26 118.559C159.887 117.168 162.742 115.201 166.63 114.16C170.517 113.118 173.977 113.409 174.346 114.784Z" fill="#82ABE5"/>
<path d="M50.1864 153.95C50.559 155.341 47.7044 157.308 43.8167 158.349C39.929 159.391 36.4735 159.115 36.1008 157.724C35.7282 156.334 38.5828 154.367 42.4705 153.325C46.3582 152.284 49.8137 152.56 50.1864 153.95Z" fill="#82ABE5"/>
<path d="M172.251 76.2254C172.572 77.4216 170.111 79.1227 166.762 80.0202C163.397 80.9217 160.43 80.6749 160.11 79.4787C159.789 78.2825 162.25 76.5813 165.6 75.6839C168.949 74.7864 171.931 75.0291 172.251 76.2254Z" fill="#82ABE5"/>
<path d="M138.474 165.247C138.795 166.444 136.334 168.145 132.984 169.042C129.62 169.944 126.653 169.697 126.332 168.501C126.012 167.304 128.473 165.603 131.822 164.706C135.172 163.808 138.15 164.036 138.474 165.247Z" fill="#82ABE5"/>
<path d="M41.8232 87.3904C42.1437 88.5866 39.6827 90.2877 36.3333 91.1852C32.969 92.0867 30.0021 91.84 29.6815 90.6437C29.361 89.4475 31.822 87.7464 35.1714 86.8489C38.5208 85.9514 41.5027 86.1942 41.8232 87.3904Z" fill="#82ABE5"/>
<path opacity="0.2" d="M53.1591 200.752C74.5509 216.111 102.398 222.127 129.822 214.779C178.358 201.774 207.158 151.892 194.152 103.355C188.816 83.438 177.275 66.8658 162.155 55.1153C147.152 99.9063 110.787 187.763 53.1591 200.752Z" fill="white"/>
<path opacity="0.2" d="M63.0714 206.943C82.7993 217.587 106.45 221.042 129.822 214.779C178.358 201.774 207.158 151.892 194.152 103.355C193.391 100.514 192.492 97.758 191.497 95.0598C174.442 137.933 136.208 204.702 63.0714 206.943Z" fill="white"/>
<path opacity="0.3" d="M119.875 52.053C137.892 69.2935 132.748 103.926 108.386 129.397C84.0087 154.872 49.6422 161.549 31.6206 144.293C13.603 127.053 18.7468 92.4199 43.1091 66.9489C67.4864 41.4739 101.857 34.8126 119.875 52.053Z" fill="url(#paint0_linear_82_2701)"/>
<path opacity="0.3" d="M92.2532 56.986C103.027 67.2888 98.869 89.093 82.9939 105.687C67.1188 122.281 45.5192 127.379 34.7644 117.088C23.9906 106.785 28.1337 84.9846 44.0237 68.3866C59.8838 51.7966 81.4794 46.6832 92.2532 56.986Z" fill="white"/>
<path opacity="0.1" d="M250.547 82.9559C246.453 72.1614 222.864 70.6131 189.22 76.9355C191.008 82.354 192.461 87.8946 193.509 93.4795C200.668 94.3016 205.563 96.66 207.179 100.955C213.395 117.335 166.468 146.576 119.184 165.753C71.8853 184.933 18.2622 196.481 12.0612 180.097C10.5997 176.257 12.093 171.722 15.7836 166.775C12.638 162.153 10.5868 156.292 9.20794 150.668C-17.9331 168.998 -33.0698 185.955 -29.1015 196.399C-21.8481 215.514 46.6318 205.643 123.849 174.311C201.071 142.994 257.79 102.09 250.547 82.9559Z" fill="white"/>
<defs>
<linearGradient id="paint0_linear_82_2701" x1="48.4725" y1="78.1993" x2="105.537" y2="119.211" gradientUnits="userSpaceOnUse">
<stop stop-color="white"/>
<stop offset="1" stop-color="white" stop-opacity="0"/>
</linearGradient>
</defs>
</svg>
