<svg width="1798" height="1129" viewBox="0 0 1798 1129" fill="none" xmlns="http://www.w3.org/2000/svg">
<g opacity="0.35">
<path d="M1930.51 516.235C1930.51 516.235 1815.19 303.1 1697.24 313.778C1555.34 326.626 1642.81 685.767 1506.98 723.235C1362.81 763.004 1178.25 164.504 1060.88 195.953C934.476 229.822 1047.5 723.862 928.345 784.764C801.621 849.534 658.372 589.774 550.622 621.014C433.672 654.921 448.943 873.946 327.855 891.114C206.768 908.282 163.872 823.827 47.859 755.729C-12.0496 720.564 -122.191 692.193 -122.191 692.193" stroke="url(#paint0_linear_82_2982)" stroke-width="4" stroke-linecap="round"/>
<circle r="11" transform="matrix(1 0 0 -1 1634 360)" fill="url(#paint1_linear_82_2982)" stroke="white" stroke-width="4"/>
</g>
<defs>
<linearGradient id="paint0_linear_82_2982" x1="828.762" y1="322.83" x2="-283.431" y2="1776.46" gradientUnits="userSpaceOnUse">
<stop stop-color="#438AF9"/>
<stop offset="1" stop-color="#2D3ED5"/>
</linearGradient>
<linearGradient id="paint1_linear_82_2982" x1="9" y1="1.8" x2="28.4054" y2="6.39992" gradientUnits="userSpaceOnUse">
<stop stop-color="#438AF9"/>
<stop offset="1" stop-color="#2D3ED5"/>
</linearGradient>
</defs>
</svg>
