<svg width="16" height="16" viewBox="0 0 16 16" fill="none" xmlns="http://www.w3.org/2000/svg">
<path d="M8.07926 0H2.64028C1.18808 0 0 1.18808 0 2.64028V8.07926C0 9.53146 1.18808 10.7195 2.64028 10.7195H8.07926C9.53146 10.7195 10.7195 9.53146 10.7195 8.07926V2.64028C10.7195 1.18808 9.53146 0 8.07926 0ZM9.66352 8.07926C9.66352 8.95055 8.95059 9.66352 8.07926 9.66352H2.64028C1.76899 9.66352 1.05602 8.95059 1.05602 8.07926V2.64028C1.05602 1.76899 1.76894 1.05602 2.64028 1.05602H8.07926C8.95055 1.05602 9.66352 1.76894 9.66352 2.64028V8.07926Z" fill="#375786"/>
<path d="M13.3586 14.944H7.91958C7.04828 14.944 6.33531 14.2311 6.33531 13.3598V12.3038H5.2793V13.3598C5.2793 14.812 6.46738 16.0001 7.91958 16.0001H13.3586C14.8108 16.0001 15.9988 14.812 15.9988 13.3598V7.9208C15.9988 6.4686 14.8108 5.28052 13.3586 5.28052H12.3025V6.33654H13.3586C14.2298 6.33654 14.9428 7.04946 14.9428 7.9208V13.3598C14.9428 14.2311 14.2299 14.944 13.3586 14.944V14.944Z" fill="#375786"/>
</svg>
