<svg width="214" height="214" viewBox="0 0 214 214" fill="none" xmlns="http://www.w3.org/2000/svg">
<path d="M127.015 192.915C174.661 181.665 204.166 133.919 192.915 86.272C181.665 38.6253 133.919 9.12051 86.272 20.3712C38.6253 31.622 9.12052 79.3678 20.3713 127.015C31.622 174.661 79.3678 204.166 127.015 192.915Z" fill="#E6E7E8"/>
<path d="M117.196 132.3C117.196 144.353 126.961 154.117 139.014 154.117C151.067 154.117 160.831 144.353 160.831 132.3C160.831 120.246 151.067 110.482 139.014 110.482C126.961 110.482 117.196 120.246 117.196 132.3Z" fill="#D1D3D4"/>
<path d="M158.624 65.8949C158.624 59.1288 153.134 53.6187 146.347 53.6187C139.561 53.6187 134.071 59.1086 134.071 65.8949C134.071 72.6812 139.561 78.1711 146.347 78.1711C153.134 78.1711 158.624 72.6812 158.624 65.8949Z" fill="#A7A9AC"/>
<path d="M166.889 113.885C166.889 127.357 175.437 138.802 187.369 143.219C192.434 132.057 195.27 119.699 195.27 106.653C195.27 98.5301 194.156 90.6903 192.11 83.2152C177.747 86.0311 166.889 98.6921 166.889 113.885Z" fill="#D1D3D4"/>
<path d="M47.2261 129.14C47.2261 126.405 45.018 124.197 42.2832 124.197C39.5484 124.197 37.3403 126.405 37.3403 129.14C37.3403 131.874 39.5484 134.082 42.2832 134.082C45.018 134.082 47.2261 131.874 47.2261 129.14Z" fill="#D1D3D4"/>
<path d="M163.567 92.0679C163.567 89.3331 161.359 87.125 158.624 87.125C155.889 87.125 153.681 89.3331 153.681 92.0679C153.681 94.8026 155.889 97.0107 158.624 97.0107C161.359 97.0107 163.567 94.8026 163.567 92.0679Z" fill="#D1D3D4"/>
<path d="M52.3516 151.403C52.3516 158.189 57.8414 163.679 64.6277 163.679C71.4141 163.679 76.9039 158.189 76.9039 151.403C76.9039 144.616 71.4141 139.127 64.6277 139.127C57.8414 139.127 52.3516 144.616 52.3516 151.403Z" fill="#D1D3D4"/>
<path d="M99.5518 47.3186C99.5518 51.6537 103.056 55.1583 107.392 55.1583C111.727 55.1583 115.231 51.6537 115.231 47.3186C115.231 42.9834 111.727 39.4788 107.392 39.4788C103.056 39.4788 99.5518 43.0037 99.5518 47.3186Z" fill="#D1D3D4"/>
<path d="M135.651 190.419C133.119 175.671 120.316 164.449 104.859 164.449C89.8279 164.449 77.2884 175.064 74.27 189.183C84.2976 193.134 95.2165 195.301 106.642 195.301C116.791 195.281 126.555 193.559 135.651 190.419Z" fill="#A7A9AC"/>
<path d="M56.5251 104.607C65.7424 104.607 73.2377 97.1323 73.2377 87.8947C73.2377 78.6775 65.7626 71.1821 56.5251 71.1821C47.3079 71.1821 39.8125 78.6572 39.8125 87.8947C39.8125 97.112 47.2876 104.607 56.5251 104.607Z" fill="#A7A9AC"/>
<path d="M108.262 89.7788C108.262 87.044 106.054 84.8359 103.319 84.8359C100.585 84.8359 98.3765 87.044 98.3765 89.7788C98.3765 92.5135 100.585 94.7216 103.319 94.7216C106.054 94.7216 108.262 92.5135 108.262 89.7788Z" fill="#D1D3D4"/>
<path d="M92.5634 124.885C88.2282 124.885 84.7236 128.39 84.7236 132.725C84.7236 137.06 88.2282 140.565 92.5634 140.565C96.8985 140.565 100.403 137.06 100.403 132.725C100.403 128.39 96.8985 124.885 92.5634 124.885Z" fill="#D1D3D4"/>
<path opacity="0.1" d="M178.293 54.4898C153.883 91.6424 98.6602 164.894 41.5132 166.758C57.6991 184.301 80.8942 195.281 106.642 195.281C155.605 195.281 195.29 155.596 195.29 106.633C195.269 87.1452 188.969 69.1361 178.293 54.4898Z" fill="#212A3C"/>
<path opacity="0.1" d="M195.107 101.285C169.096 136.29 118.675 187.583 52.3711 176.725C67.3618 188.353 86.1812 195.301 106.642 195.301C155.604 195.301 195.289 155.616 195.289 106.653C195.269 104.85 195.208 103.068 195.107 101.285Z" fill="#212A3C"/>
<path opacity="0.5" d="M134.496 39.2965C146.225 58.6021 133.605 87.6719 106.338 104.222C79.071 120.793 47.4488 118.565 35.7398 99.2594C24.0106 79.974 36.6311 50.9042 63.898 34.3334C91.1649 17.7828 122.787 19.9909 134.496 39.2965Z" fill="url(#paint0_linear_82_2514)"/>
<path opacity="0.3" d="M109.194 37.129C116.183 48.6556 107.472 66.7458 89.6859 77.5431C71.9199 88.3405 51.8445 87.7328 44.8353 76.2061C37.8261 64.6795 46.5572 46.5893 64.3232 35.792C82.1095 25.0149 102.185 25.6023 109.194 37.129Z" fill="white"/>
<defs>
<linearGradient id="paint0_linear_82_2514" x1="65.9497" y1="45.4215" x2="106.232" y2="94.645" gradientUnits="userSpaceOnUse">
<stop stop-color="white"/>
<stop offset="1" stop-color="white" stop-opacity="0"/>
</linearGradient>
</defs>
</svg>
