<svg width="24" height="24" viewBox="0 0 24 24" fill="none" xmlns="http://www.w3.org/2000/svg">
  <path d="M20.6476 2.67432L13.1523 8.24117L14.5384 4.9568L20.6476 2.67432Z" fill="#E2761B" stroke="#E2761B" stroke-linecap="round" stroke-linejoin="round"/>
  <path d="M3.34375 2.67432L10.7788 8.2939L9.46051 4.9568L3.34375 2.67432Z" fill="#E4761B" stroke="#E4761B" stroke-linecap="round" stroke-linejoin="round"/>
  <path d="M17.9494 15.5781L15.9531 18.6365L20.2243 19.8116L21.4522 15.6459L17.9494 15.5781Z" fill="#E4761B" stroke="#E4761B" stroke-linecap="round" stroke-linejoin="round"/>
  <path d="M2.55273 15.6462L3.77307 19.8119L8.04426 18.6367L6.04803 15.5784L2.55273 15.6462Z" fill="#E4761B" stroke="#E4761B" stroke-linecap="round" stroke-linejoin="round"/>
  <path d="M7.80349 10.4105L6.61328 12.2109L10.8543 12.3992L10.7037 7.8418L7.80349 10.4105Z" fill="#E4761B" stroke="#E4761B" stroke-linecap="round" stroke-linejoin="round"/>
  <path d="M16.1881 10.4105L13.2503 7.78906L13.1523 12.3992L17.3859 12.2109L16.1881 10.4105Z" fill="#E4761B" stroke="#E4761B" stroke-linecap="round" stroke-linejoin="round"/>
  <path d="M8.04492 18.6367L10.5911 17.3938L8.39144 15.6763L8.04492 18.6367Z" fill="#E4761B" stroke="#E4761B" stroke-linecap="round" stroke-linejoin="round"/>
  <path d="M13.4004 17.3938L15.9541 18.6367L15.6 15.6763L13.4004 17.3938Z" fill="#E4761B" stroke="#E4761B" stroke-linecap="round" stroke-linejoin="round"/>
  <path d="M15.9541 18.6365L13.4004 17.3936L13.6038 19.0583L13.5812 19.7589L15.9541 18.6365Z" fill="#D7C1B3" stroke="#D7C1B3" stroke-linecap="round" stroke-linejoin="round"/>
  <path d="M8.04492 18.6365L10.4178 19.7589L10.4027 19.0583L10.5911 17.3936L8.04492 18.6365Z" fill="#D7C1B3" stroke="#D7C1B3" stroke-linecap="round" stroke-linejoin="round"/>
  <path d="M10.4563 14.5764L8.33203 13.9511L9.83109 13.2656L10.4563 14.5764Z" fill="#233447" stroke="#233447" stroke-linecap="round" stroke-linejoin="round"/>
  <path d="M13.5371 14.5764L14.1623 13.2656L15.6689 13.9511L13.5371 14.5764Z" fill="#233447" stroke="#233447" stroke-linecap="round" stroke-linejoin="round"/>
  <path d="M8.04506 18.6365L8.40665 15.5781L6.04883 15.6459L8.04506 18.6365Z" fill="#CD6116" stroke="#CD6116" stroke-linecap="round" stroke-linejoin="round"/>
  <path d="M15.5938 15.5781L15.9553 18.6365L17.9516 15.6459L15.5938 15.5781Z" fill="#CD6116" stroke="#CD6116" stroke-linecap="round" stroke-linejoin="round"/>
  <path d="M17.3859 12.2109L13.1523 12.3993L13.5441 14.5763L14.1693 13.2656L15.6759 13.951L17.3859 12.2109Z" fill="#CD6116" stroke="#CD6116" stroke-linecap="round" stroke-linejoin="round"/>
  <path d="M8.3308 13.951L9.83739 13.2656L10.4551 14.5763L10.8543 12.3993L6.61328 12.2109L8.3308 13.951Z" fill="#CD6116" stroke="#CD6116" stroke-linecap="round" stroke-linejoin="round"/>
  <path d="M6.61328 12.2109L8.39106 15.6761L8.33079 13.951L6.61328 12.2109Z" fill="#E4751F" stroke="#E4751F" stroke-linecap="round" stroke-linejoin="round"/>
  <path d="M15.6749 13.951L15.5996 15.6761L17.3849 12.2109L15.6749 13.951Z" fill="#E4751F" stroke="#E4751F" stroke-linecap="round" stroke-linejoin="round"/>
  <path d="M10.8543 12.3992L10.4551 14.5762L10.9523 17.1449L11.0652 13.7626L10.8543 12.3992Z" fill="#E4751F" stroke="#E4751F" stroke-linecap="round" stroke-linejoin="round"/>
  <path d="M13.1526 12.3994L12.9492 13.7553L13.0396 17.1452L13.5443 14.5764L13.1526 12.3994Z" fill="#E4751F" stroke="#E4751F" stroke-linecap="round" stroke-linejoin="round"/>
  <path d="M13.5438 14.5764L13.0391 17.1452L13.4006 17.3937L15.6003 15.6762L15.6756 13.9512L13.5438 14.5764Z" fill="#F6851B" stroke="#F6851B" stroke-linecap="round" stroke-linejoin="round"/>
  <path d="M8.33203 13.9512L8.3923 15.6762L10.5919 17.3937L10.9535 17.1452L10.4563 14.5764L8.33203 13.9512Z" fill="#F6851B" stroke="#F6851B" stroke-linecap="round" stroke-linejoin="round"/>
  <path d="M13.5816 19.7589L13.6042 19.0583L13.4159 18.8926H10.576L10.4027 19.0583L10.4178 19.7589L8.04492 18.6365L8.87355 19.3144L10.5534 20.4821H13.4385L15.1259 19.3144L15.9545 18.6365L13.5816 19.7589Z" fill="#C0AD9E" stroke="#C0AD9E" stroke-linecap="round" stroke-linejoin="round"/>
  <path d="M13.4005 17.3936L13.0389 17.145H10.9522L10.5907 17.3936L10.4023 19.0584L10.5756 18.8927H13.4155L13.6039 19.0584L13.4005 17.3936Z" fill="#161616" stroke="#161616" stroke-linecap="round" stroke-linejoin="round"/>
  <path d="M20.9635 8.60275L21.6038 5.52931L20.6471 2.67432L13.4004 8.05285L16.1876 10.4107L20.1273 11.5632L21.0011 10.5463L20.6245 10.2751L21.2271 9.72517L20.7601 9.36358L21.3627 8.90407L20.9635 8.60275Z" fill="#763D16" stroke="#763D16" stroke-linecap="round" stroke-linejoin="round"/>
  <path d="M2.39453 5.52931L3.03483 8.60275L2.62805 8.90407L3.23069 9.36358L2.77118 9.72517L3.37382 10.2751L2.99717 10.5463L3.86346 11.5632L7.8032 10.4107L10.5904 8.05285L3.34368 2.67432L2.39453 5.52931Z" fill="#763D16" stroke="#763D16" stroke-linecap="round" stroke-linejoin="round"/>
  <path d="M20.1289 11.5632L16.1891 10.4106L17.3869 12.211L15.6016 15.6762L17.9518 15.646H21.4547L20.1289 11.5632Z" fill="#F6851B" stroke="#F6851B" stroke-linecap="round" stroke-linejoin="round"/>
  <path d="M7.80321 10.4106L3.86347 11.5632L2.55273 15.646H6.04803L8.39078 15.6762L6.613 12.211L7.80321 10.4106Z" fill="#F6851B" stroke="#F6851B" stroke-linecap="round" stroke-linejoin="round"/>
  <path d="M13.1521 12.3991L13.4007 8.05259L14.5457 4.95654H9.46094L10.5909 8.05259L10.8545 12.3991L10.9449 13.7701L10.9525 17.1449H13.0391L13.0542 13.7701L13.1521 12.3991Z" fill="#F6851B" stroke="#F6851B" stroke-linecap="round" stroke-linejoin="round"/>
</svg>
