<svg width="768" height="1201" viewBox="0 0 768 1201" fill="none" xmlns="http://www.w3.org/2000/svg">
<g style="mix-blend-mode:screen" opacity="0.03">
<path d="M1018.82 0C856.552 72.2383 548.113 212.422 383.147 306.307C152.471 437.543 -168.618 550.705 -191.221 609.552C-213.825 668.4 -114.329 663.866 -272.64 718.18C-430.951 772.494 -856.062 1066.67 -1046.03 1148.16C-1081.91 1163.56 -1117.65 1181.69 -1152 1201H-749.462C-674.878 1141.73 -610.007 1092.37 -575.653 1071.21C-458.081 998.787 -168.619 858.513 -105.306 826.808C-41.9937 795.132 -73.6497 763.427 -10.3373 709.113C52.9752 654.799 455.483 491.857 631.9 387.733C745.125 320.929 944.026 213.082 1072 144.447V0H1018.82Z" fill="url(#paint0_linear_502_39)"/>
</g>
<g style="mix-blend-mode:screen" opacity="0.15">
<path d="M303.103 428.592C436.709 352.563 686.508 239.04 818.017 180.5H860.5V296.725C756.801 352.337 595.828 439.613 504.155 493.695C434.682 534.694 321.906 586.96 218.432 634.916L209.645 638.988C156.74 663.511 106.69 686.777 66.6608 706.662C46.6461 716.605 29.131 725.705 15.0134 733.697C0.903748 741.684 -9.83936 748.58 -16.2912 754.114C-40.6771 775.031 -47.7485 791.849 -53.8839 806.441C-54.2247 807.251 -54.5626 808.055 -54.9004 808.852C-58.1042 816.411 -61.2868 823.344 -66.8467 829.987C-72.4039 836.627 -80.3596 843.005 -93.1381 849.398C-100.92 853.294 -112.922 859.217 -128.017 866.666C-212.401 908.304 -393.448 997.64 -474.276 1047.42L-474.056 1047.78L-474.276 1047.42C-502.121 1064.57 -554.649 1104.54 -615.018 1152.5H-939.086C-911.775 1137.22 -883.414 1122.87 -854.94 1110.65C-782.093 1079.4 -666.617 1009.6 -551.605 940.072C-545.046 936.107 -538.488 932.143 -531.94 928.187C-471.246 891.519 -411.362 855.544 -358.635 825.985C-305.899 796.422 -260.355 773.297 -228.335 762.312C-196.267 751.312 -177.208 743.276 -166.389 736.656C-160.98 733.346 -157.588 730.364 -155.668 727.506C-153.733 724.625 -153.306 721.887 -153.786 719.128C-154.259 716.402 -155.615 713.672 -157.188 710.789C-157.491 710.234 -157.802 709.674 -158.117 709.105C-159.453 706.695 -160.868 704.142 -162.063 701.315C-164.998 694.368 -166.586 685.793 -162.061 674.013C-159.823 668.187 -153.849 661.611 -144.629 654.343C-135.426 647.088 -123.056 639.195 -108.122 630.72C-78.2557 613.771 -38.1947 594.526 7.15295 573.441C22.0444 566.517 37.5053 559.395 53.361 552.091C134.056 514.918 224.978 473.034 303.103 428.592Z" stroke="url(#paint1_linear_502_39)"/>
</g>
<defs>
<linearGradient id="paint0_linear_502_39" x1="-402.356" y1="858.525" x2="641.428" y2="261.182" gradientUnits="userSpaceOnUse">
<stop stop-color="#051345"/>
<stop offset="0.15625" stop-color="#051345"/>
<stop offset="0.3477" stop-color="#848484"/>
<stop offset="0.4966" stop-color="#B0B0B0"/>
<stop offset="0.6393" stop-color="#D3D3D3"/>
<stop offset="0.774" stop-color="#EBEBEB"/>
<stop offset="0.8977" stop-color="#FAFAFA"/>
<stop offset="1" stop-color="#051345"/>
</linearGradient>
<linearGradient id="paint1_linear_502_39" x1="-40" y1="180" x2="-40" y2="1153" gradientUnits="userSpaceOnUse">
<stop stop-color="#097EF4"/>
<stop offset="1" stop-color="white" stop-opacity="0"/>
</linearGradient>
</defs>
</svg>
