<svg width="227" height="171" viewBox="0 0 227 171" fill="none" xmlns="http://www.w3.org/2000/svg">
<path opacity="0.2" d="M114.893 69.8054C59.3726 62.0765 12.5748 66.8187 10.3557 80.4115C8.15198 93.987 51.3663 111.269 106.889 118.988C162.409 126.717 209.219 121.967 211.426 108.382C213.639 94.8091 170.412 77.5343 114.893 69.8054ZM107.05 112.433C73.0437 107.698 37.9207 96.3898 39.8188 84.7593C41.7069 73.1261 78.8701 71.8719 112.876 76.6068C146.882 81.3417 181.995 92.6476 180.107 104.281C178.209 115.911 141.046 117.165 107.05 112.433Z" fill="white"/>
<path d="M171.711 101.298C162.962 133.948 129.407 153.321 96.7568 144.573C64.1067 135.824 44.7335 102.269 53.4821 69.6187C62.2307 36.9685 95.7859 17.5954 128.436 26.344C161.086 35.0926 180.459 68.6478 171.711 101.298Z" fill="#82ABE5"/>
<path d="M147.398 61.6756C144.772 60.131 141.908 59.0295 139.146 57.7503C132.923 54.8645 126.68 51.65 119.962 50.0442C116.729 49.2749 101.064 46.2202 101.682 53.1669C101.884 55.4311 104.685 56.9256 106.313 58.0947C110.456 61.0592 115.262 63.1987 120.347 63.8172C123.7 64.2197 127.123 63.5953 130.437 64.3431C134.269 65.2084 138.085 66.1768 141.888 67.1527C142.705 67.3609 145.654 68.3881 148.335 68.8803C150.854 69.3395 153.127 69.3449 153.211 67.7827C153.351 65.2111 149.262 62.7679 147.398 61.6756Z" fill="#82ABE5"/>
<path d="M169.826 63.7933C163.072 46.0282 148.191 31.6374 128.436 26.344C111.287 21.7487 93.8872 24.9242 79.9679 33.7002C93.093 36.6996 106.224 40.078 119.721 40.5248C123.396 40.6472 127.152 40.5109 130.734 41.5891C138.894 44.0452 145.43 49.7098 152.165 54.5871C156.745 57.8949 163.411 62.6675 169.826 63.7933Z" fill="#BEF3FD"/>
<path d="M153.961 107.635C151.82 106.814 149.593 105.549 147.248 105.448C145.628 105.381 142.265 106.345 144.026 108.585C144.5 109.186 146.116 109.716 146.802 110.051C151.325 112.244 156.102 114.332 160.769 116.187C162.063 116.706 163.377 117.155 164.701 117.564C165.945 115.536 167.085 113.416 168.104 111.22C163.274 110.497 158.516 109.384 153.961 107.635Z" fill="#BEF3FD"/>
<path d="M152.571 122.237C150.233 121.546 128.24 111.287 126.699 113.979C125.395 116.271 121.918 121.603 120.86 122.979C119.803 124.346 113.564 124.658 113.564 124.658C113.564 124.658 110.449 123.489 105.735 123.217C90.3013 122.316 82.4183 96.4539 66.0336 102.683C62.9828 103.849 57.0718 101.607 54.2716 101.838C54.0388 101.862 53.8343 101.861 53.6424 101.853C59.2697 122.011 75.0809 138.764 96.7572 144.573C120.465 150.925 144.635 142.438 159.456 124.826C157.41 123.89 155.127 122.998 152.571 122.237Z" fill="#BEF3FD"/>
<path d="M96.8166 94.5011C93.4685 93.5178 90.1376 91.6658 86.5798 91.5857C84.479 91.5403 80.7343 92.3588 83.1299 95.006C84.6104 96.6424 87.4074 96.7451 89.3086 97.6965C91.716 98.8914 93.827 100.589 95.895 102.286C100.402 105.984 104.514 109.307 110.719 109.406C114.85 109.478 118.578 109.647 122.001 106.931C123.903 105.424 125.332 102.465 127.718 101.649C125.39 99.3114 121.555 99.5449 118.506 99.3749C111.117 98.9475 103.885 96.5676 96.8166 94.5011Z" fill="#82ABE5"/>
<path d="M76.1774 50.1386C78.42 50.6209 80.8096 51.52 83.1456 51.2511C84.7577 51.0685 87.935 49.5912 85.8357 47.6488C85.2735 47.1316 83.6009 46.856 82.862 46.6364C78.2279 45.2222 73.3715 43.9533 68.6384 42.8683C66.8365 44.7249 65.1511 46.7098 63.5877 48.8028C67.8176 48.8689 72.037 49.2556 76.1774 50.1386Z" fill="#E2FAFF"/>
<path d="M57.5858 67.7427C61.4921 69.7812 61.9783 69.2539 66.9976 72.2483C72.0169 75.2426 80.3253 77.4688 81.5192 78.123C82.7131 78.7771 85.2679 79.4616 86.2336 79.7204C87.1891 79.9764 94.8638 82.0329 97.4187 82.7174C99.9736 83.402 115.635 87.5984 116.912 87.9407C118.19 88.283 126.663 89.8957 129.301 90.2684C131.939 90.6412 138.407 92.0509 138.407 92.0509C138.407 92.0509 139.051 92.2234 146.008 93.0957C152.965 93.968 160.647 94.711 163.101 97.0181C164.471 98.3016 168.413 99.7673 171.786 101.016C172.645 97.7318 173.216 94.4349 173.534 91.1565L159.6 83.2077L144.254 80.411C144.254 80.411 134.792 82.4898 132.392 82.5151C129.994 82.5304 126.877 81.3715 125.277 80.943C123.678 80.5145 115.222 77.5911 115.222 77.5911C115.222 77.5911 109.247 74.3407 103.494 72.7991C97.7403 71.2574 84.8085 67.1347 82.7229 67.2335C80.6373 67.3323 76.1712 66.1356 75.2056 65.8769C74.3607 65.6505 60.7917 62.0147 56.5469 60.8773C55.7458 62.7002 55.0399 64.5702 54.4165 66.4946C55.2621 66.6781 56.2236 67.0327 57.5858 67.7427Z" fill="#E2FAFF"/>
<path d="M99.1232 63.0789C98.7297 64.5474 95.0823 64.8422 90.9885 63.7453C86.8846 62.6456 83.8833 60.5693 84.2768 59.1007C84.6702 57.6322 88.3177 57.3374 92.4115 58.4343C96.5154 59.534 99.5167 61.6103 99.1232 63.0789Z" fill="#82ABE5"/>
<path d="M156.328 101.294C156.077 102.23 153.752 102.415 151.137 101.715C148.522 101.014 146.602 99.6909 146.852 98.7554C147.103 97.82 149.428 97.6343 152.043 98.335C154.658 99.0358 156.576 100.369 156.328 101.294Z" fill="#82ABE5"/>
<path d="M70.8237 82.3509C70.573 83.2863 68.2485 83.472 65.6333 82.7713C63.018 82.0705 61.0978 80.7475 61.3485 79.812C61.5991 78.8766 63.9236 78.6908 66.5389 79.3916C69.1541 80.0923 71.0743 81.4154 70.8237 82.3509Z" fill="#82ABE5"/>
<path d="M168.077 78.1266C167.861 78.9313 165.856 79.0946 163.602 78.4909C161.339 77.8845 159.694 76.7428 159.909 75.9381C160.125 75.1335 162.131 74.9702 164.384 75.5739C166.637 76.1776 168.293 77.3219 168.077 78.1266Z" fill="#82ABE5"/>
<path d="M118.457 118.627C118.242 119.432 116.236 119.595 113.983 118.991C111.72 118.385 110.074 117.243 110.29 116.439C110.505 115.634 112.511 115.471 114.764 116.074C117.018 116.678 118.676 117.812 118.457 118.627Z" fill="#82ABE5"/>
<path d="M88.3388 40.7623C88.1232 41.5669 86.1173 41.7302 83.8642 41.1265C81.601 40.5201 79.9556 39.3784 80.1712 38.5738C80.3868 37.7691 82.3927 37.6058 84.6458 38.2095C86.8989 38.8132 88.5544 39.9576 88.3388 40.7623Z" fill="#82ABE5"/>
<path opacity="0.2" d="M56.814 110.616C64.1103 126.758 78.3095 139.63 96.757 144.573C129.407 153.321 162.962 133.948 171.711 101.298C175.301 87.8999 174.152 74.3641 169.296 62.433C145.49 83.4806 94.755 122.432 56.814 110.616Z" fill="white"/>
<path opacity="0.2" d="M60.5061 117.556C68.4188 130.392 81.0351 140.36 96.7567 144.573C129.407 153.321 162.962 133.948 171.711 101.298C172.223 99.3868 172.626 97.4789 172.954 95.5722C148.598 114.812 103.867 140.85 60.5061 117.556Z" fill="white"/>
<path opacity="0.3" d="M145.694 46.4279C150.392 62.5318 135.747 80.9777 112.987 87.6221C90.217 94.2638 67.9507 86.5942 63.2557 70.4803C58.558 54.3764 73.2032 35.9305 95.963 29.2861C118.733 22.6444 140.996 30.324 145.694 46.4279Z" fill="url(#paint0_linear_82_2676)"/>
<path opacity="0.3" d="M127.943 40.0113C130.754 49.6372 120.998 60.941 106.169 65.2686C91.3392 69.5962 77.0412 65.3015 74.2374 55.6884C71.4262 46.0626 81.1722 34.7561 96.0119 30.4312C110.831 26.1009 125.132 30.3855 127.943 40.0113Z" fill="white"/>
<path opacity="0.1" d="M211.426 108.382C212.672 100.716 199.45 91.8803 177.724 84.2476C176.943 88.0058 175.926 91.7221 174.658 95.328C178.552 98.2151 180.611 101.235 180.107 104.281C178.219 115.914 141.046 117.166 107.05 112.433C73.0442 107.698 37.9212 96.3899 39.8193 84.7594C40.2593 82.0311 42.6545 79.8915 46.4686 78.2506C46.1907 74.4999 46.967 70.3956 48.0555 66.6553C26.0786 68.2053 11.557 72.9928 10.3561 80.4116C8.15246 93.987 51.3667 111.269 106.889 118.988C162.409 126.717 209.21 121.965 211.426 108.382Z" fill="white"/>
<defs>
<linearGradient id="paint0_linear_82_2676" x1="95.3035" y1="37.6441" x2="114.753" y2="80.7295" gradientUnits="userSpaceOnUse">
<stop stop-color="white"/>
<stop offset="1" stop-color="white" stop-opacity="0"/>
</linearGradient>
</defs>
</svg>
