
<svg width="48" height="56" viewBox="0 0 48 56" fill="none" xmlns="http://www.w3.org/2000/svg">
<path d="M46.7376 7.47893L24.5836 0.0942652C24.2033 -0.0314217 23.7953 -0.0314217 23.415 0.0942652L1.26098 7.47893C0.507684 7.73195 0 8.43539 0 9.2311V27.6927C0 47.9816 23.23 55.2354 23.4663 55.3082C23.6398 55.3597 23.8191 55.3857 24 55.3857C24.1809 55.3857 24.3602 55.3597 24.5337 55.3082C24.7698 55.2361 48 47.9825 48 27.6927V9.2311C48 8.43534 47.4923 7.7319 46.7373 7.47893H46.7376ZM44.308 27.6929C44.308 43.6247 27.2663 50.4344 24.0001 51.5917C20.7343 50.4341 3.69233 43.6252 3.69233 27.6929V10.5625L24.0001 3.79271L44.308 10.5625V27.6929Z" fill="url(#paint0_linear_82_2992)"/>
<path d="M16.0744 24.5416C15.3525 23.8196 14.1859 23.8196 13.4639 24.5416C12.7419 25.2636 12.7419 26.4302 13.4639 27.1522L20.8485 34.5368C21.2087 34.8966 21.6814 35.0775 22.154 35.0775C22.6267 35.0775 23.0994 34.8966 23.4591 34.5364L36.3823 21.6133C37.1042 20.8913 37.1042 19.7247 36.3823 19.0027C35.6603 18.2807 34.4937 18.2807 33.7717 19.0027L22.1546 30.6209L16.0744 24.5416Z" fill="url(#paint1_linear_82_2992)"/>
<defs>
<linearGradient id="paint0_linear_82_2992" x1="-1.13011e-07" y1="67.3859" x2="64.3397" y2="55.4274" gradientUnits="userSpaceOnUse">
<stop stop-color="#0066FF"/>
<stop offset="1" stop-color="#2CE0C5"/>
</linearGradient>
<linearGradient id="paint1_linear_82_2992" x1="12.9224" y1="38.6777" x2="43.2912" y2="29.27" gradientUnits="userSpaceOnUse">
<stop stop-color="#0066FF"/>
<stop offset="1" stop-color="#2CE0C5"/>
</linearGradient>
</defs>
</svg>
