<svg width="410" height="429" viewBox="0 0 410 429" fill="none" xmlns="http://www.w3.org/2000/svg">
<rect x="20" y="59" width="370" height="370" rx="83" fill="url(#paint0_linear_217_646)"/>
<g opacity="0.1">
<g filter="url(#filter0_d_217_646)">
<path d="M152.846 317.518V201.444L166.589 208.453V317.598L152.846 317.518ZM199.762 342.752V227.599L213.505 227.839V342.752H199.762ZM113 296.61V191.07L126.822 184.382V293.526L113 296.61ZM204.017 240.296L114.698 196.878L130.771 189.428L209.98 227.719L204.056 240.296H204.017ZM293.089 203.006L201.144 150.737L206.633 138L299.812 190.83L293.129 203.006H293.089ZM207.107 349L113 296.851L119.674 284.665L213.09 336.463L207.107 349ZM123.702 200.964L113 191.07L206.633 138.24L213.169 150.727L123.702 200.964ZM286.247 296.09V195.677L299.99 190.87V296.13L286.247 296.09ZM207.522 296.901L201.203 284.524L289.88 237.983L296.199 250.369L207.522 296.941V296.901ZM204.56 242.308L198.636 229.732L289.466 185.463L295.389 198.04L204.56 242.308ZM207.117 348.96L201.105 336.413L291.016 285.075L300 295.849L207.117 348.92V348.96Z" fill="url(#paint1_linear_217_646)"/>
</g>
</g>
<path d="M169 299.889C169 289.457 177.457 281 187.889 281H218.111C228.543 281 237 289.457 237 299.889V330.111C237 340.543 228.543 349 218.111 349H187.889C177.457 349 169 340.543 169 330.111V299.889Z" fill="#F7931A"/>
<path d="M215.629 307.758C215.174 303.719 211.634 302.431 207.185 302.131L207.098 296.518L203.656 296.585L203.741 302.05C202.836 302.068 201.911 302.104 200.992 302.14L200.908 296.638L197.467 296.705L197.553 302.317C196.808 302.346 196.076 302.374 195.363 302.389L195.362 302.371L190.614 302.462L190.672 306.111C190.672 306.111 193.213 306.014 193.171 306.061C194.566 306.034 195.032 306.829 195.174 307.52L195.274 313.914C195.37 313.913 195.495 313.914 195.638 313.931C195.523 313.933 195.4 313.935 195.274 313.939L195.412 322.897C195.357 323.334 195.11 324.033 194.136 324.054C194.181 324.092 191.634 324.102 191.634 324.102L191.013 328.195L195.492 328.108C196.326 328.093 197.146 328.091 197.952 328.08L198.041 333.758L201.479 333.691L201.393 328.074C202.337 328.075 203.251 328.065 204.143 328.047L204.228 333.638L207.67 333.571L207.583 327.904C213.365 327.462 217.393 325.936 217.813 320.532C218.152 316.18 216.063 314.282 212.766 313.563C214.746 312.516 215.967 310.714 215.629 307.758V307.758ZM211.001 319.991C211.068 324.234 203.742 323.893 201.41 323.941L201.294 316.419C203.628 316.374 210.933 315.566 211.001 319.991ZM209.236 309.41C209.294 313.27 203.184 312.938 201.241 312.976L201.136 306.154C203.079 306.116 209.173 305.384 209.236 309.41Z" fill="white"/>
<path d="M284 270.889C284 263.218 290.218 257 297.889 257H320.111C327.782 257 334 263.218 334 270.889V293.111C334 300.782 327.782 307 320.111 307H297.889C290.218 307 284 300.782 284 293.111V270.889Z" fill="#2468E4"/>
<path d="M308.991 267.714L308.796 268.377V287.606L308.991 287.801L317.917 282.524L308.991 267.714Z" fill="white"/>
<path d="M308.992 267.714L300.066 282.524L308.992 287.801V278.467V267.714Z" fill="white"/>
<path d="M308.992 289.491L308.882 289.625V296.474L308.992 296.795L317.923 284.217L308.992 289.491Z" fill="white"/>
<path d="M308.992 296.796V289.491L300.066 284.217L308.992 296.796Z" fill="white"/>
<path d="M370 207.995C370 201.923 374.923 197 380.995 197H398.587C404.659 197 409.581 201.923 409.581 207.995V225.587C409.581 231.659 404.659 236.581 398.587 236.581H380.995C374.923 236.581 370 231.659 370 225.587V207.995Z" fill="url(#paint2_linear_217_646)"/>
<path d="M384.336 216.948C384.284 217.844 384.974 218.611 385.87 218.663C385.902 218.663 385.935 218.663 385.967 218.663C386.869 218.663 387.598 217.935 387.592 217.032C387.592 216.129 386.863 215.401 385.96 215.407C385.096 215.407 384.381 216.084 384.336 216.948Z" fill="#0033AD"/>
<path d="M378.263 216.529C377.972 216.51 377.721 216.736 377.708 217.026C377.695 217.316 377.914 217.567 378.204 217.58C378.495 217.6 378.74 217.374 378.759 217.084C378.778 216.794 378.553 216.549 378.263 216.529Z" fill="#0033AD"/>
<path d="M384.233 207.497C384.491 207.368 384.594 207.046 384.466 206.788C384.337 206.53 384.014 206.427 383.756 206.556C383.498 206.685 383.395 207 383.524 207.258C383.653 207.523 383.969 207.632 384.233 207.497C384.233 207.497 384.227 207.497 384.233 207.497Z" fill="#0033AD"/>
<path d="M385.882 210.379C386.282 210.179 386.443 209.689 386.243 209.289C386.043 208.89 385.553 208.728 385.153 208.928C384.754 209.128 384.592 209.618 384.792 210.018C384.992 210.418 385.482 210.579 385.882 210.379Z" fill="#0033AD"/>
<path d="M380.325 212.358C380.635 212.558 381.047 212.474 381.253 212.165C381.453 211.855 381.369 211.443 381.06 211.236C380.751 211.036 380.338 211.12 380.132 211.43C379.925 211.739 380.016 212.158 380.325 212.358Z" fill="#0033AD"/>
<path d="M381.313 216.239C380.862 216.213 380.481 216.555 380.455 217.006C380.43 217.458 380.771 217.838 381.223 217.864C381.674 217.89 382.054 217.548 382.08 217.097C382.106 216.652 381.764 216.265 381.313 216.239Z" fill="#0033AD"/>
<path d="M380.415 221.7C380.086 221.868 379.95 222.268 380.118 222.603C380.286 222.932 380.685 223.067 381.021 222.9C381.349 222.732 381.485 222.332 381.317 221.997C381.149 221.668 380.743 221.533 380.415 221.7Z" fill="#0033AD"/>
<path d="M383.575 214.557C384.019 214.847 384.613 214.724 384.896 214.279C385.186 213.835 385.064 213.241 384.619 212.958C384.174 212.668 383.581 212.79 383.297 213.235C383.007 213.673 383.13 214.266 383.575 214.557Z" fill="#0033AD"/>
<path d="M393.6 210.314C393.974 210.559 394.483 210.456 394.728 210.082C394.973 209.708 394.87 209.199 394.496 208.954C394.122 208.709 393.613 208.812 393.368 209.186C393.116 209.566 393.22 210.069 393.6 210.314Z" fill="#0033AD"/>
<path d="M395.264 207.446C395.509 207.607 395.831 207.536 395.992 207.291C396.153 207.046 396.082 206.724 395.837 206.562C395.592 206.401 395.27 206.472 395.109 206.711C394.954 206.956 395.025 207.284 395.264 207.446Z" fill="#0033AD"/>
<path d="M393.724 215.395C392.828 215.343 392.054 216.033 392.009 216.929C391.957 217.825 392.647 218.599 393.543 218.644C393.576 218.644 393.608 218.644 393.634 218.644C394.53 218.644 395.258 217.916 395.258 217.013C395.265 216.155 394.588 215.44 393.724 215.395Z" fill="#0033AD"/>
<path d="M386.419 214.441C386.696 214.989 387.257 215.337 387.876 215.337C388.772 215.337 389.501 214.608 389.501 213.706C389.501 213.454 389.443 213.203 389.327 212.971C388.921 212.165 387.941 211.843 387.141 212.249C386.335 212.661 386.013 213.641 386.419 214.441Z" fill="#0033AD"/>
<path d="M399.177 212.358C399.506 212.191 399.635 211.785 399.468 211.456C399.3 211.127 398.894 210.998 398.565 211.166C398.236 211.333 398.107 211.733 398.268 212.062C398.443 212.391 398.842 212.526 399.177 212.358Z" fill="#0033AD"/>
<path d="M395.051 212.874C394.58 213.112 394.387 213.686 394.625 214.157C394.864 214.628 395.438 214.821 395.908 214.582C396.379 214.344 396.572 213.77 396.334 213.299C396.095 212.829 395.521 212.642 395.051 212.874Z" fill="#0033AD"/>
<path d="M389.732 207.2C390.1 207.22 390.416 206.936 390.442 206.569C390.467 206.201 390.177 205.885 389.81 205.859C389.442 205.84 389.126 206.117 389.101 206.485C389.081 206.859 389.365 207.175 389.732 207.2Z" fill="#0033AD"/>
<path d="M389.726 211.411C390.255 211.443 390.706 211.037 390.732 210.508C390.764 209.979 390.358 209.528 389.829 209.502C389.301 209.47 388.849 209.876 388.823 210.405C388.798 210.934 389.197 211.385 389.726 211.411Z" fill="#0033AD"/>
<path d="M384.544 221.184C385.014 220.945 385.208 220.371 384.969 219.901C384.73 219.43 384.157 219.237 383.686 219.475C383.215 219.714 383.022 220.288 383.261 220.758C383.499 221.229 384.073 221.422 384.544 221.184Z" fill="#0033AD"/>
<path d="M390.344 212.809C389.854 213.564 390.06 214.569 390.815 215.059C391.569 215.549 392.575 215.343 393.065 214.589C393.555 213.835 393.348 212.829 392.594 212.339C392.33 212.165 392.02 212.074 391.704 212.074C391.156 212.074 390.647 212.352 390.344 212.809Z" fill="#0033AD"/>
<path d="M393.175 219.618C392.769 218.812 391.789 218.489 390.99 218.896C390.184 219.302 389.862 220.282 390.268 221.081C390.674 221.887 391.654 222.209 392.453 221.803C393.253 221.404 393.582 220.437 393.182 219.631C393.182 219.624 393.182 219.624 393.175 219.618Z" fill="#0033AD"/>
<path d="M396.016 219.502C395.572 219.211 394.978 219.334 394.695 219.779C394.405 220.224 394.527 220.817 394.972 221.1C395.417 221.391 396.01 221.268 396.294 220.823C396.584 220.385 396.461 219.792 396.016 219.502Z" fill="#0033AD"/>
<path d="M399.138 217.058C399.164 216.606 398.822 216.226 398.371 216.2C397.919 216.174 397.539 216.516 397.513 216.967C397.487 217.419 397.829 217.799 398.28 217.825C398.725 217.851 399.112 217.503 399.138 217.058Z" fill="#0033AD"/>
<path d="M401.388 216.478C401.097 216.458 400.846 216.684 400.833 216.974C400.82 217.264 401.039 217.516 401.329 217.529C401.62 217.548 401.865 217.322 401.884 217.032C401.897 216.742 401.678 216.497 401.388 216.478Z" fill="#0033AD"/>
<path d="M399.268 221.7C398.959 221.5 398.546 221.584 398.34 221.893C398.14 222.203 398.224 222.615 398.533 222.822C398.843 223.022 399.255 222.938 399.462 222.628C399.668 222.319 399.578 221.9 399.268 221.7Z" fill="#0033AD"/>
<path d="M384.323 226.613C384.078 226.452 383.755 226.523 383.594 226.761C383.433 227.006 383.504 227.329 383.742 227.49C383.987 227.651 384.31 227.58 384.471 227.342C384.639 227.103 384.568 226.774 384.323 226.613Z" fill="#0033AD"/>
<path d="M395.36 226.562C395.102 226.691 394.999 227.013 395.128 227.271C395.257 227.529 395.579 227.632 395.837 227.503C396.095 227.374 396.198 227.058 396.069 226.8C395.94 226.536 395.624 226.426 395.36 226.562C395.36 226.562 395.366 226.562 395.36 226.562Z" fill="#0033AD"/>
<path d="M389.249 221.249C389.739 220.494 389.533 219.489 388.779 218.992C388.024 218.502 387.019 218.709 386.522 219.463C386.026 220.217 386.239 221.223 386.993 221.719C387.257 221.894 387.567 221.984 387.883 221.984C388.437 221.99 388.946 221.713 389.249 221.249Z" fill="#0033AD"/>
<path d="M385.993 223.743C385.619 223.498 385.109 223.601 384.864 223.975C384.619 224.349 384.722 224.859 385.096 225.104C385.47 225.349 385.98 225.245 386.225 224.871C386.476 224.497 386.373 223.988 385.993 223.743Z" fill="#0033AD"/>
<path d="M389.79 226.858C389.422 226.838 389.106 227.122 389.081 227.489C389.055 227.857 389.345 228.173 389.713 228.199C390.08 228.218 390.396 227.941 390.422 227.573C390.441 227.199 390.157 226.883 389.79 226.858Z" fill="#0033AD"/>
<path d="M389.795 222.647C389.266 222.615 388.815 223.021 388.789 223.55C388.757 224.079 389.163 224.53 389.691 224.556C390.22 224.582 390.671 224.182 390.697 223.653C390.729 223.131 390.323 222.673 389.795 222.647Z" fill="#0033AD"/>
<path d="M393.711 223.68C393.311 223.886 393.15 224.376 393.356 224.776C393.562 225.175 394.052 225.336 394.452 225.13C394.852 224.93 395.013 224.44 394.813 224.041C394.607 223.641 394.117 223.473 393.711 223.68Z" fill="#0033AD"/>
<path d="M0 207.995C0 201.923 4.92255 197 10.9948 197H28.5865C34.6588 197 39.5813 201.923 39.5813 207.995L39.5813 225.587C39.5813 231.659 34.6588 236.581 28.5865 236.581H10.9948C4.92255 236.581 0 231.659 0 225.587L0 207.995Z" fill="url(#paint3_linear_217_646)"/>
<path d="M14.0486 224.867V213.314L15.4449 214.012V224.875L14.0486 224.867ZM18.8154 227.378V215.917L20.2117 215.941V227.378H18.8154ZM10 222.786V212.282L11.4044 211.616V222.479L10 222.786ZM19.2477 217.181L10.1725 212.86L11.8056 212.118L19.8536 215.929L19.2517 217.181H19.2477ZM28.2978 213.47L18.9558 208.268L19.5135 207L28.9809 212.258L28.3018 213.47H28.2978ZM19.5617 228L10 222.81L10.6781 221.597L20.1696 226.752L19.5617 228ZM11.0874 213.267L10 212.282L19.5135 207.024L20.1776 208.267L11.0874 213.267ZM27.6027 222.734V212.74L28.999 212.262V222.738L27.6027 222.734ZM19.6038 222.815L18.9618 221.583L27.9718 216.951L28.6138 218.184L19.6038 222.819V222.815ZM19.3029 217.381L18.701 216.13L27.9297 211.724L28.5315 212.976L19.3029 217.381ZM19.5627 227.996L18.9518 226.747L28.0872 221.638L29 222.71L19.5627 227.992V227.996Z" fill="url(#paint4_linear_217_646)"/>
<path d="M107 174.722C107 169.353 111.353 165 116.722 165H132.278C137.647 165 142 169.353 142 174.722V190.278C142 195.647 137.647 200 132.278 200H116.722C111.353 200 107 195.647 107 190.278V174.722Z" fill="#2A5ADA"/>
<path d="M124.5 172L122.701 173.065L117.799 175.982L116 177.047V187.141L117.799 188.206L122.746 191.123L124.545 192.187L126.344 191.123L131.201 188.206L133 187.141V177.047L131.201 175.982L126.299 173.065L124.5 172ZM119.598 185.011V179.177L124.5 176.26L129.402 179.177V185.011L124.5 187.928L119.598 185.011Z" fill="white"/>
<path d="M266 174.722C266 169.353 270.353 165 275.722 165H291.278C296.647 165 301 169.353 301 174.722V190.278C301 195.647 296.647 200 291.278 200H275.722C270.353 200 266 195.647 266 190.278V174.722Z" fill="#00B94F"/>
<path d="M289.041 177.332C288.226 175.255 286.166 175.075 283.764 175.548L282.92 172.583L281.104 173.108L281.926 175.994C281.448 176.132 280.963 176.283 280.481 176.432L279.654 173.527L277.839 174.051L278.682 177.015C278.291 177.137 277.907 177.255 277.531 177.364L277.528 177.355L275.023 178.078L275.572 180.005C275.572 180.005 276.906 179.592 276.891 179.623C277.626 179.411 277.986 179.766 278.16 180.112L279.121 183.489C279.172 183.475 279.239 183.458 279.317 183.446C279.256 183.464 279.192 183.482 279.125 183.502L280.471 188.233C280.504 188.472 280.473 188.879 279.959 189.028C279.988 189.042 278.639 189.409 278.639 189.409L278.891 191.668L281.254 190.985C281.694 190.859 282.129 190.741 282.555 190.621L283.409 193.619L285.223 193.095L284.378 190.129C284.879 189.995 285.363 189.86 285.833 189.724L286.673 192.677L288.488 192.152L287.637 189.159C290.641 188.103 292.56 186.721 292.015 183.796C291.576 181.44 290.199 180.73 288.348 180.817C289.249 179.98 289.64 178.852 289.041 177.332V177.332ZM288.325 184.477C288.964 186.717 285.03 187.578 283.8 187.935L282.67 183.962C283.901 183.607 287.66 182.14 288.325 184.477ZM285.886 179.116C286.465 181.155 283.178 181.847 282.153 182.144L281.127 178.541C282.152 178.245 285.28 176.99 285.886 179.116Z" fill="white"/>
<path d="M271 91.9444C271 88.1091 274.109 85 277.944 85H289.056C292.891 85 296 88.1091 296 91.9444V103.056C296 106.891 292.891 110 289.056 110H277.944C274.109 110 271 106.891 271 103.056V91.9444Z" fill="#8247E5"/>
<path d="M286.843 95.3395C286.606 95.2099 286.3 95.2099 286.029 95.3395L284.128 96.4095L282.838 97.0904L280.971 98.1603C280.734 98.29 280.428 98.29 280.157 98.1603L278.697 97.3173C278.46 97.1876 278.29 96.9283 278.29 96.6365V95.0153C278.29 94.7559 278.426 94.4966 278.697 94.3344L280.157 93.5239C280.394 93.3942 280.7 93.3942 280.971 93.5239L282.431 94.3669C282.668 94.4966 282.838 94.7559 282.838 95.0477V96.1177L284.128 95.4044V94.302C284.128 94.0426 283.992 93.7833 283.721 93.6211L281.005 92.0973C280.768 91.9676 280.462 91.9676 280.191 92.0973L277.407 93.6536C277.136 93.7833 277 94.0426 277 94.302V97.3498C277 97.6091 277.136 97.8685 277.407 98.0306L280.157 99.5545C280.394 99.6842 280.7 99.6842 280.971 99.5545L282.838 98.517L284.128 97.8037L285.995 96.7661C286.232 96.6365 286.538 96.6365 286.809 96.7661L288.269 97.5767C288.507 97.7064 288.676 97.9658 288.676 98.2576V99.8787C288.676 100.138 288.54 100.397 288.269 100.56L286.843 101.37C286.606 101.5 286.3 101.5 286.029 101.37L284.569 100.56C284.332 100.43 284.162 100.171 284.162 99.8787V98.8412L282.872 99.5545V100.624C282.872 100.884 283.008 101.143 283.279 101.305L286.029 102.829C286.266 102.959 286.572 102.959 286.843 102.829L289.593 101.305C289.83 101.176 290 100.916 290 100.624V97.5443C290 97.2849 289.864 97.0255 289.593 96.8634L286.843 95.3395Z" fill="white"/>
<path d="M112 91.9444C112 88.1091 115.109 85 118.944 85H130.056C133.891 85 137 88.1091 137 91.9444V103.056C137 106.891 133.891 110 130.056 110H118.944C115.109 110 112 106.891 112 103.056V91.9444Z" fill="#00D395"/>
<path fill-rule="evenodd" clip-rule="evenodd" d="M118.564 100.952C118.214 100.737 118 100.357 118 99.9477V97.6616C118 97.3902 118.221 97.1702 118.493 97.1714C118.579 97.1714 118.665 97.1948 118.739 97.2381L123.898 100.246C124.2 100.422 124.386 100.744 124.386 101.094V103.462C124.387 103.788 124.124 104.052 123.798 104.052C123.69 104.052 123.582 104.022 123.489 103.965L118.564 100.952ZM126.253 96.6122C126.555 96.7877 126.74 97.1117 126.741 97.4604V102.267C126.741 102.408 126.665 102.539 126.541 102.608L125.412 103.244C125.398 103.252 125.382 103.258 125.366 103.262V100.594C125.366 100.248 125.185 99.9278 124.888 99.75L120.357 97.0404V94.0277C120.357 93.7563 120.579 93.5363 120.85 93.5375C120.937 93.5375 121.022 93.5609 121.097 93.6042L126.253 96.6122ZM128.511 93.0625C128.814 93.238 129 93.5621 129 93.9119V100.932C128.999 101.076 128.919 101.208 128.793 101.277L127.722 101.855V96.9678C127.722 96.6227 127.541 96.3033 127.246 96.1255L122.616 93.348V90.4909C122.616 90.4043 122.639 90.3189 122.681 90.2441C122.818 90.0101 123.119 89.9305 123.353 90.0662L128.511 93.0625Z" fill="white"/>
<g filter="url(#filter1_f_217_646)">
<path d="M56 82.7778C56 81.2437 57.2437 80 58.7778 80H63.2222C64.7563 80 66 81.2437 66 82.7778V87.2222C66 88.7563 64.7563 90 63.2222 90H58.7778C57.2437 90 56 88.7563 56 87.2222V82.7778Z" fill="#F7931A"/>
<path d="M137 35.7778C137 34.2437 138.244 33 139.778 33H144.222C145.756 33 147 34.2437 147 35.7778V40.2222C147 41.7563 145.756 43 144.222 43H139.778C138.244 43 137 41.7563 137 40.2222V35.7778Z" fill="#00B94F"/>
<path d="M261 35.7778C261 34.2437 262.244 33 263.778 33H268.222C269.756 33 271 34.2437 271 35.7778V40.2222C271 41.7563 269.756 43 268.222 43H263.778C262.244 43 261 41.7563 261 40.2222V35.7778Z" fill="#51565B"/>
<path d="M347 82.7778C347 81.2437 348.244 80 349.778 80H354.222C355.756 80 357 81.2437 357 82.7778V87.2222C357 88.7563 355.756 90 354.222 90H349.778C348.244 90 347 88.7563 347 87.2222V82.7778Z" fill="#2A5ADA"/>
<path d="M198 4.77778C198 3.24365 199.244 2 200.778 2L205.222 2C206.756 2 208 3.24365 208 4.77778V9.22222C208 10.7563 206.756 12 205.222 12H200.778C199.244 12 198 10.7563 198 9.22222V4.77778Z" fill="white"/>
</g>
<path d="M338 141.778C338 137.482 341.482 134 345.778 134H358.222C362.518 134 366 137.482 366 141.778V154.222C366 158.518 362.518 162 358.222 162H345.778C341.482 162 338 158.518 338 154.222V141.778Z" fill="#008DE4"/>
<path d="M354.479 141H348.654L348.171 143.746L353.429 143.752C356.018 143.752 356.782 144.71 356.76 146.296C356.748 147.107 356.402 148.484 356.252 148.931C355.853 150.12 355.034 151.474 351.961 151.471L346.85 151.467L346.369 154.217H352.181C354.231 154.217 355.101 153.973 356.026 153.541C358.074 152.574 359.292 150.519 359.781 147.837C360.506 143.841 359.602 141 354.479 141Z" fill="white"/>
<path d="M346.141 146.229C344.614 146.229 344.396 147.241 344.252 147.853C344.062 148.652 344 148.978 344 148.978H349.965C351.492 148.978 351.71 147.967 351.853 147.355C352.043 146.556 352.106 146.229 352.106 146.229H346.141Z" fill="white"/>
<path d="M47 141.778C47 137.482 50.4822 134 54.7778 134H67.2222C71.5178 134 75 137.482 75 141.778V154.222C75 158.518 71.5178 162 67.2222 162H54.7778C50.4822 162 47 158.518 47 154.222V141.778Z" fill="#32373D"/>
<path d="M66.7417 143.675L64.8152 144.603L55.5121 149.082C55.4806 148.856 55.4648 148.627 55.4647 148.398C55.466 147.486 55.7195 146.589 56.2001 145.797C56.6807 145.006 57.3717 144.346 58.2047 143.885C59.0378 143.423 59.9839 143.176 60.9493 143.166C61.9148 143.157 62.8661 143.386 63.7091 143.831L64.8118 143.3L64.9763 143.22C63.9661 142.527 62.7729 142.112 61.5285 142.02C60.2841 141.927 59.037 142.162 57.925 142.698C56.813 143.234 55.8795 144.051 55.2275 145.057C54.5755 146.063 54.2305 147.22 54.2307 148.4C54.2307 148.563 54.2372 148.726 54.2503 148.887C54.2686 149.116 54.2149 149.345 54.0959 149.545C53.9769 149.746 53.7979 149.908 53.5815 150.012L53 150.293V151.6L54.712 150.775L55.2664 150.508L55.8127 150.245L65.6201 145.52L66.7221 144.99L69 143.892V142.586L66.7417 143.675Z" fill="white"/>
<path d="M69 145.2L56.3698 151.281L55.2677 151.813L53 152.906V154.213L55.2522 153.128L57.1787 152.199L66.4913 147.712C66.5228 147.94 66.5386 148.17 66.5387 148.401C66.5381 149.315 66.2847 150.213 65.8036 151.006C65.3225 151.799 64.6305 152.459 63.7963 152.92C62.9621 153.382 62.0146 153.63 61.048 153.638C60.0814 153.647 59.1293 153.416 58.2862 152.969L58.2185 153.003L57.023 153.579C58.0329 154.272 59.2259 154.688 60.4701 154.78C61.7143 154.873 62.9613 154.638 64.0733 154.102C65.1853 153.567 66.119 152.75 66.7713 151.744C67.4235 150.738 67.7689 149.581 67.7693 148.401C67.7693 148.236 67.7626 148.072 67.7497 147.909C67.7314 147.68 67.7851 147.451 67.9039 147.251C68.0228 147.051 68.2016 146.888 68.4178 146.784L69 146.503V145.2Z" fill="white"/>
<path d="M181 195.5C181 188.596 186.596 183 193.5 183H213.5C220.404 183 226 188.596 226 195.5V215.5C226 222.404 220.404 228 213.5 228H193.5C186.596 228 181 222.404 181 215.5V195.5Z" fill="#32373D"/>
<path d="M210.953 196H214L207.66 202.423C205.363 204.748 201.641 204.748 199.343 202.423L193 196H196.049L200.866 200.879C201.568 201.587 202.514 201.984 203.499 201.984C204.485 201.984 205.431 201.587 206.133 200.879L210.953 196Z" fill="white"/>
<path d="M196.037 214.667H193L199.357 208.235C201.645 205.922 205.353 205.922 207.643 208.235L214 214.667H210.965L206.125 209.772C205.426 209.067 204.484 208.672 203.502 208.672C202.52 208.672 201.578 209.067 200.879 209.772L196.037 214.667Z" fill="white"/>
<path d="M186 106.722C186 101.353 190.353 97 195.722 97H211.278C216.647 97 221 101.353 221 106.722V122.278C221 127.647 216.647 132 211.278 132H195.722C190.353 132 186 127.647 186 122.278V106.722Z" fill="#ECB244"/>
<path d="M201.989 118.484H209V121.472H204.803V124H201.281V121.55H197.056C197.056 120.552 196.882 119.56 197.146 118.641C197.236 118.181 197.848 117.721 198.292 117.262C199.613 115.883 200.933 114.504 202.343 113.125C202.871 112.587 203.399 112.127 204.017 111.516H197V108.528H201.287V106H204.719V108.449H208.944C208.944 109.447 209.118 110.439 208.854 111.359C208.764 111.818 208.152 112.278 207.708 112.738C206.387 114.117 205.067 115.496 203.657 116.875C203.129 117.413 202.601 117.946 201.989 118.484Z" fill="#333333"/>
<path d="M75 270.889C75 263.218 81.2183 257 88.8889 257H111.111C118.782 257 125 263.218 125 270.889V293.111C125 300.782 118.782 307 111.111 307H88.8889C81.2183 307 75 300.782 75 293.111V270.889Z" fill="#1E2226"/>
<path d="M93.6424 280.367L99.3065 274.703L104.974 280.37L108.269 277.074L99.3065 268.111L90.3467 277.071L93.6424 280.367" fill="#FCC419"/>
<path d="M85.688 280.363H90.3491V285.024H85.688V280.363Z" fill="#FCC419"/>
<path d="M93.641 285.021L99.3051 290.685L104.972 285.018L108.27 288.313L108.268 288.314L99.3051 297.277L90.345 288.317L90.3403 288.313L93.641 285.021" fill="#FCC419"/>
<path d="M108.263 280.365H112.924V285.026H108.263V280.365Z" fill="#FCC419"/>
<path d="M102.649 282.692H102.65L99.306 279.348L96.8344 281.82H96.8342L96.5503 282.104L95.9646 282.69L95.96 282.694L95.9646 282.699L99.306 286.04L102.65 282.696L102.652 282.694L102.649 282.692" fill="#FCC419"/>
<defs>
<filter id="filter0_d_217_646" x="77" y="106" width="259" height="283" filterUnits="userSpaceOnUse" color-interpolation-filters="sRGB">
<feFlood flood-opacity="0" result="BackgroundImageFix"/>
<feColorMatrix in="SourceAlpha" type="matrix" values="0 0 0 0 0 0 0 0 0 0 0 0 0 0 0 0 0 0 127 0" result="hardAlpha"/>
<feOffset dy="4"/>
<feGaussianBlur stdDeviation="18"/>
<feComposite in2="hardAlpha" operator="out"/>
<feColorMatrix type="matrix" values="0 0 0 0 0.345098 0 0 0 0 0.588235 0 0 0 0 1 0 0 0 0.15 0"/>
<feBlend mode="normal" in2="BackgroundImageFix" result="effect1_dropShadow_217_646"/>
<feBlend mode="normal" in="SourceGraphic" in2="effect1_dropShadow_217_646" result="shape"/>
</filter>
<filter id="filter1_f_217_646" x="54" y="0" width="305" height="92" filterUnits="userSpaceOnUse" color-interpolation-filters="sRGB">
<feFlood flood-opacity="0" result="BackgroundImageFix"/>
<feBlend mode="normal" in="SourceGraphic" in2="BackgroundImageFix" result="shape"/>
<feGaussianBlur stdDeviation="1" result="effect1_foregroundBlur_217_646"/>
</filter>
<linearGradient id="paint0_linear_217_646" x1="205" y1="59" x2="205" y2="429" gradientUnits="userSpaceOnUse">
<stop stop-color="#162867"/>
<stop offset="1" stop-color="#051345" stop-opacity="0"/>
</linearGradient>
<linearGradient id="paint1_linear_217_646" x1="206.5" y1="159.1" x2="410.428" y2="201.941" gradientUnits="userSpaceOnUse">
<stop stop-color="#589BFF"/>
<stop offset="1" stop-color="#4E5FFF"/>
</linearGradient>
<linearGradient id="paint2_linear_217_646" x1="389.791" y1="197" x2="389.791" y2="236.581" gradientUnits="userSpaceOnUse">
<stop stop-color="white"/>
<stop offset="1" stop-color="#CCD9EB"/>
</linearGradient>
<linearGradient id="paint3_linear_217_646" x1="19.7907" y1="197" x2="19.7907" y2="236.581" gradientUnits="userSpaceOnUse">
<stop stop-color="white"/>
<stop offset="1" stop-color="#CCD9EB"/>
</linearGradient>
<linearGradient id="paint4_linear_217_646" x1="10" y1="232.55" x2="35.3916" y2="227.623" gradientUnits="userSpaceOnUse">
<stop stop-color="#2CE0C5"/>
<stop offset="1" stop-color="#0066FF"/>
</linearGradient>
</defs>
</svg>
