<svg width="23" height="26" viewBox="0 0 23 26" fill="none" xmlns="http://www.w3.org/2000/svg">
<path d="M22 9.03583L11.3551 14.3155L1.03799 9.19978L11.3551 3.97062L22 9.03583Z" fill="url(#paint0_linear_207_31387)"/>
<path d="M22 9.2333H22.5C22.5 9.03997 22.3885 8.86396 22.2138 8.7813L22 9.2333ZM1 9.40117L0.776541 8.95389C0.607068 9.03855 0.5 9.21173 0.5 9.40117H1ZM22 20.074L22.2179 20.5241C22.3904 20.4405 22.5 20.2657 22.5 20.074H22ZM11.3852 25.2128L11.1674 25.6629C11.305 25.7295 11.4655 25.7295 11.6031 25.6629L11.3852 25.2128ZM1 20.187H0.5C0.5 20.3787 0.609623 20.5535 0.782194 20.637L1 20.187ZM8.78893 13.1706L8.57109 13.6207L8.57916 13.6244L8.78893 13.1706ZM11.3852 4.21283L11.599 3.76084C11.4603 3.69521 11.2991 3.69695 11.1618 3.76554L11.3852 4.21283ZM5.89487 11.77L5.67707 12.2201V12.2201L5.89487 11.77ZM21.7821 19.624L11.1674 24.7628L11.6031 25.6629L22.2179 20.5241L21.7821 19.624ZM1.5 20.187V9.40117H0.5V20.187H1.5ZM11.8852 25.2128V14.3706H10.8852V25.2128H11.8852ZM11.6031 24.7628L1.21781 19.7369L0.782194 20.637L11.1674 25.6629L11.6031 24.7628ZM21.5 9.2333V14.427H22.5V9.2333H21.5ZM21.5 14.427V20.074H22.5V14.427H21.5ZM11.595 13.9167L8.99871 12.7167L8.57916 13.6244L11.1755 14.8244L11.595 13.9167ZM22.2138 8.7813L11.599 3.76084L11.1715 4.66482L21.7862 9.68529L22.2138 8.7813ZM11.1618 3.76554L0.776541 8.95389L1.22346 9.84846L11.6087 4.66012L11.1618 3.76554ZM21.7822 8.78324L11.1674 13.9205L11.6031 14.8206L22.2178 9.68336L21.7822 8.78324ZM9.00674 12.7205L6.11268 11.3199L5.67707 12.2201L8.57113 13.6206L9.00674 12.7205ZM6.11268 11.3199L1.21781 8.95111L0.782194 9.85124L5.67707 12.2201L6.11268 11.3199Z" fill="url(#paint1_linear_207_31387)"/>
<defs>
<linearGradient id="paint0_linear_207_31387" x1="3.32459" y1="14.6581" x2="12.4092" y2="19.2911" gradientUnits="userSpaceOnUse">
<stop stop-color="#0066FF"/>
<stop offset="1" stop-color="#2CE0C5"/>
</linearGradient>
<linearGradient id="paint1_linear_207_31387" x1="0.999998" y1="29.912" x2="28.9172" y2="24.1147" gradientUnits="userSpaceOnUse">
<stop stop-color="#0066FF"/>
<stop offset="0.635417" stop-color="#2CE0C5"/>
</linearGradient>
</defs>
</svg>
