
<svg width="48" height="63" viewBox="0 0 48 63" fill="none" xmlns="http://www.w3.org/2000/svg">
<path d="M46.4962 30.6418C45.7123 29.8579 44.7321 29.4003 43.7522 29.2695C43.9481 27.767 43.491 26.2639 42.3799 25.0881C41.6612 24.3694 40.6813 23.9123 39.7011 23.7159C39.7662 23.4547 39.7662 23.2583 39.7662 22.9972C39.7662 21.6906 39.2435 20.384 38.3289 19.4693C37.8713 19.0118 37.349 18.6855 36.7607 18.4239L42.0527 13.1319C44.0129 11.1717 44.0129 8.0358 42.0527 6.07576C40.0926 4.11561 36.9566 4.11561 34.9966 6.07576L16.5081 24.5654C15.7894 23.1281 14.6136 21.1027 13.1105 19.2735C12.1307 18.032 10.8236 16.8562 9.25592 15.7456C6.96898 14.1123 3.96394 14.1123 1.74268 15.7456C-0.0866883 17.0522 -0.544264 19.4699 0.697221 21.3644L3.44127 25.6109C4.87863 27.8322 5.59731 30.4458 5.53221 33.1242L5.33624 41.2258C5.33624 42.0096 5.00948 42.7283 4.42158 43.3167L0.697279 47.041C0.109373 47.6289 0.109373 48.6092 0.697279 49.2623C1.02405 49.589 1.41598 49.7198 1.80791 49.7198C2.19985 49.7198 2.59178 49.589 2.91854 49.2623L6.64284 45.538C7.75347 44.4273 8.40699 42.9248 8.47221 41.2914L8.66818 33.1898C8.73335 29.9231 7.81869 26.6564 6.05503 23.9123L3.31098 19.6658C2.98421 19.2083 3.11501 18.6204 3.57212 18.2936C4.74791 17.4441 6.31617 17.4441 7.42674 18.2936C8.73331 19.2082 9.844 20.2537 10.6283 21.2335C12.9803 24.1734 14.5486 27.8322 14.5486 27.8322C14.7445 28.2897 15.2021 28.6817 15.6592 28.7468C16.1819 28.8776 16.7046 28.6817 17.0965 28.2893L37.1543 8.23156C37.873 7.51286 39.0487 7.51286 39.7674 8.23156C40.4861 8.95026 40.4861 10.126 39.7674 10.8447L24.5445 26.2648C23.303 27.5063 22.8459 29.2048 23.1722 30.773C24.6096 37.4373 19.5136 40.508 19.3176 40.6384C18.5989 41.096 18.3377 42.0107 18.7297 42.7945C18.9908 43.3172 19.5135 43.5784 20.1019 43.5784C20.3631 43.5784 20.6247 43.5132 20.8858 43.3824C22.846 42.2718 25.9167 39.201 26.5046 34.4969C27.0273 34.6929 27.55 34.758 28.1379 34.758C28.3991 34.758 28.6607 34.6929 28.8566 34.6929C29.0526 35.6727 29.5102 36.5873 30.2289 37.3717C31.2087 38.3515 32.4502 38.8091 33.7567 38.8091C33.9527 38.8091 34.1487 38.7439 34.4103 38.7439C34.5411 39.7237 34.9982 40.704 35.7825 41.4879C36.3053 42.0107 36.9583 42.4026 37.6119 42.6637C34.9987 46.3223 31.8623 49.6548 29.5103 52.0063C27.4193 54.0316 24.545 54.8812 21.6703 54.2276L19.9717 53.8357C19.4489 53.7049 18.9262 53.9008 18.5343 54.2276L13.3074 59.4545C12.7195 60.0424 12.7195 61.0226 13.3074 61.6757C13.6342 62.0025 14.0261 62.1333 14.4181 62.1333C14.81 62.1333 15.2019 62.0025 15.5287 61.6757L20.102 57.1024L20.9515 57.2984C24.8061 58.2131 28.8572 57.0373 31.6664 54.2928C34.6063 51.4179 38.5917 47.1057 41.5318 42.4672C41.9893 42.2061 42.4464 41.9445 42.7732 41.5526L46.5626 37.7631C47.4773 36.8485 48 35.5419 48 34.2353C47.9995 32.8635 47.4761 31.6217 46.4962 30.6418ZM29.3785 31.0989C28.6598 31.8176 27.4841 31.8176 26.7654 31.0989C26.0467 30.3802 26.0467 29.2044 26.7654 28.4858L33.4949 21.7563C34.2136 21.0376 35.3893 21.0376 36.108 21.7563C36.4348 22.0831 36.6307 22.6058 36.6307 23.0629C36.6307 23.5856 36.4348 24.0427 36.108 24.3695L29.3785 31.0989ZM34.9969 35.15C34.2781 35.8687 33.1024 35.8687 32.3837 35.15C31.665 34.4313 31.665 33.2555 32.3837 32.5369L37.5449 27.3757C37.9368 26.9837 38.3944 26.8529 38.8515 26.8529C39.309 26.8529 39.8313 27.0489 40.1581 27.3757C40.8768 28.0944 40.8768 29.2701 40.1581 29.9888L34.9969 35.15ZM44.2747 35.5419L40.4853 39.3314C39.7666 40.0501 38.5908 40.0501 37.8722 39.3314C37.1535 38.6126 37.1535 37.4369 37.8722 36.7182L41.6616 32.9288C42.3803 32.2101 43.556 32.2101 44.2747 32.9288C44.6015 33.2556 44.7975 33.7783 44.7975 34.2354C44.8626 34.6925 44.6666 35.15 44.2747 35.5419Z" fill="url(#paint0_linear_82_3000)"/>
<path d="M15.5276 7.44802C16.3771 7.44802 17.0957 6.72932 17.0957 5.87988V1.56815C17.0957 0.718657 16.377 0 15.5276 0C14.6781 0 13.9594 0.718704 13.9594 1.56815V5.88034C13.9599 6.72938 14.6786 7.44802 15.5276 7.44802Z" fill="url(#paint1_linear_82_3000)"/>
<path d="M7.62214 9.80009C7.9489 10.1269 8.34084 10.2576 8.73276 10.2576C9.1247 10.2576 9.51664 10.1269 9.84339 9.80009C10.4313 9.21218 10.4313 8.23194 9.84339 7.57883L6.77267 4.5081C6.18476 3.9202 5.1393 3.9202 4.55141 4.5081C3.9635 5.09601 3.9635 6.07625 4.55141 6.72936L7.62214 9.80009Z" fill="url(#paint2_linear_82_3000)"/>
<path d="M22.3224 10.2574C22.7143 10.2574 23.1063 10.1266 23.433 9.79985L26.5038 6.72912C27.0917 6.14122 27.0917 5.16098 26.5038 4.50786C25.9159 3.91996 24.8704 3.91996 24.2825 4.50786L21.2118 7.57859C20.6239 8.16649 20.6239 9.14673 21.2118 9.79985C21.5381 10.1266 21.93 10.2574 22.3224 10.2574Z" fill="url(#paint3_linear_82_3000)"/>
<defs>
<linearGradient id="paint0_linear_82_3000" x1="-1.13011e-07" y1="75.5955" x2="64.7841" y2="64.862" gradientUnits="userSpaceOnUse">
<stop stop-color="#0066FF"/>
<stop offset="1" stop-color="#2CE0C5"/>
</linearGradient>
<linearGradient id="paint1_linear_82_3000" x1="-1.13011e-07" y1="75.5955" x2="64.7841" y2="64.862" gradientUnits="userSpaceOnUse">
<stop stop-color="#0066FF"/>
<stop offset="1" stop-color="#2CE0C5"/>
</linearGradient>
<linearGradient id="paint2_linear_82_3000" x1="-1.13011e-07" y1="75.5955" x2="64.7841" y2="64.862" gradientUnits="userSpaceOnUse">
<stop stop-color="#0066FF"/>
<stop offset="1" stop-color="#2CE0C5"/>
</linearGradient>
<linearGradient id="paint3_linear_82_3000" x1="-1.13011e-07" y1="75.5955" x2="64.7841" y2="64.862" gradientUnits="userSpaceOnUse">
<stop stop-color="#0066FF"/>
<stop offset="1" stop-color="#2CE0C5"/>
</linearGradient>
</defs>
</svg>
